<svg width="16" height="16" viewBox="0 0 16 16" fill="none" xmlns="http://www.w3.org/2000/svg">
<path d="M6.76874 6.45362C7.58002 6.36294 8.41997 6.36294 9.23125 6.45362C9.39329 6.47173 9.51995 6.60028 9.53787 6.75349C9.63473 7.58167 9.63473 8.41833 9.53787 9.24652C9.51995 9.39972 9.39329 9.52828 9.23125 9.54639C8.41997 9.63706 7.58002 9.63706 6.76874 9.54639C6.6067 9.52828 6.48004 9.39972 6.46212 9.24652C6.36526 8.41833 6.36526 7.58167 6.46212 6.75349C6.48004 6.60028 6.6067 6.47173 6.76874 6.45362Z" fill="white"/>
<path fillRule="evenodd" clip-rule="evenodd" d="M10.25 0.6875C10.5607 0.6875 10.8125 0.93934 10.8125 1.25V3.44488C11.685 3.61789 12.3796 4.3072 12.5436 5.1875H14.75C15.0607 5.1875 15.3125 5.43934 15.3125 5.75C15.3125 6.06066 15.0607 6.3125 14.75 6.3125H12.659C12.6866 6.6871 12.705 7.06222 12.7142 7.4375H14C14.3107 7.4375 14.5625 7.68934 14.5625 8C14.5625 8.31066 14.3107 8.5625 14 8.5625H12.7142C12.705 8.93778 12.6866 9.3129 12.659 9.6875H14.75C15.0607 9.6875 15.3125 9.93934 15.3125 10.25C15.3125 10.5607 15.0607 10.8125 14.75 10.8125H12.5436C12.3796 11.6928 11.685 12.3821 10.8125 12.5551V14.75C10.8125 15.0607 10.5607 15.3125 10.25 15.3125C9.93934 15.3125 9.6875 15.0607 9.6875 14.75V12.6693C9.31382 12.6958 8.93845 12.7134 8.5625 12.7222V14C8.5625 14.3107 8.31066 14.5625 8 14.5625C7.68934 14.5625 7.4375 14.3107 7.4375 14V12.7222C7.06155 12.7134 6.68618 12.6958 6.3125 12.6693V14.75C6.3125 15.0607 6.06066 15.3125 5.75 15.3125C5.43934 15.3125 5.1875 15.0607 5.1875 14.75V12.5551C4.31497 12.3821 3.6204 11.6928 3.4564 10.8125H1.25C0.93934 10.8125 0.6875 10.5607 0.6875 10.25C0.6875 9.93934 0.93934 9.6875 1.25 9.6875H3.34105C3.31345 9.3129 3.29505 8.93778 3.28585 8.5625H2C1.68934 8.5625 1.4375 8.31066 1.4375 8C1.4375 7.68934 1.68934 7.4375 2 7.4375H3.28585C3.29505 7.06222 3.31345 6.6871 3.34105 6.3125H1.25C0.93934 6.3125 0.6875 6.06066 0.6875 5.75C0.6875 5.43934 0.93934 5.1875 1.25 5.1875H3.4564C3.6204 4.3072 4.31497 3.61789 5.1875 3.44488V1.25C5.1875 0.93934 5.43934 0.6875 5.75 0.6875C6.06066 0.6875 6.3125 0.93934 6.3125 1.25V3.33068C6.68618 3.30423 7.06155 3.2866 7.4375 3.2778V2C7.4375 1.68934 7.68934 1.4375 8 1.4375C8.31066 1.4375 8.5625 1.68934 8.5625 2V3.2778C8.93845 3.2866 9.31382 3.30423 9.6875 3.33068V1.25C9.6875 0.93934 9.93934 0.6875 10.25 0.6875ZM9.35621 5.33558C8.46188 5.23562 7.53811 5.23562 6.64378 5.33558C5.97028 5.41085 5.42449 5.94095 5.34474 6.6228C5.23772 7.53782 5.23772 8.46219 5.34474 9.37721C5.42449 10.0591 5.97028 10.5892 6.64378 10.6644C7.53811 10.7644 8.46188 10.7644 9.35621 10.6644C10.0297 10.5892 10.5755 10.0591 10.6553 9.37721C10.7623 8.46219 10.7623 7.53781 10.6553 6.6228C10.5755 5.94095 10.0297 5.41085 9.35621 5.33558Z" fill="white"/>
</svg>
