<svg width="71" height="71" viewBox="0 0 71 71" fill="none" xmlns="http://www.w3.org/2000/svg">
<path d="M0.44849 13.7612C0.648755 7.73383 0.748888 4.72013 2.69678 2.7668C4.64467 0.813476 7.65631 0.705006 13.6796 0.488066C20.539 0.24101 28.9175 0 35.5 0C42.0825 0 50.461 0.24101 57.3204 0.488066C63.3437 0.705006 66.3553 0.813476 68.3032 2.7668C70.2511 4.72013 70.3512 7.73383 70.5515 13.7612C70.7787 20.5988 71 28.9424 71 35.5C71 41.9802 70.7839 50.2044 70.5596 56.9959C70.3573 63.1198 70.2561 66.1818 68.2921 68.1386C66.3281 70.0954 63.2413 70.186 57.0678 70.3671L35.5 71L13.9322 70.3671C7.75869 70.186 4.67194 70.0954 2.7079 68.1386C0.743868 66.1818 0.642727 63.1198 0.440444 56.9959C0.216109 50.2044 0 41.9802 0 35.5C0 28.9424 0.221304 20.5988 0.44849 13.7612Z" fill="url(#paint0_linear_2218_9783)"/>
<path d="M34.9506 45.0241C40.2109 45.0241 44.4753 40.7598 44.4753 35.4994C44.4753 30.239 40.2109 25.9746 34.9506 25.9746C29.6902 25.9746 25.4258 30.239 25.4258 35.4994C25.4258 40.7598 29.6902 45.0241 34.9506 45.0241Z" fill="white"/>
<path d="M51.4502 31.2934L51.2735 31.258C50.9497 31.191 50.6488 31.0414 50.3998 30.8239C50.1508 30.6064 49.9621 30.3283 49.8522 30.0165C49.7071 29.624 49.5439 29.2308 49.3666 28.8476C49.2229 28.5489 49.1588 28.2181 49.1806 27.8874C49.2023 27.5567 49.3091 27.2372 49.4906 26.9599L49.5922 26.8079C49.9979 26.1967 50.18 25.4642 50.1077 24.7341C50.0354 24.0041 49.713 23.3215 49.1953 22.8018L47.65 21.2563C47.1303 20.7382 46.4475 20.4158 45.7172 20.3436C44.9869 20.2714 44.2542 20.4538 43.643 20.86L43.4917 20.9611C43.3517 21.0548 43.2547 21.2002 43.2219 21.3654C43.1892 21.5306 43.2234 21.7021 43.317 21.8421C43.4107 21.982 43.5561 22.0791 43.7213 22.1119C43.8865 22.1446 44.058 22.1104 44.198 22.0168L44.3487 21.9163C44.7155 21.6731 45.155 21.564 45.5929 21.6074C46.0308 21.6508 46.4404 21.844 46.7523 22.1544L48.2977 23.6998C48.6082 24.0115 48.8016 24.4209 48.8451 24.8588C48.8886 25.2966 48.7796 25.7361 48.5365 26.1028L48.4348 26.2548C48.1317 26.7125 47.9521 27.2408 47.9135 27.7885C47.8748 28.3361 47.9784 28.8845 48.2141 29.3803C48.3772 29.7331 48.5273 30.0953 48.6606 30.4568C48.8453 30.9724 49.16 31.4317 49.574 31.7902C49.9881 32.1487 50.4877 32.3943 51.0245 32.5033L51.2012 32.5386C51.6327 32.6259 52.0207 32.8596 52.2998 33.2C52.5788 33.5405 52.7318 33.9669 52.7327 34.4071V36.5925C52.7318 37.0327 52.5788 37.4591 52.2997 37.7996C52.0206 38.1401 51.6325 38.3737 51.2009 38.4609L51.0242 38.4963C50.4874 38.6053 49.9878 38.8509 49.5737 39.2094C49.1596 39.5678 48.845 40.0271 48.6602 40.5427C48.5269 40.9043 48.3768 41.2667 48.2144 41.6187C47.9783 42.1146 47.8746 42.6632 47.9132 43.2111C47.9519 43.759 48.1317 44.2876 48.4351 44.7454L48.5356 44.8961C48.779 45.2628 48.8882 45.7024 48.8448 46.1404C48.8014 46.5784 48.6081 46.9879 48.2974 47.2997L46.752 48.8451C46.4402 49.1554 46.0308 49.3485 45.593 49.392C45.1553 49.4355 44.7159 49.3267 44.3491 49.0839L44.1971 48.9823C43.7394 48.6791 43.2111 48.4994 42.6634 48.4607C42.1157 48.422 41.5674 48.5257 41.0716 48.7616C40.7188 48.9246 40.3566 49.0748 39.995 49.208C39.4794 49.3928 39.0201 49.7075 38.6616 50.1216C38.3031 50.5357 38.0576 51.0354 37.9486 51.5722L37.9132 51.7489C37.8259 52.1804 37.5923 52.5684 37.2518 52.8475C36.9114 53.1265 36.485 53.2795 36.0448 53.2804H33.8594C33.4191 53.2794 32.9927 53.1265 32.6523 52.8474C32.3118 52.5683 32.0782 52.1802 31.9909 51.7486L31.9556 51.5719C31.9211 51.4082 31.8234 51.2648 31.6837 51.1727C31.544 51.0807 31.3736 51.0474 31.2096 51.0803C31.0456 51.1131 30.9011 51.2093 30.8076 51.3481C30.7142 51.4868 30.6792 51.6568 30.7103 51.8212L30.7457 51.9979C30.8912 52.717 31.2805 53.3637 31.8479 53.8288C32.4152 54.2939 33.1258 54.5488 33.8594 54.5504H36.0448C36.7784 54.5488 37.489 54.2938 38.0563 53.8287C38.6237 53.3635 39.013 52.7167 39.1585 51.9976L39.1938 51.8208C39.2609 51.4971 39.4104 51.1961 39.6279 50.9471C39.8454 50.6981 40.1236 50.5095 40.4354 50.3995C40.8279 50.2544 41.2211 50.0913 41.6043 49.9139C41.9031 49.7706 42.2337 49.7067 42.5644 49.7284C42.8951 49.7501 43.2145 49.8567 43.492 50.038L43.6439 50.1396C44.2552 50.545 44.9877 50.7269 45.7177 50.6546C46.4476 50.5823 47.1302 50.2601 47.65 49.7427L49.1956 48.1977C49.7135 47.6779 50.0358 46.9951 50.108 46.2649C50.1803 45.5347 49.9979 44.8019 49.5919 44.1907L49.4914 44.0401C49.3096 43.7627 49.2026 43.443 49.1808 43.1121C49.159 42.7811 49.2232 42.4502 49.3671 42.1514C49.5438 41.7688 49.7069 41.3756 49.852 40.9829C49.9621 40.6712 50.1507 40.3931 50.3997 40.1757C50.6488 39.9582 50.9497 39.8087 51.2735 39.7417L51.4502 39.7064C52.1693 39.5608 52.8161 39.1715 53.2812 38.6041C53.7463 38.0367 54.0011 37.3261 54.0027 36.5925V34.4071C54.0011 33.6735 53.7462 32.9629 53.2811 32.3956C52.816 31.8282 52.1693 31.4389 51.4502 31.2934Z" fill="white"/>
<path d="M25.7032 48.9829L25.5525 49.0833C25.1858 49.3268 24.7462 49.436 24.3082 49.3926C23.8702 49.3492 23.4607 49.1559 23.1489 48.8452L21.6037 47.2998C21.2932 46.9881 21.0998 46.5787 21.0563 46.1409C21.0128 45.703 21.1218 45.2636 21.365 44.8968L21.4666 44.7449C21.7697 44.2871 21.9493 43.7588 21.9879 43.2111C22.0266 42.6635 21.9231 42.1152 21.6873 41.6194C21.5242 41.2665 21.3741 40.9043 21.2408 40.5428C21.0561 40.0272 20.7414 39.5679 20.3273 39.2094C19.9131 38.8509 19.4135 38.6053 18.8767 38.4964L18.7 38.461C18.2685 38.3737 17.8804 38.1401 17.6014 37.7996C17.3223 37.4591 17.1694 37.0327 17.1685 36.5925V34.4072C17.1694 33.9669 17.3224 33.5405 17.6015 33.2C17.8806 32.8596 18.2687 32.6259 18.7002 32.5387L18.8769 32.5034C19.4137 32.3944 19.9133 32.1488 20.3274 31.7903C20.7416 31.4318 21.0562 30.9725 21.2409 30.4569C21.3743 30.0954 21.5243 29.733 21.6868 29.381C21.9229 28.885 22.0266 28.3364 21.9879 27.7885C21.9492 27.2406 21.7695 26.7121 21.466 26.2542L21.3656 26.1035C21.1222 25.7368 21.0129 25.2973 21.0563 24.8593C21.0997 24.4213 21.2931 24.0117 21.6037 23.6999L23.1491 22.1545C23.461 21.8443 23.8704 21.6512 24.3081 21.6077C24.7459 21.5642 25.1852 21.673 25.5521 21.9157L25.7041 22.0173C26.1618 22.3204 26.6901 22.5 27.2378 22.5387C27.7854 22.5774 28.3338 22.4738 28.8296 22.2381C29.1824 22.075 29.5446 21.9249 29.9061 21.7916C30.4218 21.6068 30.881 21.2922 31.2395 20.878C31.598 20.4639 31.8436 19.9643 31.9526 19.4275L31.9879 19.2507C32.0752 18.8193 32.3089 18.4312 32.6493 18.1521C32.9898 17.8731 33.4162 17.7202 33.8564 17.7193H36.0418C36.482 17.7202 36.9084 17.8731 37.2489 18.1522C37.5894 18.4313 37.823 18.8195 37.9102 19.251L37.9456 19.4277C37.9787 19.5929 38.076 19.7381 38.2161 19.8315C38.2855 19.8778 38.3633 19.9099 38.4452 19.9261C38.527 19.9423 38.6112 19.9422 38.6929 19.9258C38.7747 19.9094 38.8525 19.8771 38.9217 19.8307C38.991 19.7843 39.0505 19.7247 39.0968 19.6553C39.143 19.5859 39.1751 19.5081 39.1913 19.4263C39.2075 19.3444 39.2074 19.2603 39.191 19.1785L39.1555 19.002C39.01 18.2829 38.6207 17.6361 38.0533 17.171C37.486 16.7058 36.7754 16.4509 36.0418 16.4492H33.8564C33.1227 16.4509 32.4122 16.7058 31.8448 17.171C31.2774 17.6361 30.8881 18.2829 30.7427 19.002L30.7073 19.1788C30.6403 19.5025 30.4907 19.8035 30.2732 20.0525C30.0557 20.3015 29.7776 20.4901 29.4658 20.6001C29.0733 20.7452 28.6801 20.9083 28.2968 21.0857C27.9981 21.2292 27.6674 21.2932 27.3367 21.2715C27.006 21.2497 26.6866 21.143 26.4092 20.9617L26.2572 20.8601C25.646 20.4545 24.9134 20.2725 24.1835 20.3448C23.4535 20.4171 22.7709 20.7393 22.2511 21.257L20.7055 22.8019C20.1877 23.3217 19.8653 24.0045 19.7931 24.7348C19.7209 25.465 19.9033 26.1977 20.3093 26.8089L20.4098 26.9596C20.5916 27.237 20.6986 27.5566 20.7203 27.8876C20.7421 28.2185 20.678 28.5494 20.5341 28.8483C20.3574 29.2309 20.1942 29.6241 20.0491 30.0167C19.9391 30.3285 19.7504 30.6065 19.5014 30.824C19.2524 31.0414 18.9514 31.1909 18.6277 31.2579L18.4512 31.2935C17.7321 31.4389 17.0853 31.8282 16.6202 32.3956C16.155 32.9629 15.9001 33.6735 15.8984 34.4072V36.5925C15.9001 37.3262 16.155 38.0368 16.6202 38.6041C17.0853 39.1715 17.7321 39.5608 18.4512 39.7062L18.628 39.7416C18.9518 39.8087 19.2527 39.9582 19.5017 40.1757C19.7507 40.3932 19.9393 40.6713 20.0493 40.9831C20.1944 41.3756 20.3576 41.7688 20.5349 42.1521C20.6786 42.4508 20.7426 42.7815 20.7209 43.1122C20.6992 43.4429 20.5924 43.7624 20.4109 44.0397L20.3093 44.1917C19.9036 44.8029 19.7215 45.5355 19.7938 46.2655C19.8661 46.9955 20.1884 47.6781 20.7062 48.1978L22.2511 49.7434C22.771 50.2612 23.4538 50.5835 24.184 50.6557C24.9142 50.7279 25.6469 50.5456 26.2581 50.1396L26.4094 50.0385C26.5494 49.9449 26.6465 49.7994 26.6792 49.6342C26.712 49.469 26.6778 49.2976 26.5841 49.1576C26.4905 49.0176 26.345 48.9205 26.1798 48.8878C26.0146 48.855 25.8432 48.8892 25.7032 48.9829Z" fill="white"/>
<defs>
<linearGradient id="paint0_linear_2218_9783" x1="-5.16364" y1="-3.87273" x2="82.6182" y2="92.3" gradientUnits="userSpaceOnUse">
<stop stop-color="#8B4100"/>
<stop offset="1" stop-color="#FF841A"/>
</linearGradient>
</defs>
</svg>
