<svg width="71" height="71" viewBox="0 0 71 71" fill="none" xmlns="http://www.w3.org/2000/svg">
<path d="M0.44849 13.7612C0.648755 7.73383 0.748888 4.72013 2.69678 2.7668C4.64467 0.813476 7.65631 0.705006 13.6796 0.488066C20.539 0.24101 28.9175 0 35.5 0C42.0825 0 50.461 0.24101 57.3204 0.488066C63.3437 0.705006 66.3553 0.813476 68.3032 2.7668C70.2511 4.72013 70.3512 7.73383 70.5515 13.7612C70.7787 20.5988 71 28.9424 71 35.5C71 41.9802 70.7839 50.2044 70.5596 56.9959C70.3573 63.1198 70.2561 66.1818 68.2921 68.1386C66.3281 70.0954 63.2413 70.186 57.0678 70.3671L35.5 71L13.9322 70.3671C7.75869 70.186 4.67194 70.0954 2.7079 68.1386C0.743868 66.1818 0.642727 63.1198 0.440444 56.9959C0.216109 50.2044 0 41.9802 0 35.5C0 28.9424 0.221304 20.5988 0.44849 13.7612Z" fill="url(#paint0_linear_2218_9770)"/>
<path d="M48.0904 20H22.9076C21.5724 20.0018 20.2924 20.533 19.3482 21.4771C18.4041 22.4213 17.8729 23.7013 17.8711 25.0365V46.744C17.8729 48.0793 18.4041 49.3593 19.3482 50.3035C20.2924 51.2476 21.5724 51.7788 22.9076 51.7806H48.0904C49.4256 51.7788 50.7056 51.2476 51.6498 50.3035C52.5939 49.3593 53.1251 48.0793 53.1269 46.744V25.0365C53.1251 23.7013 52.5939 22.4213 51.6498 21.4771C50.7056 20.533 49.4256 20.0018 48.0904 20ZM43.2175 45.1701C42.5277 45.1684 41.8543 44.9599 41.2842 44.5716C40.7141 44.1833 40.2735 43.633 40.0193 42.9918H25.5896C25.2557 42.9918 24.9354 42.8592 24.6993 42.623C24.4631 42.3869 24.3305 42.0666 24.3305 41.7327C24.3305 41.3987 24.4631 41.0785 24.6993 40.8423C24.9354 40.6062 25.2557 40.4735 25.5896 40.4735H40.0193C40.2476 39.89 40.6308 39.3799 41.1277 38.9981C41.6245 38.6163 42.2161 38.3774 42.8388 38.3071C43.4614 38.2368 44.0914 38.3377 44.6609 38.5991C45.2304 38.8604 45.7178 39.2722 46.0704 39.7902C46.4231 40.3081 46.6277 40.9124 46.6623 41.5381C46.6968 42.1637 46.5599 42.7869 46.2663 43.3405C45.9728 43.894 45.5337 44.357 44.9964 44.6794C44.4592 45.0018 43.8441 45.1715 43.2175 45.1701ZM45.4084 31.307H30.9787C30.6855 32.0519 30.1415 32.6711 29.4406 33.0577C28.7397 33.4444 27.9258 33.5743 27.1394 33.4251C26.3529 33.2759 25.6432 32.8568 25.1327 32.2403C24.6221 31.6238 24.3427 30.8484 24.3427 30.0479C24.3427 29.2474 24.6221 28.472 25.1327 27.8555C25.6432 27.239 26.3529 26.8199 27.1394 26.6707C27.9258 26.5215 28.7397 26.6514 29.4406 27.0381C30.1415 27.4248 30.6855 28.0439 30.9787 28.7888H45.4084C45.7423 28.7888 46.0626 28.9214 46.2987 29.1576C46.5349 29.3937 46.6675 29.714 46.6675 30.0479C46.6675 30.3818 46.5349 30.7021 46.2987 30.9382C46.0626 31.1744 45.7423 31.307 45.4084 31.307Z" fill="white"/>
<path d="M27.7785 29.1289C27.5967 29.1289 27.419 29.1828 27.2679 29.2838C27.1167 29.3848 26.9989 29.5284 26.9293 29.6963C26.8598 29.8643 26.8416 30.0491 26.877 30.2274C26.9125 30.4057 27 30.5695 27.1286 30.698C27.2571 30.8266 27.4209 30.9141 27.5992 30.9496C27.7775 30.985 27.9623 30.9668 28.1303 30.8973C28.2983 30.8277 28.4418 30.7099 28.5428 30.5587C28.6438 30.4076 28.6977 30.2299 28.6977 30.0481C28.6977 29.9274 28.674 29.8078 28.6278 29.6963C28.5816 29.5848 28.5139 29.4834 28.4285 29.3981C28.3432 29.3127 28.2418 29.245 28.1303 29.1988C28.0188 29.1527 27.8993 29.1289 27.7785 29.1289Z" fill="white"/>
<path d="M43.2232 40.8145C43.0419 40.8169 42.8654 40.873 42.7159 40.9755C42.5664 41.078 42.4505 41.2224 42.3828 41.3906C42.3152 41.5587 42.2988 41.7432 42.3356 41.9207C42.3725 42.0982 42.461 42.2608 42.5901 42.3881C42.7191 42.5154 42.883 42.6017 43.0609 42.6362C43.2389 42.6706 43.4231 42.6517 43.5904 42.5818C43.7576 42.5118 43.9004 42.394 44.0009 42.2431C44.1014 42.0922 44.155 41.9149 44.1549 41.7337C44.1543 41.6121 44.1296 41.4918 44.0824 41.3798C44.0352 41.2678 43.9663 41.1661 43.8798 41.0807C43.7932 40.9954 43.6907 40.9279 43.578 40.8822C43.4653 40.8365 43.3448 40.8135 43.2232 40.8145Z" fill="white"/>
<defs>
<linearGradient id="paint0_linear_2218_9770" x1="-5.16364" y1="-3.87273" x2="82.6182" y2="92.3" gradientUnits="userSpaceOnUse">
<stop stop-color="#8B4100"/>
<stop offset="1" stop-color="#FF841A"/>
</linearGradient>
</defs>
</svg>
