<svg width="71" height="71" viewBox="0 0 71 71" fill="none" xmlns="http://www.w3.org/2000/svg">
<path d="M0.44849 13.7612C0.648755 7.73383 0.748888 4.72013 2.69678 2.7668C4.64467 0.813476 7.65631 0.705006 13.6796 0.488066C20.539 0.24101 28.9175 0 35.5 0C42.0825 0 50.461 0.24101 57.3204 0.488066C63.3437 0.705006 66.3553 0.813476 68.3032 2.7668C70.2511 4.72013 70.3512 7.73383 70.5515 13.7612C70.7787 20.5988 71 28.9424 71 35.5C71 41.9802 70.7839 50.2044 70.5596 56.9959C70.3573 63.1198 70.2561 66.1818 68.2921 68.1386C66.3281 70.0954 63.2413 70.186 57.0678 70.3671L35.5 71L13.9322 70.3671C7.75869 70.186 4.67194 70.0954 2.7079 68.1386C0.743868 66.1818 0.642727 63.1198 0.440444 56.9959C0.216109 50.2044 0 41.9802 0 35.5C0 28.9424 0.221304 20.5988 0.44849 13.7612Z" fill="url(#paint0_linear_2218_9776)"/>
<path d="M54.4828 25.5211H39.6372L38.3387 24.2226L39.1084 23.4529C39.2476 23.3233 39.3592 23.1669 39.4366 22.9931C39.514 22.8193 39.5557 22.6318 39.559 22.4416C39.5624 22.2514 39.5274 22.0624 39.4561 21.886C39.3849 21.7096 39.2789 21.5494 39.1443 21.4149C39.0098 21.2804 38.8496 21.1743 38.6732 21.1031C38.4968 21.0319 38.3079 20.9969 38.1177 21.0002C37.9275 21.0036 37.7399 21.0452 37.5661 21.1226C37.3924 21.2001 37.236 21.3117 37.1063 21.4509L33.5602 24.997C33.2949 25.2626 33.1459 25.6226 33.1459 25.998C33.1459 26.3734 33.2949 26.7335 33.5602 26.9991C33.6918 27.1311 33.8481 27.2359 34.0203 27.3074C34.1925 27.3789 34.3771 27.4157 34.5636 27.4157C34.75 27.4157 34.9346 27.3789 35.1068 27.3074C35.279 27.2359 35.4354 27.1311 35.567 26.9991L36.3366 26.2294L37.6021 27.4902V32.2498C37.6021 32.7507 37.4031 33.2312 37.0489 33.5854C36.6947 33.9396 36.2143 34.1386 35.7133 34.1386H31.1992C32.3554 35.5296 33.1639 37.1757 33.558 38.941C33.9521 40.7063 33.9205 42.54 33.4657 44.2906H42.1209C42.1193 42.6393 42.5968 41.0231 43.4956 39.6378C44.3944 38.2526 45.6758 37.1579 47.1844 36.4865C48.6931 35.8152 50.3641 35.596 51.9949 35.8556C53.6256 36.1153 55.146 36.8425 56.3716 37.9491V27.4099C56.3716 26.909 56.1726 26.4285 55.8184 26.0743C55.4642 25.7201 54.9838 25.5211 54.4828 25.5211Z" fill="white"/>
<path d="M54.7079 40.2375C53.7365 39.262 52.446 38.6693 51.073 38.5682C49.7 38.4671 48.3365 38.8643 47.2327 39.687C46.1288 40.5097 45.3585 41.7028 45.063 43.0475C44.7676 44.3921 44.9667 45.7982 45.624 47.0079C46.2813 48.2176 47.3526 49.1498 48.6415 49.6336C49.9304 50.1174 51.3506 50.1203 52.6415 49.6419C53.9324 49.1635 55.0076 48.2357 55.6698 47.0287C56.3321 45.8218 56.5371 44.4165 56.2473 43.0707C56.0193 41.9972 55.4846 41.0129 54.7079 40.2375ZM52.1298 45.7338C51.7957 46.0669 51.3564 46.2739 50.8868 46.3195C50.4173 46.3651 49.9464 46.2466 49.5544 45.984C49.1624 45.7215 48.8736 45.3312 48.737 44.8796C48.6005 44.428 48.6247 43.943 48.8056 43.5073C48.9864 43.0715 49.3127 42.7119 49.7289 42.4897C50.1451 42.2675 50.6254 42.1965 51.0881 42.2887C51.5508 42.3808 51.9672 42.6305 52.2665 42.9952C52.5658 43.36 52.7294 43.8171 52.7294 44.2889C52.7305 44.5575 52.6781 44.8237 52.5751 45.0717C52.4721 45.3198 52.3207 45.5449 52.1298 45.7338Z" fill="white"/>
<path d="M26.9262 34.1404C25.0679 33.0258 22.8541 32.663 20.7373 33.1262C18.6204 33.5894 16.7605 34.8436 15.5376 36.6325C14.3147 38.4214 13.8212 40.6098 14.158 42.7503C14.4949 44.8909 15.6366 46.822 17.3498 48.1488C19.063 49.4757 21.2183 50.0981 23.3751 49.8888C25.5319 49.6795 27.5273 48.6543 28.9534 47.0228C30.3795 45.3913 31.1286 43.2767 31.0476 41.1113C30.9665 38.9459 30.0615 36.8932 28.5175 35.3728C28.0365 34.9019 27.5025 34.4883 26.9262 34.1404ZM25.9818 45.0008C25.0674 45.9208 23.8333 46.4526 22.5366 46.4856C21.2399 46.5186 19.9804 46.0502 19.0203 45.1779C18.0603 44.3056 17.4737 43.0967 17.3826 41.8027C17.2915 40.5088 17.703 39.2295 18.5315 38.2314C19.3599 37.2332 20.5413 36.593 21.8299 36.4441C23.1185 36.2951 24.4148 36.6489 25.4491 37.4318C26.4834 38.2146 27.1759 39.3662 27.3824 40.6468C27.5889 41.9274 27.2936 43.2383 26.5579 44.3067C26.3924 44.5492 26.2059 44.7767 26.0007 44.9866L25.9818 45.0008Z" fill="white"/>
<path d="M18.9526 30.5737C19.069 30.5984 19.1877 30.611 19.3067 30.6114H25.5821C25.7011 30.611 25.8198 30.5984 25.9363 30.5737C26.3664 30.4916 26.7547 30.2625 27.0346 29.9257C27.3146 29.5889 27.4688 29.1653 27.4709 28.7274V28.0333C27.4709 27.5324 27.2719 27.0519 26.9177 26.6977C26.5635 26.3435 26.083 26.1445 25.5821 26.1445H19.3067C18.8058 26.1445 18.3254 26.3435 17.9712 26.6977C17.617 27.0519 17.418 27.5324 17.418 28.0333V28.7274C17.4201 29.1653 17.5743 29.5889 17.8542 29.9257C18.1341 30.2625 18.5224 30.4916 18.9526 30.5737Z" fill="white"/>
<defs>
<linearGradient id="paint0_linear_2218_9776" x1="-5.16364" y1="-3.87273" x2="82.6182" y2="92.3" gradientUnits="userSpaceOnUse">
<stop stop-color="#8B4100"/>
<stop offset="1" stop-color="#FF841A"/>
</linearGradient>
</defs>
</svg>
