<svg width="12" height="16" viewBox="0 0 12 16" fill="none" xmlns="http://www.w3.org/2000/svg">
<path d="M6 8.75C5.375 8.75 4.84375 8.53125 4.40625 8.09375C3.96875 7.65625 3.75 7.125 3.75 6.5C3.75 5.875 3.96875 5.34375 4.40625 4.90625C4.84375 4.46875 5.375 4.25 6 4.25C6.625 4.25 7.15625 4.46875 7.59375 4.90625C8.03125 5.34375 8.25 5.875 8.25 6.5C8.25 7.125 8.03125 7.65625 7.59375 8.09375C7.15625 8.53125 6.625 8.75 6 8.75ZM6 14.75L2.49375 15.9125C2.24375 16 2.0155 15.9687 1.809 15.8187C1.6025 15.6687 1.4995 15.4688 1.5 15.2188V10.4562C1.025 9.93125 0.65625 9.33125 0.39375 8.65625C0.13125 7.98125 0 7.2625 0 6.5C0 4.825 0.58125 3.40625 1.74375 2.24375C2.90625 1.08125 4.325 0.5 6 0.5C7.675 0.5 9.09375 1.08125 10.2562 2.24375C11.4187 3.40625 12 4.825 12 6.5C12 7.2625 11.8688 7.98125 11.6063 8.65625C11.3438 9.33125 10.975 9.93125 10.5 10.4562V15.2188C10.5 15.4688 10.3967 15.6687 10.1903 15.8187C9.98375 15.9687 9.75575 16 9.50625 15.9125L6 14.75ZM6 11C7.25 11 8.3125 10.5625 9.1875 9.6875C10.0625 8.8125 10.5 7.75 10.5 6.5C10.5 5.25 10.0625 4.1875 9.1875 3.3125C8.3125 2.4375 7.25 2 6 2C4.75 2 3.6875 2.4375 2.8125 3.3125C1.9375 4.1875 1.5 5.25 1.5 6.5C1.5 7.75 1.9375 8.8125 2.8125 9.6875C3.6875 10.5625 4.75 11 6 11Z" fill="#AD2B2B"/>
</svg>
