<svg width="18" height="18" viewBox="0 0 18 18" fill="none" xmlns="http://www.w3.org/2000/svg">
<path d="M7.6875 7.125C7.6875 6.40013 8.27513 5.8125 9 5.8125C9.72487 5.8125 10.3125 6.40013 10.3125 7.125C10.3125 7.84987 9.72487 8.4375 9 8.4375C8.27513 8.4375 7.6875 7.84987 7.6875 7.125Z" fill="white"/>
<path fillRule="evenodd" clip-rule="evenodd" d="M3.75 7.125C3.75 4.22551 6.10051 1.875 9 1.875C11.8995 1.875 14.25 4.22551 14.25 7.125C14.25 8.15414 13.9539 9.11412 13.4422 9.92439L15.4871 13.4663C15.5976 13.6576 15.5859 13.8957 15.4572 14.0752C15.3286 14.2547 15.1069 14.3424 14.8903 14.2993L12.9282 13.9092L12.2851 15.8034C12.2141 16.0125 12.0273 16.1607 11.8075 16.1824C11.5878 16.204 11.3757 16.0951 11.2653 15.9038L9.22516 12.3703C9.1505 12.3734 9.07544 12.375 9 12.375C8.92457 12.375 8.84951 12.3734 8.77485 12.3703L6.73474 15.9038C6.62444 16.0949 6.41265 16.2038 6.19309 16.1824C5.97353 16.1611 5.78673 16.0133 5.71535 15.8046L5.0689 13.9142L3.1085 14.2995C2.89205 14.3421 2.6707 14.2542 2.54241 14.0747C2.41412 13.8953 2.40256 13.6574 2.51286 13.4663L4.55781 9.92439C4.04612 9.11413 3.75 8.15415 3.75 7.125ZM5.31444 10.8639C5.93863 11.4792 6.71616 11.9394 7.58452 12.182L6.37934 14.2694L5.97449 13.0855C5.88347 12.8193 5.60979 12.6613 5.33375 12.7156L4.10603 12.9569L5.31444 10.8639ZM10.4155 12.182L11.6189 14.2663L12.0215 13.0804C12.1123 12.8132 12.387 12.6545 12.6639 12.7096L13.8922 12.9538L12.6856 10.8639C12.0614 11.4792 11.2838 11.9394 10.4155 12.182ZM9 4.6875C7.65381 4.6875 6.5625 5.77881 6.5625 7.125C6.5625 8.47119 7.65381 9.5625 9 9.5625C10.3462 9.5625 11.4375 8.47119 11.4375 7.125C11.4375 5.77881 10.3462 4.6875 9 4.6875Z" fill="white"/>
</svg>
