<svg width="18" height="18" viewBox="0 0 18 18" fill="none" xmlns="http://www.w3.org/2000/svg">
<path fillRule="evenodd" clip-rule="evenodd" d="M3 6C3 4.13604 4.51104 2.625 6.375 2.625H13.875C14.4963 2.625 15 3.12868 15 3.75V15C15 15.4142 14.6642 15.75 14.25 15.75H5.625C4.30257 15.75 3.20854 14.7721 3.02658 13.5H3V6ZM13.875 11.625H5.625C4.79657 11.625 4.125 12.2966 4.125 13.125C4.125 13.9534 4.79657 14.625 5.625 14.625H13.875V11.625ZM6.1875 6C6.1875 5.68934 6.43934 5.4375 6.75 5.4375H12C12.3107 5.4375 12.5625 5.68934 12.5625 6C12.5625 6.31066 12.3107 6.5625 12 6.5625H6.75C6.43934 6.5625 6.1875 6.31066 6.1875 6ZM6.75 7.6875C6.43934 7.6875 6.1875 7.93934 6.1875 8.25C6.1875 8.56066 6.43934 8.8125 6.75 8.8125H10.5C10.8107 8.8125 11.0625 8.56066 11.0625 8.25C11.0625 7.93934 10.8107 7.6875 10.5 7.6875H6.75Z" fill="white"/>
</svg>
