<svg width="44" height="44" viewBox="0 0 44 44" fill="none" xmlns="http://www.w3.org/2000/svg">
<circle cx="22" cy="22" r="22" fill="#F0DBD8"/>
<g clipPath="url(#clip0_591_1815)">
<path fillRule="evenodd" clip-rule="evenodd" d="M25.8834 21.2595C26.0798 21.456 26.1902 21.7224 26.1902 22.0002C26.1902 22.278 26.0798 22.5444 25.8834 22.7409L19.957 28.6672C19.8604 28.7673 19.7448 28.8471 19.617 28.902C19.4892 28.9569 19.3517 28.9858 19.2126 28.987C19.0735 28.9882 18.9356 28.9617 18.8068 28.909C18.6781 28.8564 18.5611 28.7786 18.4627 28.6802C18.3644 28.5819 18.2866 28.4649 18.2339 28.3361C18.1812 28.2074 18.1547 28.0694 18.1559 27.9303C18.1571 27.7912 18.186 27.6538 18.2409 27.526C18.2958 27.3981 18.3757 27.2825 18.4757 27.1859L23.6614 22.0002L18.4757 16.8145C18.2849 16.6169 18.1793 16.3523 18.1817 16.0776C18.1841 15.8029 18.2942 15.5401 18.4885 15.3459C18.6827 15.1517 18.9455 15.0415 19.2201 15.0391C19.4948 15.0367 19.7595 15.1423 19.957 15.3331L25.8834 21.2595Z" fill="#D39890"/>
</g>
<defs>
<clipPath id="clip0_591_1815">
<rect width="25.1429" height="25.1429" fill="white" transform="translate(9.42847 9.42871)"/>
</clipPath>
</defs>
</svg>
