<svg width="18" height="18" viewBox="0 0 18 18" fill="none" xmlns="http://www.w3.org/2000/svg">
<path d="M10.3471 3.10197C9.61025 2.34101 8.38982 2.34101 7.65301 3.10197L4.05415 6.81877C3.84747 7.03223 3.70858 7.30209 3.65498 7.59435C3.21791 9.97782 3.18565 12.4179 3.55955 14.8121L3.69193 15.6598C3.73374 15.9275 3.96434 16.1249 4.23532 16.1249H6.75004C6.95715 16.1249 7.12504 15.957 7.12504 15.7499V10.4999H10.875V15.7499C10.875 15.957 11.0429 16.1249 11.25 16.1249H13.7647C14.0357 16.1249 14.2663 15.9275 14.3081 15.6598L14.4405 14.8121C14.8144 12.4179 14.7821 9.97782 14.3451 7.59434C14.2915 7.30209 14.1526 7.03223 13.9459 6.81877L10.3471 3.10197Z" fill="white"/>
</svg>
