<svg width="14" height="14" viewBox="0 0 14 14" fill="none" xmlns="http://www.w3.org/2000/svg">
<path fillRule="evenodd" clip-rule="evenodd" d="M0.4375 7C0.4375 3.37563 3.37563 0.4375 7 0.4375C10.6244 0.4375 13.5625 3.37563 13.5625 7C13.5625 10.6244 10.6244 13.5625 7 13.5625C3.37563 13.5625 0.4375 10.6244 0.4375 7ZM7 2.6875C7.31066 2.6875 7.5625 2.93934 7.5625 3.25V7C7.5625 7.31066 7.31066 7.5625 7 7.5625C6.68934 7.5625 6.4375 7.31066 6.4375 7V3.25C6.4375 2.93934 6.68934 2.6875 7 2.6875ZM5.5 4.06167C5.5 3.92461 5.35794 3.8347 5.23886 3.90255C4.16295 4.51561 3.4375 5.67309 3.4375 7C3.4375 8.96751 5.03249 10.5625 7 10.5625C8.96751 10.5625 10.5625 8.96751 10.5625 7C10.5625 5.67309 9.83706 4.51561 8.76114 3.90255C8.64206 3.8347 8.5 3.92461 8.5 4.06167V4.98714C8.5 5.04484 8.52686 5.09899 8.57096 5.1362C9.10089 5.58332 9.4375 6.25235 9.4375 7C9.4375 8.34619 8.34619 9.4375 7 9.4375C5.65381 9.4375 4.5625 8.34619 4.5625 7C4.5625 6.25235 4.89911 5.58332 5.42904 5.1362C5.47314 5.09899 5.5 5.04484 5.5 4.98714V4.06167Z" fill="white"/>
</svg>
