<svg width="180" height="19" viewBox="0 0 180 19" fill="none" xmlns="http://www.w3.org/2000/svg">
<path d="M113.258 7.59691V7.09048C113.258 4.88245 113.258 2.67442 113.258 0.46639C113.258 0.0865681 113.369 -0.0400391 113.764 -0.0400391C114.076 -0.0223024 114.389 -0.0223024 114.701 -0.0400391C114.959 -0.0400391 115.111 0.0359253 115.076 0.319525C115.071 0.381882 115.071 0.444548 115.076 0.506904V18.085C115.076 18.5915 115.076 18.5915 114.544 18.5915C114.245 18.5915 113.946 18.5915 113.648 18.5915C113.349 18.5915 113.318 18.5105 113.323 18.2724C113.323 17.685 113.323 17.0975 113.323 16.5101C113.323 16.4543 113.323 16.3936 113.323 16.2923C112.999 16.6417 112.721 16.9709 112.412 17.2596C111.619 17.9692 110.637 18.4336 109.586 18.5965C108.629 18.7819 107.643 18.7507 106.699 18.5054C105.783 18.3007 104.927 17.8883 104.195 17.3C103.464 16.7117 102.877 15.9632 102.481 15.1123C101.823 13.7411 101.621 12.1956 101.904 10.7013C102.344 8.16917 103.747 6.40174 106.213 5.59651C108.604 4.81155 111.521 5.29266 113.121 7.51081C113.101 7.56146 113.151 7.56652 113.258 7.59691ZM113.258 12.4991C113.258 10.6811 112.903 9.46057 112.002 8.47809C111.439 7.83765 110.711 7.36361 109.898 7.10738C109.084 6.85116 108.217 6.82255 107.388 7.02464C106.298 7.21064 105.318 7.80003 104.643 8.6756C103.839 9.73939 103.462 11.0651 103.585 12.3928C103.628 13.422 103.981 14.4141 104.598 15.2389C104.991 15.7716 105.498 16.2109 106.081 16.5251C106.664 16.8394 107.309 17.021 107.971 17.057C108.623 17.1298 109.283 17.0676 109.91 16.8742C110.537 16.6807 111.118 16.3603 111.616 15.9327C112.114 15.5051 112.518 14.9796 112.804 14.3889C113.09 13.7982 113.251 13.1549 113.278 12.4991H113.258Z" fill="white"/>
<path d="M6.89295 18.738C4.36081 18.738 2.45157 18.2316 0.755032 16.9807C-0.197054 16.2717 -0.186926 16.2565 0.441046 15.269L0.598039 15.0158C0.704389 14.8436 0.825932 14.8385 0.952539 14.9854C1.53639 15.621 2.25909 16.1132 3.06435 16.4237C4.49661 17.0172 6.05762 17.2317 7.59689 17.0466C8.39173 16.9866 9.16164 16.7421 9.84543 16.3325C11.4103 15.3551 11.5926 13.0103 10.0429 11.9975C9.40047 11.5925 8.69798 11.2917 7.96151 11.1062C6.62454 10.7314 5.27744 10.3769 3.94553 9.98695C3.076 9.75221 2.27766 9.30695 1.62103 8.69049C1.15624 8.23784 0.810435 7.67741 0.614306 7.05899C0.418177 6.44056 0.377797 5.78327 0.496753 5.14549C0.571156 4.46171 0.808713 3.80579 1.18943 3.23295C1.57015 2.66011 2.0829 2.18709 2.68453 1.8537C3.43884 1.38936 4.293 1.11158 5.17616 1.04342C5.80836 0.97015 6.44393 0.929581 7.08033 0.921875C8.8312 0.966187 10.536 1.49183 12.0079 2.44116C12.1902 2.55764 12.2712 2.68425 12.1497 2.90201C12.0281 3.11978 11.8661 3.4844 11.7344 3.77813C11.6027 4.07186 11.5217 4.09718 11.2837 3.93006C10.3821 3.28859 9.34035 2.87187 8.24512 2.71463C7.30498 2.61163 6.3574 2.59468 5.41418 2.66399C4.63658 2.71725 3.89252 3.00112 3.27705 3.47934C2.75907 3.89091 2.40224 4.47146 2.26893 5.11947C2.13563 5.76748 2.23433 6.44173 2.54779 7.02434C2.9305 7.60109 3.49865 8.02988 4.15823 8.23977C5.26731 8.60947 6.39665 8.90319 7.51586 9.25263C8.63507 9.60207 9.8353 9.82996 10.8634 10.4782C12.4535 11.491 13.1473 12.9141 12.808 14.7676C12.678 15.5198 12.3541 16.2251 11.8683 16.8139C11.3825 17.4027 10.7516 17.8547 10.0379 18.1253C9.04189 18.5404 7.97194 18.7489 6.89295 18.738Z" fill="white"/>
<path d="M59.2128 18.7996C57.0467 18.8248 54.9369 18.1102 53.2319 16.7738C52.609 16.2674 52.6141 16.2674 53.0091 15.5736C53.4041 14.8798 53.4396 14.8241 54.0979 15.3913C54.9721 16.1251 56.0172 16.6267 57.1365 16.8498C58.6203 17.2203 60.1761 17.1888 61.6437 16.7587C63.163 16.2826 64.1758 15.0672 63.7504 13.2947C63.6706 12.9646 63.5139 12.6581 63.2929 12.4002C63.072 12.1423 62.7932 11.9404 62.4793 11.8108C61.6272 11.4392 60.7507 11.1262 59.856 10.8739C58.4431 10.4587 56.9744 10.2004 55.6324 9.55723C55.0578 9.32348 54.5468 8.95705 54.141 8.4879C53.7352 8.01875 53.4463 7.46021 53.2977 6.85797C53.0593 5.93949 53.1192 4.96896 53.4688 4.08677C53.8184 3.20459 54.4395 2.45648 55.2424 1.95067C56.0787 1.4392 57.0178 1.11925 57.9923 1.01378C59.1715 0.843601 60.3713 0.881309 61.5373 1.12519C62.6756 1.34987 63.7581 1.79735 64.7228 2.44191C64.7795 2.4952 64.8231 2.56084 64.8504 2.63374C64.8776 2.70664 64.8877 2.78483 64.8798 2.86225C64.7496 3.20925 64.5974 3.54756 64.424 3.8751C64.3176 4.0878 64.1708 4.00171 64.0138 3.92068C63.3504 3.59657 62.692 3.23194 61.9881 2.9686C60.8422 2.56474 59.6165 2.43975 58.4127 2.60397C57.5399 2.66906 56.7029 2.97788 55.997 3.49528C55.5178 3.88127 55.1799 4.41506 55.0361 5.01332C54.8923 5.61158 54.9506 6.24063 55.2019 6.80226C55.3686 7.14682 55.6072 7.45166 55.9016 7.69626C56.1959 7.94086 56.5393 8.11954 56.9086 8.22026C58.1899 8.65073 59.5015 8.99003 60.803 9.36479C62.216 9.76993 63.6238 10.1751 64.6721 11.3196C65.0094 11.6958 65.2664 12.1369 65.4275 12.6158C65.5886 13.0947 65.6504 13.6014 65.609 14.105C65.5432 16.5004 63.8416 17.8424 62.064 18.3742C61.7685 18.4734 61.4653 18.5479 61.1575 18.597C60.5042 18.6831 59.856 18.7388 59.2128 18.7996Z" fill="white"/>
<path d="M71.3166 13.8002C71.6082 14.8591 72.2953 15.7655 73.2359 16.3324C74.3144 16.978 75.5837 17.2286 76.8265 17.0414C77.4364 16.9939 78.0305 16.8242 78.5734 16.5423C79.1164 16.2604 79.597 15.8721 79.9866 15.4006C80.1487 15.198 80.25 15.2436 80.3918 15.4006C80.5336 15.5575 80.7969 15.8766 81.0147 16.0994C81.0588 16.133 81.0945 16.1763 81.1191 16.2259C81.1437 16.2755 81.1565 16.3302 81.1565 16.3856C81.1565 16.441 81.1437 16.4956 81.1191 16.5452C81.0945 16.5949 81.0588 16.6381 81.0147 16.6717C80.3561 17.442 79.4999 18.0181 78.5383 18.3378C77.6508 18.6404 76.715 18.776 75.7782 18.7379C72.9068 18.6113 70.3341 17.1022 69.4884 14.0281C68.8098 11.5568 69.1744 9.1968 70.9823 7.23692C71.5628 6.61078 72.2687 6.11398 73.054 5.77891C73.8394 5.44384 74.6865 5.27801 75.5402 5.29223C76.4279 5.2592 77.3118 5.4238 78.128 5.77413C78.9443 6.12446 79.6725 6.65177 80.2601 7.31795C81.2706 8.45266 81.8574 9.90195 81.9212 11.42C81.9109 11.4973 81.8808 11.5705 81.8338 11.6327C81.7867 11.6948 81.7244 11.7437 81.6528 11.7745C80.6399 11.9822 79.6271 12.1493 78.6497 12.3468C77.3684 12.5949 76.0922 12.8532 74.816 13.1166C73.8031 13.3191 72.7599 13.5014 71.7319 13.6939C71.5916 13.722 71.453 13.7575 71.3166 13.8002ZM80.0424 10.5591C79.8955 8.72076 78.0166 6.50766 74.9122 6.94319C72.0256 7.36859 70.7494 9.98177 71.0229 12.3215L80.0424 10.5591Z" fill="white"/>
<path d="M96.5065 15.229L97.5194 16.3735C96.8374 17.3166 95.8695 18.0146 94.7593 18.3638C93.8331 18.6706 92.8565 18.7961 91.8828 18.7335C89.1633 18.541 86.7172 17.0926 85.8614 14.2668C85.5219 13.2793 85.4026 12.2295 85.512 11.191C85.6214 10.1525 85.9567 9.15057 86.4944 8.25545C86.8872 7.57756 87.4133 6.98622 88.0408 6.5171C88.6684 6.04797 89.3844 5.71076 90.1458 5.5258C91.0031 5.26916 91.9055 5.1992 92.7922 5.32063C93.6788 5.44205 94.5292 5.75205 95.286 6.22974C95.9544 6.64462 96.5337 7.18824 96.9901 7.82899C97.4466 8.46974 97.7711 9.19484 97.9448 9.96212C98.0562 10.428 98.1018 10.9142 98.1727 11.3953C98.2081 11.6232 98.1119 11.7296 97.8789 11.7751C96.4711 12.0283 95.0682 12.2816 93.6604 12.555C92.1411 12.8488 90.5863 13.1526 89.0519 13.4565L87.9175 13.6742C87.6896 13.7249 87.5275 13.7907 87.6541 14.1047C87.9245 14.8417 88.385 15.4941 88.9889 15.9958C89.5928 16.4974 90.3186 16.8304 91.0928 16.961C93.0577 17.3205 94.9011 17.0217 96.2786 15.3607C96.3115 15.3227 96.347 15.2872 96.385 15.2543L96.5065 15.229ZM96.3444 10.5546C96.247 9.8014 95.9434 9.08971 95.4671 8.49811C94.9908 7.90651 94.3603 7.458 93.6452 7.20208C92.8307 6.86332 91.9355 6.76817 91.068 6.92818C90.2005 7.08819 89.3981 7.49648 88.7581 8.10353C87.5528 9.20248 87.168 10.6357 87.2996 12.3221L96.3444 10.5546Z" fill="white"/>
<path d="M171.417 16.0391L171.959 14.8541L176.877 3.8747C177.256 3.0239 177.646 2.17816 178.011 1.34256C178.039 1.24881 178.1 1.16844 178.183 1.1163C178.266 1.06417 178.365 1.0438 178.462 1.05896C178.968 1.05896 179.434 1.05896 179.981 1.05896C179.814 1.45397 179.682 1.79328 179.535 2.12752C178.371 4.72044 177.206 7.31335 176.041 9.90627C174.822 12.6714 173.597 15.4466 172.364 18.232C172.316 18.354 172.231 18.4582 172.121 18.5306C172.012 18.603 171.883 18.6402 171.752 18.6371C170.875 18.7586 170.43 18.4548 170.08 17.5939C169.149 15.2947 168.08 13.036 167.067 10.7773C165.754 7.80628 164.422 4.83523 163.071 1.86418C162.965 1.61603 162.869 1.35775 162.742 1.04883C163.39 1.04883 163.973 1.04883 164.555 1.04883C164.631 1.04883 164.732 1.17037 164.773 1.26153C165.457 2.78081 166.135 4.3001 166.799 5.81939C167.555 7.50748 168.313 9.2074 169.073 10.9191C169.805 12.5667 170.543 14.2092 171.286 15.8467C171.326 15.8973 171.357 15.9328 171.417 16.0391Z" fill="white"/>
<path d="M125.088 18.6166C125.255 18.2216 125.382 17.8874 125.528 17.5683C126.707 15.0058 127.888 12.4466 129.073 9.89086C130.309 7.21691 131.575 4.56323 132.755 1.86396C132.836 1.58432 133.015 1.34362 133.26 1.18698C133.506 1.03035 133.8 0.968545 134.087 1.01316C134.29 0.99382 134.493 1.04395 134.663 1.15531C134.833 1.26667 134.961 1.43264 135.024 1.62594C136.508 4.89241 138.022 8.14874 139.521 11.4101L142.651 18.2317C142.7 18.3612 142.742 18.493 142.777 18.6268C142.165 18.6268 141.603 18.6268 141.045 18.6268C140.949 18.6268 140.818 18.4799 140.767 18.3735C139.541 15.6962 138.321 13.0155 137.105 10.3315L133.935 3.39338C133.778 3.70736 133.647 3.94032 133.535 4.18847C132.259 6.99071 130.984 9.79295 129.712 12.5952C128.851 14.496 127.996 16.3985 127.149 18.3026C127.112 18.4138 127.038 18.5089 126.94 18.5717C126.841 18.6345 126.723 18.6611 126.607 18.647C126.126 18.5964 125.64 18.6166 125.088 18.6166Z" fill="white"/>
<path d="M146.98 18.6168C146.98 18.4497 146.98 18.3535 146.98 18.2522C146.98 16.0948 146.98 13.9374 146.98 11.78C146.98 11.4711 147.067 11.3749 147.381 11.3749C149.589 11.3749 151.802 11.4255 154.01 11.3749C154.697 11.398 155.382 11.2791 156.022 11.0255C156.661 10.7719 157.242 10.3892 157.727 9.90117C158.315 9.23014 158.653 8.3769 158.684 7.48551C158.778 6.60103 158.61 5.7085 158.203 4.91791C157.954 4.44139 157.603 4.02579 157.175 3.70094C156.747 3.3761 156.252 3.15006 155.726 3.03906C154.867 2.84028 153.99 2.72663 153.108 2.69975C151.27 2.64911 149.432 2.69975 147.598 2.69975C147.401 2.69975 147.203 2.69975 146.986 2.66937V1.06399C147.112 1.06399 147.229 1.06399 147.35 1.06399C149.563 1.06399 151.771 1.03867 153.984 1.06399C155.421 1.05155 156.829 1.46 158.036 2.2389C158.618 2.61405 159.12 3.10226 159.51 3.67463C159.901 4.24701 160.173 4.89193 160.31 5.57121C160.673 7.01856 160.51 8.54805 159.849 9.88598C159.211 11.1216 158.123 12.0658 156.81 12.5245C155.653 12.9246 154.433 13.1116 153.21 13.0765C151.862 13.0765 150.51 13.0765 149.158 13.0765C148.834 13.0765 148.723 13.1626 148.728 13.5019C148.728 15.0718 148.728 16.6468 148.728 18.2167C148.728 18.5662 148.621 18.6725 148.282 18.6523C147.877 18.5966 147.436 18.6168 146.98 18.6168Z" fill="white"/>
<path d="M37.6677 18.6117C37.1106 18.6117 36.6042 18.6117 36.0927 18.6117C36.0319 18.6117 35.9509 18.5003 35.9255 18.4243C35.9102 18.3253 35.9102 18.2245 35.9255 18.1255V5.87501C35.9255 5.36859 35.9255 5.36859 36.432 5.36859C36.6953 5.36859 36.9384 5.36859 37.222 5.36859C37.5056 5.36859 37.6778 5.47494 37.6626 5.80411C37.6626 6.31054 37.6626 6.84229 37.6626 7.40443C38.0222 7.06006 38.3058 6.73594 38.64 6.4726C39.8613 5.58096 41.3696 5.17323 42.8738 5.32807C44.1431 5.34357 45.3621 5.82684 46.2972 6.6853C46.747 7.09274 47.1101 7.58654 47.3651 8.13728C47.62 8.68802 47.7615 9.28443 47.781 9.891C47.8722 12.6814 47.8469 15.4617 47.8722 18.2724C47.8722 18.5307 47.7962 18.6623 47.5076 18.6472C47.1704 18.6218 46.8319 18.6218 46.4947 18.6472C46.1655 18.6472 46.0643 18.5459 46.0643 18.2217C46.0643 15.8989 46.0643 13.5761 46.0643 11.2533C46.0652 10.7806 46.033 10.3085 45.968 9.84035C45.8794 9.15608 45.5748 8.51794 45.0984 8.01879C44.622 7.51964 43.9988 7.18555 43.3194 7.06512C42.6475 6.89937 41.9479 6.87913 41.2675 7.00578C40.5871 7.13242 39.9416 7.40302 39.3743 7.79944C38.9467 8.10401 38.5869 8.49393 38.3175 8.94457C38.0482 9.39522 37.8752 9.89681 37.8095 10.4177C37.7319 10.946 37.6896 11.479 37.6829 12.0129C37.6829 14.0386 37.6829 16.1099 37.6829 18.1559L37.6677 18.6117Z" fill="white"/>
<path d="M27.8532 16.5812C27.3767 17.2721 26.727 17.8257 25.9693 18.1866C24.7979 18.6986 23.5033 18.8604 22.242 18.6525C21.3307 18.542 20.4609 18.208 19.7098 17.6802C19.1723 17.3099 18.7265 16.8218 18.4061 16.2531C18.0858 15.6844 17.8995 15.0501 17.8613 14.3985C17.7246 11.5017 17.7246 8.61003 17.7246 5.68794C17.7246 5.44485 17.831 5.34863 18.0639 5.34863C18.388 5.34863 18.7121 5.34863 19.0363 5.34863C19.3604 5.34863 19.492 5.48537 19.492 5.85506C19.492 8.17451 19.492 10.499 19.492 12.8185C19.4401 13.7572 19.6506 14.6918 20.0998 15.5177C20.3588 15.9361 20.7095 16.2902 21.1253 16.5534C21.5411 16.8166 22.0112 16.9819 22.5002 17.037C23.3458 17.1859 24.2148 17.1268 25.0324 16.8648C25.6675 16.6581 26.2364 16.2867 26.6812 15.7886C27.126 15.2904 27.4308 14.6832 27.5645 14.0288C27.7125 13.374 27.7872 12.7048 27.7873 12.0335C27.8127 9.97739 27.7873 7.91623 27.7873 5.85506C27.7873 5.47524 27.9038 5.34863 28.2938 5.37395C28.5686 5.3942 28.8445 5.3942 29.1193 5.37395C29.4484 5.37395 29.5801 5.46005 29.575 5.81961C29.575 7.21735 29.575 8.6151 29.575 10.0128C29.575 12.7476 29.575 15.4772 29.575 18.2119C29.575 18.5563 29.4788 18.6829 29.1345 18.6525C28.848 18.6272 28.5599 18.6272 28.2735 18.6525C27.9393 18.6525 27.7975 18.5766 27.8228 18.217C27.8532 17.6903 27.8532 17.1889 27.8532 16.5812Z" fill="white"/>
</svg>
