<svg width="180" height="19" viewBox="0 0 180 19" fill="none" xmlns="http://www.w3.org/2000/svg">
<g clipPath="url(#clip0_2218_9824)">
<path d="M113.26 7.59593V7.0895C113.26 4.88147 113.26 2.67344 113.26 0.465413C113.26 0.0855916 113.371 -0.0410156 113.766 -0.0410156C114.078 -0.0232789 114.391 -0.0232789 114.703 -0.0410156C114.961 -0.0410156 115.113 0.0349487 115.078 0.318549C115.073 0.380905 115.073 0.443571 115.078 0.505928V18.0841C115.078 18.5905 115.078 18.5905 114.546 18.5905C114.247 18.5905 113.948 18.5905 113.65 18.5905C113.351 18.5905 113.32 18.5095 113.325 18.2715C113.325 17.684 113.325 17.0965 113.325 16.5091C113.325 16.4534 113.325 16.3926 113.325 16.2913C113.001 16.6408 112.723 16.9699 112.414 17.2586C111.621 17.9682 110.639 18.4326 109.588 18.5956C108.631 18.7809 107.645 18.7498 106.701 18.5044C105.785 18.2997 104.928 17.8873 104.197 17.299C103.466 16.7107 102.879 15.9622 102.483 15.1113C101.825 13.7401 101.623 12.1946 101.905 10.7003C102.346 8.1682 103.749 6.40076 106.215 5.59554C108.606 4.81057 111.523 5.29168 113.123 7.50984C113.103 7.56048 113.153 7.56555 113.26 7.59593ZM113.26 12.4982C113.26 10.6801 112.905 9.45959 112.004 8.47712C111.441 7.83668 110.713 7.36263 109.9 7.10641C109.086 6.85019 108.219 6.82157 107.39 7.02367C106.3 7.20966 105.32 7.79906 104.645 8.67462C103.841 9.73841 103.464 11.0641 103.587 12.3918C103.63 13.421 103.983 14.4131 104.6 15.2379C104.993 15.7707 105.5 16.2099 106.083 16.5242C106.666 16.8385 107.311 17.0201 107.972 17.056C108.625 17.1289 109.285 17.0666 109.912 16.8732C110.539 16.6798 111.12 16.3593 111.618 15.9317C112.116 15.5041 112.52 14.9786 112.806 14.3879C113.092 13.7972 113.253 13.1539 113.28 12.4982H113.26Z" fill="#FFF"/>
<path d="M6.89295 18.738C4.36081 18.738 2.45157 18.2316 0.755032 16.9807C-0.197054 16.2717 -0.186926 16.2565 0.441046 15.269L0.598039 15.0158C0.704389 14.8436 0.825932 14.8385 0.952539 14.9854C1.53639 15.621 2.25909 16.1132 3.06435 16.4237C4.49661 17.0172 6.05762 17.2317 7.59689 17.0466C8.39173 16.9866 9.16164 16.7421 9.84543 16.3325C11.4103 15.3551 11.5926 13.0103 10.0429 11.9975C9.40047 11.5925 8.69798 11.2917 7.96151 11.1062C6.62454 10.7314 5.27744 10.3769 3.94553 9.98695C3.076 9.75221 2.27766 9.30695 1.62103 8.69049C1.15624 8.23784 0.810435 7.67741 0.614306 7.05899C0.418177 6.44056 0.377797 5.78327 0.496753 5.14549C0.571156 4.46171 0.808713 3.80579 1.18943 3.23295C1.57015 2.66011 2.0829 2.18709 2.68453 1.8537C3.43884 1.38936 4.293 1.11158 5.17616 1.04342C5.80836 0.97015 6.44393 0.929581 7.08033 0.921875C8.8312 0.966187 10.536 1.49183 12.0079 2.44116C12.1902 2.55764 12.2712 2.68425 12.1497 2.90201C12.0281 3.11978 11.8661 3.4844 11.7344 3.77813C11.6027 4.07186 11.5217 4.09718 11.2837 3.93006C10.3821 3.28859 9.34035 2.87187 8.24512 2.71463C7.30498 2.61163 6.3574 2.59468 5.41418 2.66399C4.63658 2.71725 3.89252 3.00112 3.27705 3.47934C2.75907 3.89091 2.40224 4.47146 2.26893 5.11947C2.13563 5.76748 2.23433 6.44173 2.54779 7.02434C2.9305 7.60109 3.49865 8.02988 4.15823 8.23977C5.26731 8.60947 6.39665 8.90319 7.51586 9.25263C8.63507 9.60207 9.8353 9.82996 10.8634 10.4782C12.4535 11.491 13.1473 12.9141 12.808 14.7676C12.678 15.5198 12.3541 16.2251 11.8683 16.8139C11.3825 17.4027 10.7516 17.8547 10.0379 18.1253C9.04189 18.5404 7.97194 18.7489 6.89295 18.738Z" fill="#FFF"/>
<path d="M59.2128 18.7986C57.0467 18.8238 54.9369 18.1092 53.2319 16.7729C52.609 16.2664 52.6141 16.2664 53.0091 15.5726C53.4041 14.8788 53.4396 14.8231 54.0979 15.3903C54.9721 16.1241 56.0172 16.6257 57.1365 16.8488C58.6203 17.2193 60.1761 17.1879 61.6437 16.7577C63.163 16.2816 64.1758 15.0662 63.7504 13.2937C63.6706 12.9636 63.5139 12.6571 63.2929 12.3992C63.072 12.1413 62.7932 11.9394 62.4793 11.8099C61.6272 11.4383 60.7507 11.1252 59.856 10.873C58.4431 10.4577 56.9744 10.1994 55.6324 9.55626C55.0578 9.32251 54.5468 8.95607 54.141 8.48692C53.7352 8.01777 53.4463 7.45924 53.2977 6.85699C53.0593 5.93851 53.1192 4.96798 53.4688 4.0858C53.8184 3.20361 54.4395 2.45551 55.2424 1.9497C56.0787 1.43822 57.0178 1.11827 57.9923 1.0128C59.1715 0.842625 60.3713 0.880333 61.5373 1.12422C62.6756 1.34889 63.7581 1.79638 64.7228 2.44093C64.7795 2.49423 64.8231 2.55987 64.8504 2.63277C64.8776 2.70566 64.8877 2.78385 64.8798 2.86127C64.7496 3.20827 64.5974 3.54658 64.424 3.87413C64.3176 4.08683 64.1708 4.00073 64.0138 3.9197C63.3504 3.59559 62.692 3.23096 61.9881 2.96762C60.8422 2.56377 59.6165 2.43877 58.4127 2.60299C57.5399 2.66808 56.7029 2.97691 55.997 3.4943C55.5178 3.88029 55.1799 4.41408 55.0361 5.01234C54.8923 5.6106 54.9506 6.23966 55.2019 6.80128C55.3686 7.14584 55.6072 7.45068 55.9016 7.69528C56.1959 7.93988 56.5393 8.11856 56.9086 8.21929C58.1899 8.64975 59.5015 8.98906 60.803 9.36381C62.216 9.76896 63.6238 10.1741 64.6721 11.3186C65.0094 11.6949 65.2664 12.1359 65.4275 12.6148C65.5886 13.0937 65.6504 13.6004 65.609 14.104C65.5432 16.4994 63.8416 17.8414 62.064 18.3732C61.7685 18.4724 61.4653 18.5469 61.1575 18.596C60.5042 18.6821 59.856 18.7378 59.2128 18.7986Z" fill="#FFF"/>
<path d="M71.3146 13.7993C71.6062 14.8581 72.2933 15.7646 73.234 16.3314C74.3124 16.977 75.5817 17.2276 76.8246 17.0404C77.4345 16.993 78.0286 16.8233 78.5715 16.5414C79.1144 16.2595 79.595 15.8711 79.9847 15.3996C80.1467 15.197 80.248 15.2426 80.3898 15.3996C80.5316 15.5566 80.795 15.8756 81.0127 16.0984C81.0568 16.132 81.0926 16.1753 81.1172 16.2249C81.1418 16.2745 81.1546 16.3292 81.1546 16.3846C81.1546 16.44 81.1418 16.4946 81.1172 16.5443C81.0926 16.5939 81.0568 16.6372 81.0127 16.6707C80.3542 17.441 79.498 18.0171 78.5363 18.3369C77.6489 18.6394 76.7131 18.7751 75.7763 18.7369C72.9048 18.6103 70.3322 17.1012 69.4864 14.0272C68.8078 11.5558 69.1724 9.19582 70.9804 7.23594C71.5609 6.6098 72.2668 6.11301 73.0521 5.77793C73.8374 5.44286 74.6845 5.27703 75.5382 5.29126C76.4259 5.25822 77.3098 5.42282 78.1261 5.77315C78.9424 6.12348 79.6706 6.65079 80.2582 7.31697C81.2686 8.45169 81.8555 9.90098 81.9192 11.419C81.909 11.4963 81.8788 11.5696 81.8318 11.6317C81.7848 11.6938 81.7224 11.7427 81.6508 11.7735C80.638 11.9812 79.6251 12.1483 78.6477 12.3458C77.3665 12.594 76.0903 12.8522 74.814 13.1156C73.8012 13.3182 72.7579 13.5005 71.7299 13.6929C71.5897 13.721 71.4511 13.7565 71.3146 13.7993ZM80.0404 10.5581C79.8935 8.71978 78.0147 6.50669 74.9103 6.94222C72.0236 7.36762 70.7474 9.98079 71.0209 12.3205L80.0404 10.5581Z" fill="#FFF"/>
<path d="M96.5065 15.228L97.5194 16.3725C96.8374 17.3156 95.8695 18.0136 94.7593 18.3628C93.8331 18.6696 92.8565 18.7951 91.8828 18.7325C89.1633 18.54 86.7172 17.0917 85.8614 14.2658C85.5219 13.2783 85.4026 12.2285 85.512 11.19C85.6214 10.1515 85.9567 9.14959 86.4944 8.25448C86.8872 7.57658 87.4133 6.98525 88.0408 6.51612C88.6684 6.04699 89.3844 5.70979 90.1458 5.52483C91.0031 5.26819 91.9055 5.19822 92.7922 5.31965C93.6788 5.44107 94.5292 5.75107 95.286 6.22876C95.9544 6.64364 96.5337 7.18726 96.9901 7.82801C97.4466 8.46876 97.7711 9.19386 97.9448 9.96114C98.0562 10.4271 98.1018 10.9132 98.1727 11.3943C98.2081 11.6222 98.1119 11.7286 97.8789 11.7742C96.4711 12.0274 95.0682 12.2806 93.6604 12.5541C92.1411 12.8478 90.5863 13.1516 89.0519 13.4555L87.9175 13.6733C87.6896 13.7239 87.5275 13.7897 87.6541 14.1037C87.9245 14.8408 88.385 15.4932 88.9889 15.9948C89.5928 16.4964 90.3186 16.8294 91.0928 16.96C93.0577 17.3196 94.9011 17.0208 96.2786 15.3597C96.3115 15.3217 96.347 15.2862 96.385 15.2533L96.5065 15.228ZM96.3444 10.5537C96.247 9.80042 95.9434 9.08873 95.4671 8.49713C94.9908 7.90553 94.3603 7.45703 93.6452 7.20111C92.8307 6.86234 91.9355 6.7672 91.068 6.92721C90.2005 7.08722 89.3981 7.49551 88.7581 8.10255C87.5528 9.2015 87.168 10.6347 87.2996 12.3211L96.3444 10.5537Z" fill="#FFF"/>
<path d="M171.417 16.0372L171.959 14.8521L176.877 3.87275C177.256 3.02195 177.646 2.17621 178.011 1.3406C178.039 1.24686 178.1 1.16648 178.183 1.11435C178.266 1.06222 178.365 1.04184 178.462 1.057C178.968 1.057 179.434 1.057 179.981 1.057C179.814 1.45202 179.682 1.79133 179.535 2.12557C178.371 4.71848 177.206 7.3114 176.041 9.90431C174.822 12.6694 173.597 15.4446 172.364 18.23C172.316 18.352 172.231 18.4562 172.121 18.5287C172.012 18.6011 171.883 18.6383 171.752 18.6351C170.875 18.7567 170.43 18.4528 170.08 17.5919C169.149 15.2927 168.08 13.034 167.067 10.7754C165.754 7.80432 164.422 4.83327 163.071 1.86223C162.965 1.61408 162.869 1.3558 162.742 1.04688C163.39 1.04688 163.973 1.04688 164.555 1.04688C164.631 1.04688 164.732 1.16842 164.773 1.25958C165.457 2.77886 166.135 4.29815 166.799 5.81743C167.555 7.50553 168.313 9.20544 169.073 10.9172C169.805 12.5648 170.543 14.2073 171.286 15.8447C171.326 15.8954 171.357 15.9308 171.417 16.0372Z" fill="#FFF"/>
<path d="M125.09 18.6157C125.257 18.2206 125.384 17.8864 125.53 17.5673C126.709 15.0048 127.89 12.4457 129.075 9.88988C130.311 7.21594 131.577 4.56225 132.757 1.86298C132.838 1.58335 133.017 1.34264 133.262 1.18601C133.508 1.02937 133.802 0.967568 134.089 1.01218C134.292 0.992843 134.495 1.04297 134.665 1.15433C134.835 1.26569 134.963 1.43166 135.026 1.62496C136.51 4.89143 138.024 8.14777 139.523 11.4092L142.653 18.2308C142.702 18.3602 142.744 18.4921 142.779 18.6258C142.167 18.6258 141.604 18.6258 141.047 18.6258C140.951 18.6258 140.82 18.4789 140.769 18.3726C139.543 15.6952 138.323 13.0145 137.107 10.3305L133.937 3.3924C133.78 3.70639 133.648 3.93934 133.537 4.18749C132.261 6.98973 130.986 9.79197 129.714 12.5942C128.853 14.495 127.998 16.3975 127.151 18.3017C127.114 18.4128 127.04 18.5079 126.942 18.5707C126.843 18.6335 126.725 18.6601 126.609 18.646C126.128 18.5954 125.642 18.6157 125.09 18.6157Z" fill="#FFF"/>
<path d="M146.98 18.6149C146.98 18.4477 146.98 18.3515 146.98 18.2502C146.98 16.0928 146.98 13.9355 146.98 11.7781C146.98 11.4691 147.067 11.3729 147.381 11.3729C149.589 11.3729 151.802 11.4236 154.01 11.3729C154.697 11.396 155.382 11.2771 156.022 11.0235C156.661 10.77 157.242 10.3872 157.727 9.89922C158.315 9.22819 158.653 8.37495 158.684 7.48355C158.778 6.59908 158.61 5.70655 158.203 4.91596C157.954 4.43943 157.603 4.02383 157.175 3.69899C156.747 3.37415 156.252 3.14811 155.726 3.03711C154.867 2.83832 153.99 2.72467 153.108 2.6978C151.27 2.64716 149.432 2.6978 147.598 2.6978C147.401 2.6978 147.203 2.6978 146.986 2.66741V1.06204C147.112 1.06204 147.229 1.06204 147.35 1.06204C149.563 1.06204 151.771 1.03671 153.984 1.06204C155.421 1.0496 156.829 1.45804 158.036 2.23695C158.618 2.6121 159.12 3.1003 159.51 3.67268C159.901 4.24506 160.173 4.88997 160.31 5.56925C160.673 7.01661 160.51 8.5461 159.849 9.88403C159.211 11.1197 158.123 12.0638 156.81 12.5225C155.653 12.9226 154.433 13.1096 153.21 13.0745C151.862 13.0745 150.51 13.0745 149.158 13.0745C148.834 13.0745 148.723 13.1606 148.728 13.4999C148.728 15.0699 148.728 16.6449 148.728 18.2148C148.728 18.5642 148.621 18.6706 148.282 18.6503C147.877 18.5946 147.436 18.6149 146.98 18.6149Z" fill="#FFF"/>
<path d="M37.6677 18.6107C37.1106 18.6107 36.6042 18.6107 36.0927 18.6107C36.0319 18.6107 35.9509 18.4993 35.9255 18.4233C35.9102 18.3243 35.9102 18.2236 35.9255 18.1246V5.87404C35.9255 5.36761 35.9255 5.36761 36.432 5.36761C36.6953 5.36761 36.9384 5.36761 37.222 5.36761C37.5056 5.36761 37.6778 5.47396 37.6626 5.80314C37.6626 6.30957 37.6626 6.84132 37.6626 7.40345C38.0222 7.05908 38.3058 6.73497 38.64 6.47162C39.8613 5.57998 41.3696 5.17225 42.8738 5.32709C44.1431 5.3426 45.3621 5.82586 46.2972 6.68432C46.747 7.09176 47.1101 7.58556 47.3651 8.1363C47.62 8.68704 47.7615 9.28346 47.781 9.89002C47.8722 12.6804 47.8469 15.4607 47.8722 18.2714C47.8722 18.5297 47.7962 18.6614 47.5076 18.6462C47.1704 18.6208 46.8319 18.6208 46.4947 18.6462C46.1655 18.6462 46.0643 18.5449 46.0643 18.2208C46.0643 15.898 46.0643 13.5751 46.0643 11.2523C46.0652 10.7797 46.033 10.3075 45.968 9.83938C45.8794 9.1551 45.5748 8.51696 45.0984 8.01781C44.622 7.51867 43.9988 7.18457 43.3194 7.06415C42.6475 6.89839 41.9479 6.87816 41.2675 7.0048C40.5871 7.13145 39.9416 7.40205 39.3743 7.79847C38.9467 8.10304 38.5869 8.49295 38.3175 8.9436C38.0482 9.39424 37.8752 9.89583 37.8095 10.4167C37.7319 10.9451 37.6896 11.478 37.6829 12.012C37.6829 14.0377 37.6829 16.109 37.6829 18.1549L37.6677 18.6107Z" fill="#FFF"/>
<path d="M27.8551 16.5802C27.3786 17.2712 26.729 17.8248 25.9712 18.1856C24.7998 18.6976 23.5053 18.8594 22.2439 18.6515C21.3326 18.541 20.4628 18.207 19.7118 17.6792C19.1743 17.3089 18.7284 16.8208 18.4081 16.2521C18.0878 15.6834 17.9014 15.0491 17.8633 14.3975C17.7266 11.5008 17.7266 8.60906 17.7266 5.68696C17.7266 5.44388 17.8329 5.34766 18.0659 5.34766C18.39 5.34766 18.7141 5.34766 19.0382 5.34766C19.3623 5.34766 19.494 5.48439 19.494 5.85409C19.494 8.17353 19.494 10.498 19.494 12.8175C19.4421 13.7562 19.6525 14.6908 20.1017 15.5167C20.3608 15.9351 20.7114 16.2893 21.1272 16.5524C21.543 16.8156 22.0132 16.981 22.5022 17.036C23.3477 17.1849 24.2167 17.1258 25.0343 16.8638C25.6694 16.6571 26.2383 16.2858 26.6831 15.7876C27.128 15.2894 27.4327 14.6822 27.5665 14.0278C27.7144 13.373 27.7892 12.7038 27.7893 12.0325C27.8146 9.97642 27.7893 7.91525 27.7893 5.85409C27.7893 5.47426 27.9058 5.34766 28.2957 5.37298C28.5705 5.39323 28.8464 5.39323 29.1212 5.37298C29.4504 5.37298 29.5821 5.45907 29.577 5.81863C29.577 7.21638 29.577 8.61412 29.577 10.0119C29.577 12.7466 29.577 15.4762 29.577 18.2109C29.577 18.5553 29.4808 18.6819 29.1364 18.6515C28.85 18.6262 28.5619 18.6262 28.2755 18.6515C27.9412 18.6515 27.7994 18.5756 27.8248 18.216C27.8551 17.6893 27.8551 17.188 27.8551 16.5802Z" fill="#FFF"/>
</g>
<defs>
<clipPath id="clip0_2218_9824">
<rect width="180" height="18.7986" fill="white"/>
</clipPath>
</defs>
</svg>
