<svg width="12" height="16" viewBox="0 0 12 16" fill="none" xmlns="http://www.w3.org/2000/svg">
<path fillRule="evenodd" clip-rule="evenodd" d="M3.1875 2.75C3.1875 1.61091 4.11091 0.6875 5.25 0.6875H6.75C7.88909 0.6875 8.8125 1.61091 8.8125 2.75V4.25C8.8125 4.56066 8.56066 4.8125 8.25 4.8125H3.75C3.43934 4.8125 3.1875 4.56066 3.1875 4.25V2.75ZM5.25 1.8125C4.73223 1.8125 4.3125 2.23223 4.3125 2.75V3.6875H7.6875V2.75C7.6875 2.23223 7.26777 1.8125 6.75 1.8125H5.25Z" fill="white"/>
<path fillRule="evenodd" clip-rule="evenodd" d="M1.8652 2.69658C1.96001 2.65112 2.06529 2.72347 2.06509 2.82862L2.0625 4.25001C2.0625 5.18199 2.81802 5.93751 3.75 5.93751H8.25C9.18198 5.93751 9.9375 5.18199 9.9375 4.25001V2.8282C9.9375 2.72316 10.0427 2.651 10.1374 2.69641C11.0262 3.12252 11.625 4.03009 11.625 5.06409V12.9312C11.625 14.2142 10.6693 15.2964 9.39602 15.455C7.14072 15.7358 4.85928 15.7358 2.60398 15.455C1.33073 15.2964 0.375 14.2142 0.375 12.9312V5.06409C0.375 4.03023 0.976208 3.12276 1.8652 2.69658ZM8.25 8C8.56066 8 8.8125 8.25184 8.8125 8.5625C8.8125 8.87316 8.56066 9.125 8.25 9.125H3.75C3.43934 9.125 3.1875 8.87316 3.1875 8.5625C3.1875 8.25184 3.43934 8 3.75 8H8.25ZM7.5 10.25C7.81066 10.25 8.0625 10.5018 8.0625 10.8125C8.0625 11.1232 7.81066 11.375 7.5 11.375H3.75C3.43934 11.375 3.1875 11.1232 3.1875 10.8125C3.1875 10.5018 3.43934 10.25 3.75 10.25H7.5Z" fill="white"/>
</svg>
