<svg width="18" height="18" viewBox="0 0 18 18" fill="none" xmlns="http://www.w3.org/2000/svg">
<path fillRule="evenodd" clip-rule="evenodd" d="M10.6875 1.875C10.6875 1.77145 10.6036 1.6875 10.5 1.6875H5.25C4.11091 1.6875 3.1875 2.61091 3.1875 3.75V14.25C3.1875 15.3891 4.11091 16.3125 5.25 16.3125H12.75C13.8891 16.3125 14.8125 15.3891 14.8125 14.25V6.86029C14.8125 6.75674 14.7286 6.67279 14.625 6.67279H11.25C10.9393 6.67279 10.6875 6.42095 10.6875 6.11029V1.875ZM10.5236 10.0017C10.7662 10.1958 11.1202 10.1565 11.3143 9.91389C11.5083 9.67131 11.469 9.31733 11.2264 9.12326L9.35595 7.62689C9.25943 7.54794 9.13619 7.50043 9.00186 7.5L9.00004 7.5L8.9953 7.50002C8.86326 7.50111 8.74207 7.54769 8.64663 7.62486L6.77363 9.12326C6.53104 9.31733 6.49171 9.67131 6.68578 9.91389C6.87985 10.1565 7.23383 10.1958 7.47641 10.0017L8.43754 9.23283V11.8125C8.43754 12.1232 8.68938 12.375 9.00004 12.375C9.3107 12.375 9.56254 12.1232 9.56254 11.8125V9.23287L10.5236 10.0017Z" fill="white" fill-opacity="0.5"/>
<path d="M11.8125 2.1181C11.8125 1.97973 11.957 1.89187 12.0646 1.97879C12.1553 2.052 12.2368 2.13777 12.3064 2.23466L14.5663 5.38309C14.6177 5.45477 14.562 5.54779 14.4738 5.54779H12C11.8964 5.54779 11.8125 5.46385 11.8125 5.36029V2.1181Z" fill="white" fill-opacity="0.5"/>
</svg>
