

<svg width="12" height="15" viewBox="0 0 12 15" fill="none" xmlns="http://www.w3.org/2000/svg">
<path fillRule="evenodd" clip-rule="evenodd" d="M7.6875 0.595659C7.6875 0.494827 7.60355 0.413086 7.5 0.413086H2.25C1.11091 0.413086 0.1875 1.31224 0.1875 2.4214V12.6455C0.1875 13.7547 1.11091 14.6538 2.25 14.6538H9.75C10.8891 14.6538 11.8125 13.7547 11.8125 12.6455V5.44997C11.8125 5.34914 11.7286 5.2674 11.625 5.2674H8.25C7.93934 5.2674 7.6875 5.02217 7.6875 4.71967V0.595659ZM7.52363 8.50887C7.76621 8.69784 8.12019 8.65955 8.31426 8.42334C8.50833 8.18712 8.469 7.84245 8.22641 7.65348L6.35595 6.19643C6.25943 6.11955 6.13619 6.07328 6.00186 6.07287L6.00004 6.07287L5.9953 6.07289C5.86326 6.07395 5.74207 6.11931 5.64663 6.19445L3.77363 7.65348C3.53104 7.84245 3.49171 8.18712 3.68578 8.42334C3.87985 8.65955 4.23383 8.69784 4.47641 8.50887L5.43754 7.76017V10.2721C5.43754 10.5746 5.68938 10.8198 6.00004 10.8198C6.3107 10.8198 6.56254 10.5746 6.56254 10.2721V7.76021L7.52363 8.50887Z" fill="white"/>
<path d="M8.8125 0.832374C8.8125 0.697638 8.95698 0.612088 9.06465 0.696722C9.15533 0.768009 9.23685 0.851524 9.30639 0.945872L11.5663 4.01157C11.6177 4.08137 11.562 4.17195 11.4738 4.17195H9C8.89645 4.17195 8.8125 4.09021 8.8125 3.98938V0.832374Z" fill="white"/>
</svg>
