<svg width="366" height="319" viewBox="0 0 366 319" fill="none" xmlns="http://www.w3.org/2000/svg">
<path d="M13.6941 291.037C16.1412 291.897 18.7685 292.112 21.3231 291.662C23.8776 291.212 26.2732 290.112 28.2791 288.467C33.3875 284.18 34.9892 277.116 36.2924 270.575L40.147 251.229L32.077 256.785C26.2734 260.781 20.3392 264.905 16.3208 270.694C12.3025 276.482 10.5485 284.383 13.7771 290.646" fill="#D1D1D1" fill-opacity="0.5"/>
<path d="M14.3846 314.459C13.5678 308.51 12.7279 302.484 13.3009 296.471C13.8097 291.13 15.439 285.914 18.7561 281.637C20.5168 279.371 22.6593 277.43 25.0871 275.9C25.7202 275.5 26.3029 276.504 25.6726 276.901C21.4717 279.556 18.2224 283.477 16.3933 288.098C14.3731 293.236 14.0487 298.837 14.3968 304.296C14.6073 307.597 15.0535 310.876 15.5032 314.151C15.5386 314.299 15.5165 314.455 15.4413 314.588C15.3661 314.72 15.2434 314.819 15.0981 314.865C14.9498 314.905 14.7917 314.884 14.6582 314.809C14.5246 314.733 14.4263 314.607 14.3846 314.459Z" fill="#D1D1D1" fill-opacity="0.5"/>
<path d="M22.251 303.931C23.3005 305.526 24.7431 306.824 26.4399 307.7C28.1366 308.576 30.0303 309 31.9385 308.931C36.8425 308.698 40.9308 305.276 44.6111 302.026L55.4966 292.415L48.2922 292.07C43.1112 291.822 37.7966 291.591 32.8618 293.189C27.9271 294.787 23.3761 298.632 22.4737 303.74" fill="#D1D1D1" fill-opacity="0.5"/>
<path d="M12.0764 317.879C16.0077 310.923 20.5678 303.192 28.7159 300.721C30.9814 300.036 33.357 299.791 35.7147 299.998C36.4578 300.062 36.2722 301.208 35.5305 301.144C31.5785 300.816 27.6341 301.859 24.3614 304.099C21.2122 306.242 18.7602 309.222 16.6848 312.383C15.4135 314.319 14.2749 316.337 13.136 318.352C12.772 318.996 11.7081 318.531 12.0764 317.879Z" fill="#D1D1D1" fill-opacity="0.5"/>
<path d="M146.383 131.956C158.594 125.245 173.792 126.592 186.949 131.18C200.105 135.769 212.028 143.287 224.805 148.847C263.848 165.838 310.905 163.098 347.712 141.691C351.193 149.788 347.459 159.05 343.357 166.851C339.255 174.652 334.579 183.108 336.268 191.758C338.429 202.828 350.035 209.465 354.738 219.716C359.202 229.448 356.806 240.876 353.381 251.02C349.956 261.164 345.512 271.385 346.094 282.075C346.676 292.766 354.443 304.071 365.15 304.079C349.283 306.545 333.104 309.012 317.247 306.485C301.389 303.959 285.616 295.572 278.253 281.302C274.573 274.17 273.154 265.969 268.928 259.146C261.729 247.525 247.914 242.06 234.879 237.941C221.843 233.822 207.894 229.854 198.716 219.723C189.971 210.069 187.202 196.622 182.568 184.448C174.766 164.07 161.213 146.396 143.557 133.573" fill="#F0C50D"/>
<path d="M160.532 81.379C156.245 79.3849 150.982 78.7311 146.62 80.5841C142.258 82.4372 139.285 87.1869 140.695 91.3903C141.335 93.2961 142.791 95.1704 142.224 97.0952C141.787 98.5767 140.263 99.5549 138.767 100.25C137.271 100.946 135.634 101.531 134.552 102.704C133.47 103.877 133.244 105.896 134.596 106.806C135.042 107.105 135.598 107.247 136.03 107.563C136.398 107.862 136.664 108.269 136.79 108.726C136.916 109.183 136.896 109.668 136.733 110.113C136.373 111.01 135.779 111.792 135.011 112.379C133.477 113.702 131.449 115.217 131.925 117.095C132.102 117.598 132.397 118.05 132.786 118.413C133.175 118.777 133.646 119.041 134.158 119.184C135.223 119.491 136.328 119.637 137.436 119.617L182.716 121.043C184.211 121.155 185.714 121.071 187.187 120.793C187.903 120.663 188.584 120.386 189.188 119.98C189.792 119.574 190.306 119.048 190.698 118.435C191.565 116.83 190.996 114.853 189.925 113.354C188.854 111.855 187.339 110.673 186.086 109.297C184.834 107.92 183.81 106.203 184.03 104.424C184.207 103 185.146 101.769 185.82 100.476C186.494 99.182 186.886 97.5653 186.013 96.3752C184.783 94.698 181.829 94.8497 180.43 93.287C179.374 92.1076 179.578 90.4098 179.473 88.889C179.221 85.2308 176.688 81.7759 173.083 80.1716C171.249 79.3846 169.255 79.0449 167.265 79.1804C165.274 79.316 163.344 79.923 161.635 80.9513L160.532 81.379Z" fill="#2F2E41"/>
<path d="M131.918 310.995L124.826 308.864L129.67 280.496L140.137 283.641L131.918 310.995Z" fill="#A0616A"/>
<path d="M131.662 318.413L108.795 311.543L108.882 311.253C109.233 310.085 109.811 308.996 110.583 308.051C111.354 307.105 112.305 306.321 113.379 305.743C114.454 305.165 115.632 304.804 116.847 304.681C118.061 304.558 119.287 304.676 120.456 305.027L134.423 309.223L131.662 318.413Z" fill="#474F50"/>
<path d="M198.841 311.235L191.436 311.234L187.913 282.672L198.842 282.673L198.841 311.235Z" fill="#A0616A"/>
<path d="M200.729 318.413L176.853 318.412V318.11C176.853 316.889 177.093 315.681 177.56 314.553C178.027 313.426 178.712 312.401 179.575 311.538C180.438 310.675 181.462 309.991 182.59 309.524C183.717 309.057 184.926 308.816 186.146 308.816L200.73 308.817L200.729 318.413Z" fill="#474F50"/>
<path d="M188.561 289.632C187.915 289.632 187.29 289.401 186.799 288.982C186.307 288.563 185.981 287.982 185.879 287.344L174.884 218.756C174.811 218.302 174.592 217.884 174.26 217.565C173.928 217.247 173.501 217.045 173.044 216.991C172.587 216.937 172.125 217.034 171.728 217.267C171.331 217.499 171.021 217.855 170.844 218.28L142.358 286.856C142.093 287.489 141.599 287.999 140.974 288.284C140.35 288.569 139.641 288.608 138.989 288.393L128.7 284.963C128.059 284.751 127.521 284.308 127.189 283.721C126.858 283.133 126.758 282.443 126.908 281.785L150.252 178.487C150.367 177.989 150.618 177.534 150.978 177.172C151.338 176.81 151.792 176.556 152.289 176.438L183.596 169.171C183.981 169.084 184.38 169.08 184.766 169.16C185.153 169.24 185.517 169.402 185.836 169.636C206.451 184.614 204.709 233.553 200.867 286.691C200.819 287.356 200.528 287.981 200.05 288.445C199.572 288.91 198.94 289.183 198.273 289.212L188.681 289.63C188.641 289.631 188.601 289.632 188.561 289.632Z" fill="#474F50"/>
<path d="M162.207 120.692C170.4 120.692 177.042 114.05 177.042 105.857C177.042 97.6634 170.4 91.0215 162.207 91.0215C154.014 91.0215 147.372 97.6634 147.372 105.857C147.372 114.05 154.014 120.692 162.207 120.692Z" fill="#A0616A"/>
<path d="M162.847 182.746C159.286 182.723 155.775 181.911 152.565 180.369L152.455 180.318L152.411 180.204L139.105 145.729L138.852 139.739C138.767 137.736 139.103 135.738 139.837 133.872C140.571 132.007 141.688 130.316 143.116 128.908C144.544 127.5 146.25 126.407 148.126 125.699C150.002 124.991 152.005 124.683 154.006 124.796L168.133 125.592C171.782 125.799 175.215 127.39 177.732 130.039C180.25 132.689 181.664 136.198 181.685 139.853C182.052 140.558 184.657 146.069 179.551 151.248C179.36 152.427 177.574 164.685 184.314 171.426L184.504 171.615L184.338 171.826C184.231 171.962 175.574 182.744 162.847 182.746Z" fill="#AD2B2B"/>
<path d="M182.684 185.346C183.519 185.043 184.277 184.561 184.906 183.934C185.534 183.306 186.017 182.549 186.321 181.714C186.625 180.88 186.742 179.989 186.664 179.105C186.587 178.22 186.316 177.363 185.872 176.595L199.981 160.26L188.858 158.812L177.165 174.546C175.924 175.378 175.03 176.637 174.655 178.084C174.279 179.531 174.448 181.066 175.128 182.397C175.808 183.728 176.953 184.764 178.346 185.307C179.739 185.851 181.282 185.864 182.684 185.346Z" fill="#A0616A"/>
<path d="M191.506 172.739C190.976 172.739 190.457 172.583 190.015 172.292L183.037 167.715C182.45 167.332 182.034 166.737 181.877 166.054C181.719 165.371 181.832 164.654 182.192 164.052L187.243 155.565C187.517 155.106 187.69 154.594 187.751 154.063C187.813 153.532 187.761 152.995 187.6 152.485C187.439 151.976 187.172 151.506 186.817 151.107C186.461 150.708 186.025 150.389 185.538 150.17L171.025 143.664C169.24 142.853 167.783 141.461 166.893 139.714C166.003 137.968 165.732 135.971 166.125 134.051C166.396 132.756 166.963 131.541 167.78 130.5C168.598 129.46 169.644 128.622 170.838 128.052C172.032 127.482 173.342 127.195 174.665 127.214C175.988 127.232 177.289 127.556 178.466 128.159L200.484 139.441C201.969 140.203 203.272 141.276 204.304 142.587C205.336 143.899 206.073 145.418 206.463 147.041C206.853 148.663 206.888 150.351 206.566 151.989C206.243 153.626 205.57 155.175 204.594 156.528L193.709 171.61C193.458 171.96 193.127 172.244 192.744 172.441C192.361 172.637 191.936 172.739 191.506 172.739Z" fill="#AD2B2B"/>
<path d="M147.031 103.748C151.716 103.372 155.605 98.692 155.118 94.0173C155.063 95.9441 155.719 97.8239 156.959 99.299C158.2 100.774 159.94 101.742 161.848 102.018C163.997 102.255 166.353 101.604 168.223 102.689C170.295 103.889 170.958 106.805 173.116 107.842C175.201 108.844 177.85 107.478 178.88 105.406C179.911 103.335 179.658 100.846 178.975 98.6353C178.001 95.4828 176.228 92.636 173.828 90.3717C171.428 88.1074 168.483 86.5027 165.28 85.7138C162.076 84.9248 158.723 84.9784 155.546 85.8694C152.369 86.7604 149.476 88.4584 147.15 90.7982C145.18 92.7797 143.616 95.305 143.362 98.0875C143.109 100.87 144.4 103.889 146.898 105.139L147.031 103.748Z" fill="#2F2E41"/>
<path d="M112.518 62.6544C113.299 63.0758 113.979 63.6633 114.509 64.3758C115.039 65.0882 115.406 65.9082 115.585 66.778C115.764 67.6478 115.75 68.5461 115.544 69.4099C115.338 70.2736 114.945 71.0816 114.393 71.7771L125.965 89.9969L114.75 89.8047L105.481 72.5324C104.374 71.5275 103.674 70.1515 103.514 68.6652C103.354 67.1788 103.744 65.6853 104.612 64.4678C105.479 63.2502 106.763 62.3931 108.22 62.0589C109.677 61.7247 111.206 61.9366 112.518 62.6544Z" fill="#A0616A"/>
<path d="M121.845 75.6288L136.748 110.843L152.373 137.338C153.032 138.456 153.429 139.71 153.533 141.004C153.637 142.298 153.446 143.599 152.973 144.809C152.501 146.018 151.76 147.105 150.806 147.986C149.853 148.867 148.711 149.52 147.468 149.895C145.497 150.48 143.381 150.341 141.504 149.502C139.626 148.664 138.11 147.182 137.23 145.323L107.116 80.977C106.952 80.6274 106.865 80.247 106.86 79.861C106.854 79.4751 106.932 79.0925 107.086 78.7387C107.24 78.3849 107.468 78.0681 107.754 77.8092C108.04 77.5503 108.379 77.3553 108.746 77.2373L118.51 74.1006C118.695 74.0411 118.886 74.0012 119.08 73.9815C119.656 73.9232 120.236 74.0519 120.734 74.3485C121.232 74.6451 121.622 75.094 121.845 75.6288Z" fill="#AD2B2B"/>
<path d="M261.654 319H0.345646C0.253975 319 0.166059 318.947 0.101237 318.854C0.036416 318.76 0 318.633 0 318.5C0 318.367 0.036416 318.24 0.101237 318.146C0.166059 318.053 0.253975 318 0.345646 318H261.654C261.746 318 261.834 318.053 261.899 318.146C261.964 318.24 262 318.367 262 318.5C262 318.633 261.964 318.76 261.899 318.854C261.834 318.947 261.746 319 261.654 319Z" fill="#474F50" fill-opacity="0.5"/>
<path d="M165.425 0.604007V50.1326C165.425 50.2928 165.361 50.4464 165.248 50.5597C165.135 50.673 164.981 50.7366 164.821 50.7366C164.661 50.7366 164.507 50.673 164.394 50.5597C164.28 50.4464 164.217 50.2928 164.217 50.1326V0.604007C164.217 0.443814 164.28 0.290192 164.394 0.176918C164.507 0.063645 164.661 0 164.821 0C164.981 0 165.135 0.063645 165.248 0.176918C165.361 0.290192 165.425 0.443814 165.425 0.604007Z" fill="#474F50"/>
<path d="M217.868 42.6219L200.784 59.7058C200.671 59.8186 200.517 59.8819 200.357 59.8818C200.197 59.8816 200.044 59.8179 199.931 59.7048C199.818 59.5917 199.754 59.4384 199.754 59.2784C199.754 59.1185 199.817 58.965 199.93 58.8516L217.014 41.7677C217.07 41.7114 217.136 41.6667 217.21 41.6362C217.283 41.6057 217.362 41.5899 217.441 41.5898C217.521 41.5898 217.599 41.6053 217.673 41.6357C217.746 41.666 217.813 41.7106 217.869 41.7667C217.925 41.8229 217.97 41.8896 218 41.963C218.03 42.0364 218.046 42.1151 218.046 42.1945C218.046 42.274 218.03 42.3526 217.999 42.4259C217.969 42.4993 217.924 42.5659 217.868 42.6219Z" fill="#474F50"/>
<path d="M111.774 42.6219L128.857 59.7058C128.971 59.8191 129.124 59.8827 129.285 59.8827C129.445 59.8827 129.598 59.8191 129.712 59.7058C129.825 59.5925 129.889 59.4389 129.889 59.2787C129.889 59.1185 129.825 58.9649 129.712 58.8516L112.628 41.7677C112.572 41.7114 112.505 41.6667 112.432 41.6362C112.358 41.6057 112.28 41.5899 112.2 41.5898C112.121 41.5898 112.042 41.6053 111.969 41.6357C111.895 41.666 111.829 41.7106 111.773 41.7667C111.716 41.8229 111.672 41.8896 111.642 41.963C111.611 42.0364 111.596 42.1151 111.596 42.1945C111.596 42.274 111.612 42.3526 111.642 42.4259C111.673 42.4993 111.717 42.5659 111.774 42.6219Z" fill="#474F50"/>
</svg>
