<svg width="16" height="14" viewBox="0 0 16 14" fill="none" xmlns="http://www.w3.org/2000/svg">
<path d="M5.44444 0L4.02111 1.55556H1.55556C0.7 1.55556 0 2.25556 0 3.11111V12.4444C0 13.3 0.7 14 1.55556 14H14C14.8556 14 15.5556 13.3 15.5556 12.4444V3.11111C15.5556 2.25556 14.8556 1.55556 14 1.55556H11.5344L10.1111 0H5.44444ZM7.77778 11.6667C5.63111 11.6667 3.88889 9.92444 3.88889 7.77778C3.88889 5.63111 5.63111 3.88889 7.77778 3.88889C9.92444 3.88889 11.6667 5.63111 11.6667 7.77778C11.6667 9.92444 9.92444 11.6667 7.77778 11.6667Z" fill="white"/>
</svg>
