<svg width="26" height="26" viewBox="0 0 26 26" fill="none" xmlns="http://www.w3.org/2000/svg">
<path d="M6.77083 8.125C6.77083 7.5915 6.87591 7.06323 7.08007 6.57035C7.28423 6.07746 7.58347 5.62962 7.96071 5.25238C8.33795 4.87514 8.7858 4.5759 9.27868 4.37174C9.77157 4.16758 10.2998 4.0625 10.8333 4.0625C11.3668 4.0625 11.8951 4.16758 12.388 4.37174C12.8809 4.5759 13.3287 4.87514 13.706 5.25238C14.0832 5.62962 14.3824 6.07746 14.5866 6.57035C14.7908 7.06323 14.8958 7.5915 14.8958 8.125C14.8958 9.20244 14.4678 10.2358 13.706 10.9976C12.9441 11.7595 11.9108 12.1875 10.8333 12.1875C9.75589 12.1875 8.72258 11.7595 7.96071 10.9976C7.19885 10.2358 6.77083 9.20244 6.77083 8.125ZM2.4375 18.4167C2.4375 17.3392 2.86551 16.3059 3.62738 15.544C4.38925 14.7822 5.42256 14.3542 6.5 14.3542H6.86833C7.06875 14.3542 7.26808 14.3867 7.45767 14.4473L8.39583 14.7539C9.43139 15.0922 10.526 15.2113 11.6101 15.1038C11.6505 15.1004 11.6911 15.1074 11.728 15.1241C11.765 15.1408 11.7971 15.1666 11.8213 15.1992C11.8454 15.2317 11.8609 15.2699 11.8662 15.31C11.8716 15.3502 11.8666 15.3911 11.8517 15.4288C11.536 16.2057 11.3742 17.0365 11.375 17.875C11.375 19.2313 11.791 20.4912 12.5017 21.5334C12.6003 21.6786 12.5049 21.8833 12.3283 21.8887C9.48632 21.9868 6.64154 21.8053 3.835 21.3471C3.44492 21.2836 3.09014 21.0834 2.83412 20.7823C2.57809 20.4812 2.43751 20.0989 2.4375 19.7037V18.4167Z" fill="#53988E"/>
<path fill-rule="evenodd" clip-rule="evenodd" d="M13 17.875C13 18.928 13.3337 19.903 13.9013 20.6993C14.3507 21.3346 14.9463 21.8526 15.6379 22.2095C16.3295 22.5664 17.0968 22.7518 17.875 22.75C18.8392 22.75 19.7817 22.4641 20.5834 21.9284C21.3851 21.3927 22.0099 20.6314 22.3789 19.7406C22.7479 18.8498 22.8444 17.8696 22.6563 16.9239C22.4682 15.9783 22.0039 15.1096 21.3221 14.4279C20.6404 13.7461 19.7717 13.2818 18.8261 13.0937C17.8804 12.9056 16.9002 13.0021 16.0094 13.3711C15.1186 13.7401 14.3573 14.3649 13.8216 15.1666C13.2859 15.9683 13 16.9108 13 17.875ZM17.875 21.125C17.2943 21.1261 16.724 20.9708 16.224 20.6754L20.6754 16.224C20.9666 16.7177 21.122 17.2796 21.1259 17.8527C21.1299 18.4258 20.9822 18.9898 20.6978 19.4874C20.4135 19.985 20.0026 20.3986 19.5069 20.6862C19.0111 20.9738 18.4481 21.1252 17.875 21.125ZM15.0746 19.526L19.526 15.0746C18.9052 14.7077 18.1801 14.5577 17.4647 14.6482C16.7493 14.7387 16.0843 15.0646 15.5744 15.5744C15.0646 16.0843 14.7387 16.7493 14.6482 17.4647C14.5577 18.1801 14.7077 18.9052 15.0746 19.526Z" fill="#53988E"/>
</svg>
