<svg width="24" height="24" viewBox="0 0 24 24" fill="none" xmlns="http://www.w3.org/2000/svg">
<path d="M23.2047 11.745C22.348 9.50312 20.8541 7.56085 18.9072 6.1575L22.4997 2.5575L21.4422 1.5L1.49968 21.4425L2.55718 22.5L6.38218 18.6825C8.08976 19.6769 10.0239 20.2166 11.9997 20.25C14.4443 20.1581 16.8084 19.3518 18.7998 17.9309C20.7912 16.51 22.3226 14.5368 23.2047 12.255C23.2643 12.0902 23.2643 11.9098 23.2047 11.745ZM11.9997 16.875C10.9659 16.8745 9.95934 16.5434 9.12718 15.93L10.4997 14.5725C11.0688 14.8843 11.7236 15.0032 12.366 14.9113C13.0084 14.8194 13.6037 14.5217 14.0625 14.0629C14.5214 13.604 14.8191 13.0087 14.911 12.3663C15.0029 11.724 14.884 11.0691 14.5722 10.5L15.9297 9.1425C16.458 9.8682 16.7754 10.7259 16.8468 11.6207C16.9181 12.5155 16.7406 13.4126 16.3339 14.2129C15.9272 15.0131 15.3071 15.6853 14.5422 16.1551C13.7773 16.6249 12.8973 16.8741 11.9997 16.875ZM3.39718 16.3575L7.14718 12.6075C7.12795 12.4056 7.12044 12.2028 7.12468 12C7.12667 10.7077 7.64092 9.46886 8.55473 8.55505C9.46854 7.64123 10.7074 7.12698 11.9997 7.125C12.1977 7.12631 12.3955 7.13883 12.5922 7.1625L15.4272 4.335C14.3238 3.95616 13.1663 3.7586 11.9997 3.75C9.55507 3.84193 7.19097 4.64817 5.19958 6.06906C3.20819 7.48996 1.6768 9.46324 0.794681 11.745C0.735106 11.9098 0.735106 12.0902 0.794681 12.255C1.37147 13.7866 2.25736 15.1831 3.39718 16.3575Z" fill="#AD2B2B"/>
</svg>