<svg width="18" height="18" viewBox="0 0 18 18" fill="none" xmlns="http://www.w3.org/2000/svg">
<g clipPath="url(#clip0_5429_285)">
<path d="M9.45542 13.2544C9.36174 13.1526 9.31268 13.0337 9.30825 12.8979C9.30416 12.7621 9.35322 12.6433 9.45542 12.5415L10.9246 11.0772H5.72489C5.58011 11.0772 5.45865 11.0283 5.36054 10.9305C5.26275 10.8331 5.21387 10.7122 5.21387 10.5679V5.47511C5.21387 5.33081 5.26275 5.20976 5.36054 5.11198C5.45865 5.01454 5.58011 4.96582 5.72489 4.96582C5.86969 4.96582 5.99114 5.01454 6.08926 5.11198C6.18703 5.20976 6.23593 5.33081 6.23593 5.47511V10.0587H10.9246L9.44265 8.58173C9.34896 8.48837 9.30007 8.37157 9.29598 8.23134C9.29155 8.09146 9.34044 7.97059 9.44265 7.86874C9.54485 7.76688 9.66631 7.718 9.80701 7.72207C9.94737 7.72647 10.0687 7.77537 10.1709 7.86874L12.5216 10.2114C12.5728 10.2624 12.609 10.3175 12.6305 10.377C12.6516 10.4364 12.6621 10.5 12.6621 10.5679C12.6621 10.6358 12.6516 10.6995 12.6305 10.7589C12.609 10.8183 12.5728 10.8735 12.5216 10.9244L10.1709 13.2672C10.0772 13.3605 9.96016 13.4072 9.81979 13.4072C9.67908 13.4072 9.55763 13.3563 9.45542 13.2544Z" fill="white"/>
<path d="M10.903 0.152785C10.9967 0.254643 11.0458 0.373475 11.0502 0.509283C11.0543 0.645093 11.0052 0.763926 10.903 0.865783L9.4338 2.32997H14.6335C14.7784 2.32997 14.8998 2.37887 14.998 2.47665C15.0957 2.57409 15.1446 2.69496 15.1446 2.83926V7.93209C15.1446 8.07639 15.0957 8.19744 14.998 8.29522C14.8998 8.39266 14.7784 8.44138 14.6335 8.44138C14.4887 8.44138 14.3673 8.39266 14.2691 8.29522C14.1714 8.19744 14.1225 8.07639 14.1225 7.93209V3.34855H9.4338L10.9158 4.82547C11.0095 4.91883 11.0584 5.03563 11.0625 5.17586C11.0669 5.31574 11.018 5.43661 10.9158 5.53846C10.8136 5.64032 10.6921 5.6892 10.5514 5.68513C10.4111 5.68073 10.2898 5.63183 10.1876 5.53846L7.83683 3.19576C7.78572 3.14482 7.74943 3.08966 7.72797 3.03024C7.70685 2.97082 7.69629 2.90716 7.69629 2.83926C7.69629 2.77135 7.70685 2.7077 7.72797 2.64827C7.74943 2.58886 7.78572 2.53369 7.83683 2.48276L10.1876 0.140054C10.2813 0.0466852 10.3983 0 10.5386 0C10.6793 0 10.8008 0.050929 10.903 0.152785Z" fill="white"/>
<path d="M2.73103 0.124023H0V13.0344H2.73103V0.124023Z" fill="white"/>
<path d="M4.2207 15.269V18H17.131V15.269H4.2207Z" fill="white"/>
</g>
<defs>
<clipPath id="clip0_5429_285">
<rect width="17.131" height="18" fill="white"/>
</clipPath>
</defs>
</svg>