<svg width="26" height="26" viewBox="0 0 26 26" fill="none" xmlns="http://www.w3.org/2000/svg">
<path d="M6.77083 8.125C6.77083 7.5915 6.87591 7.06323 7.08007 6.57035C7.28423 6.07746 7.58347 5.62962 7.96071 5.25238C8.33795 4.87514 8.7858 4.5759 9.27868 4.37174C9.77157 4.16758 10.2998 4.0625 10.8333 4.0625C11.3668 4.0625 11.8951 4.16758 12.388 4.37174C12.8809 4.5759 13.3287 4.87514 13.706 5.25238C14.0832 5.62962 14.3824 6.07746 14.5866 6.57035C14.7908 7.06323 14.8958 7.5915 14.8958 8.125C14.8958 9.20244 14.4678 10.2358 13.706 10.9976C12.9441 11.7595 11.9108 12.1875 10.8333 12.1875C9.75589 12.1875 8.72258 11.7595 7.96071 10.9976C7.19885 10.2358 6.77083 9.20244 6.77083 8.125ZM2.4375 18.4167C2.4375 17.3392 2.86551 16.3059 3.62738 15.544C4.38925 14.7822 5.42256 14.3542 6.5 14.3542H6.86833C7.06875 14.3542 7.26808 14.3867 7.45767 14.4473L8.39583 14.7539C9.43139 15.0922 10.526 15.2113 11.6101 15.1038C11.6505 15.1004 11.6911 15.1074 11.728 15.1241C11.765 15.1408 11.7971 15.1666 11.8213 15.1992C11.8454 15.2317 11.8609 15.2699 11.8662 15.31C11.8716 15.3502 11.8666 15.3911 11.8517 15.4288C11.536 16.2057 11.3742 17.0365 11.375 17.875C11.375 19.2313 11.791 20.4912 12.5017 21.5334C12.6003 21.6786 12.5049 21.8833 12.3283 21.8887C9.48632 21.9868 6.64154 21.8053 3.835 21.3471C3.44492 21.2836 3.09014 21.0834 2.83412 20.7823C2.57809 20.4812 2.43751 20.0989 2.4375 19.7037V18.4167Z" fill="#53988E"/>
<circle cx="17.875" cy="17.875" r="4.875" fill="#53988E"/>
<g clipPath="url(#clip0_3852_4145)">
<path d="M16.2754 18.1035L17.3418 19.1699L19.4746 16.8848" stroke="white" strokeWidth="1.5" strokeLinecap="round" strokeLinejoin="round"/>
</g>
<defs>
<clipPath id="clip0_3852_4145">
<rect width="4.875" height="4.875" fill="white" transform="translate(15.4375 15.4375)"/>
</clipPath>
</defs>
</svg>
