<svg width="463" height="344" viewBox="0 0 463 344" fill="none" xmlns="http://www.w3.org/2000/svg">
<path d="M29.5 182.5L213 226.5L208.5 294L1.5 238.5L29.5 182.5Z" fill="#CF9177"/>
<path d="M213 226.5L444 23L462 51L208.5 293.5L213 226.5Z" fill="#CF9177"/>
<path d="M30 182L300 1L443.5 23L213 226.5L30 182Z" fill="#E6CEC4"/>
<path d="M171.723 89.5836C171.493 89.7365 171.431 90.0469 171.584 90.2768L174.075 94.0241C174.228 94.2541 174.538 94.3165 174.768 94.1637C174.998 94.0108 175.061 93.7004 174.908 93.4705L172.693 90.1395L176.024 87.9248C176.254 87.7719 176.317 87.4616 176.164 87.2316C176.011 87.0017 175.7 86.9392 175.47 87.0921L171.723 89.5836ZM328.777 121.916C329.007 121.763 329.069 121.453 328.916 121.223L326.425 117.476C326.272 117.246 325.962 117.183 325.732 117.336C325.502 117.489 325.439 117.8 325.592 118.03L327.807 121.36L324.476 123.575C324.246 123.728 324.183 124.038 324.336 124.268C324.489 124.498 324.8 124.561 325.03 124.408L328.777 121.916ZM171.901 90.4902L328.401 121.99L328.599 121.01L172.099 89.5098L171.901 90.4902Z" fill="#883D1F"/>
<path d="M332.354 123.646C332.158 123.451 331.842 123.451 331.646 123.646L328.464 126.828C328.269 127.024 328.269 127.34 328.464 127.536C328.66 127.731 328.976 127.731 329.172 127.536L332 124.707L334.828 127.536C335.024 127.731 335.34 127.731 335.536 127.536C335.731 127.34 335.731 127.024 335.536 126.828L332.354 123.646ZM331.646 173.354C331.842 173.549 332.158 173.549 332.354 173.354L335.536 170.172C335.731 169.976 335.731 169.66 335.536 169.464C335.34 169.269 335.024 169.269 334.828 169.464L332 172.293L329.172 169.464C328.976 169.269 328.66 169.269 328.464 169.464C328.269 169.66 328.269 169.976 328.464 170.172L331.646 173.354ZM331.5 124L331.5 173L332.5 173L332.5 124L331.5 124Z" fill="#883D1F"/>
<path d="M29.5611 182.419L1 238.611L208.168 294M29.5611 182.419L299.886 1L443.898 23.0753M29.5611 182.419L212.996 226.57M443.898 23.0753L462 50.7699L208.168 294M443.898 23.0753L212.996 226.57M208.168 294L212.996 226.57" stroke="black"/>
<path d="M210.584 303.631L210.585 322.597L193 317.126" stroke="#883D1F" strokeLinecap="round" strokeLinejoin="round"/>
<path d="M206.452 320.705C206.512 319.893 206.891 319.139 207.506 318.607C208.121 318.075 208.923 317.809 209.734 317.868" stroke="#883D1F" strokeLinecap="round" strokeLinejoin="round"/>
<path d="M203.97 340L203.062 337.423H199.514L198.606 340H197L200.453 330.682H202.142L205.588 340H203.97ZM202.668 336.115L201.786 333.576C201.752 333.466 201.704 333.312 201.64 333.113C201.577 332.91 201.513 332.704 201.45 332.497C201.386 332.285 201.333 332.108 201.291 331.964C201.249 332.137 201.196 332.332 201.132 332.548C201.073 332.759 201.014 332.958 200.955 333.145C200.9 333.331 200.857 333.475 200.828 333.576L199.939 336.115H202.668ZM210.324 332.84C211.115 332.84 211.731 333.045 212.171 333.456C212.615 333.862 212.837 334.516 212.837 335.417V340H211.346V335.696C211.346 335.15 211.234 334.742 211.009 334.471C210.785 334.196 210.438 334.059 209.968 334.059C209.287 334.059 208.813 334.268 208.546 334.687C208.284 335.106 208.153 335.713 208.153 336.509V340H206.661V332.973H207.823L208.032 333.925H208.115C208.267 333.68 208.455 333.479 208.68 333.322C208.908 333.161 209.162 333.041 209.441 332.96C209.725 332.88 210.019 332.84 210.324 332.84ZM216.932 343.123C215.979 343.123 215.25 342.952 214.742 342.609C214.234 342.266 213.98 341.786 213.98 341.168C213.98 340.736 214.115 340.37 214.386 340.07C214.657 339.774 215.044 339.568 215.548 339.454C215.357 339.369 215.192 339.238 215.053 339.061C214.917 338.879 214.85 338.678 214.85 338.458C214.85 338.195 214.924 337.971 215.072 337.785C215.22 337.598 215.442 337.419 215.738 337.245C215.37 337.089 215.074 336.835 214.85 336.483C214.63 336.128 214.52 335.711 214.52 335.233C214.52 334.725 214.627 334.293 214.843 333.938C215.059 333.578 215.374 333.305 215.789 333.119C216.204 332.929 216.705 332.833 217.293 332.833C217.42 332.833 217.558 332.842 217.706 332.859C217.858 332.872 217.998 332.889 218.125 332.91C218.256 332.927 218.356 332.946 218.423 332.967H220.854V333.798L219.661 334.021C219.775 334.181 219.866 334.365 219.934 334.573C220.002 334.776 220.036 334.998 220.036 335.239C220.036 335.967 219.784 336.541 219.28 336.959C218.781 337.374 218.091 337.582 217.211 337.582C216.999 337.573 216.794 337.556 216.595 337.531C216.443 337.624 216.326 337.728 216.246 337.842C216.166 337.952 216.125 338.077 216.125 338.216C216.125 338.331 216.166 338.424 216.246 338.496C216.326 338.563 216.445 338.614 216.602 338.648C216.762 338.682 216.957 338.699 217.186 338.699H218.398C219.168 338.699 219.756 338.862 220.163 339.187C220.569 339.513 220.772 339.992 220.772 340.622C220.772 341.422 220.442 342.038 219.782 342.469C219.122 342.905 218.172 343.123 216.932 343.123ZM216.989 342.076C217.509 342.076 217.947 342.025 218.303 341.923C218.658 341.822 218.927 341.676 219.109 341.485C219.291 341.299 219.382 341.077 219.382 340.819C219.382 340.59 219.325 340.415 219.21 340.292C219.096 340.169 218.925 340.085 218.696 340.038C218.468 339.992 218.184 339.968 217.846 339.968H216.741C216.466 339.968 216.223 340.011 216.011 340.095C215.8 340.184 215.635 340.311 215.516 340.476C215.402 340.641 215.345 340.84 215.345 341.073C215.345 341.394 215.486 341.642 215.77 341.815C216.058 341.989 216.464 342.076 216.989 342.076ZM217.281 336.604C217.717 336.604 218.04 336.486 218.252 336.249C218.464 336.007 218.569 335.669 218.569 335.233C218.569 334.759 218.459 334.403 218.239 334.167C218.023 333.93 217.702 333.811 217.274 333.811C216.855 333.811 216.536 333.932 216.316 334.173C216.1 334.414 215.992 334.772 215.992 335.246C215.992 335.673 216.1 336.007 216.316 336.249C216.536 336.486 216.858 336.604 217.281 336.604ZM223.635 340H222.137V330.123H223.635V340ZM228.567 332.84C229.193 332.84 229.731 332.969 230.179 333.227C230.628 333.485 230.973 333.851 231.214 334.325C231.455 334.799 231.576 335.366 231.576 336.026V336.826H226.885C226.902 337.507 227.084 338.032 227.431 338.4C227.782 338.769 228.273 338.953 228.903 338.953C229.352 338.953 229.754 338.91 230.109 338.826C230.469 338.737 230.839 338.608 231.22 338.438V339.651C230.869 339.816 230.511 339.937 230.147 340.013C229.784 340.089 229.348 340.127 228.84 340.127C228.15 340.127 227.543 339.994 227.018 339.727C226.498 339.456 226.089 339.054 225.793 338.521C225.501 337.988 225.355 337.326 225.355 336.534C225.355 335.747 225.488 335.078 225.755 334.528C226.021 333.978 226.396 333.559 226.878 333.271C227.361 332.984 227.924 332.84 228.567 332.84ZM228.567 333.963C228.097 333.963 227.716 334.116 227.424 334.42C227.137 334.725 226.967 335.172 226.917 335.76H230.116C230.111 335.409 230.052 335.097 229.938 334.827C229.828 334.556 229.659 334.344 229.43 334.192C229.206 334.04 228.918 333.963 228.567 333.963ZM242.855 336.471C242.855 337.055 242.779 337.573 242.627 338.026C242.475 338.479 242.252 338.862 241.96 339.175C241.668 339.484 241.317 339.721 240.907 339.886C240.496 340.047 240.033 340.127 239.517 340.127C239.034 340.127 238.592 340.047 238.19 339.886C237.788 339.721 237.439 339.484 237.143 339.175C236.851 338.862 236.624 338.479 236.463 338.026C236.303 337.573 236.222 337.055 236.222 336.471C236.222 335.696 236.355 335.04 236.622 334.503C236.893 333.961 237.278 333.549 237.777 333.265C238.277 332.982 238.871 332.84 239.561 332.84C240.208 332.84 240.78 332.982 241.275 333.265C241.77 333.549 242.157 333.961 242.437 334.503C242.716 335.045 242.855 335.701 242.855 336.471ZM237.758 336.471C237.758 336.983 237.82 337.421 237.942 337.785C238.069 338.149 238.264 338.428 238.526 338.623C238.789 338.813 239.127 338.908 239.542 338.908C239.957 338.908 240.295 338.813 240.558 338.623C240.82 338.428 241.013 338.149 241.135 337.785C241.258 337.421 241.319 336.983 241.319 336.471C241.319 335.959 241.258 335.525 241.135 335.169C241.013 334.81 240.82 334.537 240.558 334.351C240.295 334.16 239.955 334.065 239.536 334.065C238.918 334.065 238.467 334.272 238.184 334.687C237.9 335.102 237.758 335.696 237.758 336.471ZM248.08 334.109H246.372V340H244.88V334.109H243.731V333.392L244.88 332.954V332.465C244.88 331.869 244.973 331.395 245.16 331.043C245.35 330.692 245.621 330.44 245.972 330.288C246.328 330.132 246.751 330.053 247.242 330.053C247.563 330.053 247.857 330.081 248.124 330.136C248.391 330.187 248.615 330.246 248.797 330.313L248.41 331.443C248.266 331.397 248.105 331.354 247.927 331.316C247.75 331.274 247.559 331.253 247.356 331.253C247.017 331.253 246.768 331.359 246.607 331.57C246.45 331.782 246.372 332.091 246.372 332.497V332.973H248.08V334.109ZM254.148 330.123V332.503C254.148 332.778 254.139 333.049 254.123 333.316C254.11 333.578 254.097 333.784 254.084 333.932H254.148C254.338 333.627 254.603 333.371 254.941 333.164C255.284 332.952 255.722 332.846 256.255 332.846C257.089 332.846 257.76 333.153 258.268 333.767C258.775 334.376 259.029 335.279 259.029 336.477C259.029 337.273 258.913 337.941 258.68 338.483C258.447 339.025 258.119 339.435 257.696 339.714C257.277 339.989 256.784 340.127 256.217 340.127C255.684 340.127 255.252 340.03 254.922 339.835C254.597 339.636 254.34 339.405 254.154 339.143H254.046L253.773 340H252.656V330.123H254.148ZM255.862 334.059C255.439 334.059 255.102 334.143 254.853 334.312C254.607 334.482 254.429 334.736 254.319 335.074C254.209 335.409 254.152 335.834 254.148 336.35V336.483C254.148 337.266 254.271 337.865 254.516 338.28C254.766 338.694 255.219 338.902 255.875 338.902C256.395 338.902 256.795 338.692 257.074 338.273C257.354 337.85 257.493 337.245 257.493 336.458C257.493 335.662 257.354 335.064 257.074 334.662C256.799 334.26 256.395 334.059 255.862 334.059ZM263.555 332.84C264.181 332.84 264.719 332.969 265.167 333.227C265.616 333.485 265.961 333.851 266.202 334.325C266.443 334.799 266.564 335.366 266.564 336.026V336.826H261.873C261.89 337.507 262.072 338.032 262.419 338.4C262.77 338.769 263.261 338.953 263.892 338.953C264.34 338.953 264.742 338.91 265.098 338.826C265.457 338.737 265.828 338.608 266.208 338.438V339.651C265.857 339.816 265.5 339.937 265.136 340.013C264.772 340.089 264.336 340.127 263.828 340.127C263.138 340.127 262.531 339.994 262.006 339.727C261.486 339.456 261.077 339.054 260.781 338.521C260.489 337.988 260.343 337.326 260.343 336.534C260.343 335.747 260.477 335.078 260.743 334.528C261.01 333.978 261.384 333.559 261.867 333.271C262.349 332.984 262.912 332.84 263.555 332.84ZM263.555 333.963C263.085 333.963 262.705 334.116 262.413 334.42C262.125 334.725 261.956 335.172 261.905 335.76H265.104C265.1 335.409 265.041 335.097 264.926 334.827C264.816 334.556 264.647 334.344 264.418 334.192C264.194 334.04 263.906 333.963 263.555 333.963ZM270.607 340.127C269.77 340.127 269.097 339.822 268.589 339.213C268.085 338.599 267.833 337.696 267.833 336.502C267.833 335.296 268.09 334.384 268.602 333.767C269.118 333.149 269.797 332.84 270.639 332.84C270.995 332.84 271.306 332.889 271.572 332.986C271.839 333.079 272.067 333.206 272.258 333.367C272.452 333.528 272.618 333.707 272.753 333.906H272.823C272.802 333.775 272.776 333.587 272.747 333.341C272.721 333.092 272.708 332.861 272.708 332.649V330.123H274.207V340H273.039L272.772 339.042H272.708C272.582 339.245 272.421 339.429 272.226 339.594C272.036 339.755 271.807 339.884 271.541 339.981C271.278 340.078 270.967 340.127 270.607 340.127ZM271.026 338.915C271.665 338.915 272.116 338.73 272.378 338.362C272.641 337.994 272.776 337.442 272.785 336.706V336.509C272.785 335.722 272.658 335.119 272.404 334.7C272.15 334.277 271.687 334.065 271.014 334.065C270.476 334.065 270.066 334.283 269.782 334.719C269.503 335.15 269.363 335.753 269.363 336.528C269.363 337.302 269.503 337.895 269.782 338.305C270.066 338.711 270.48 338.915 271.026 338.915Z" fill="#474F50"/>
<path d="M348.538 187H347.021V182.811H342.742V187H341.219V177.72H342.742V181.516H347.021V177.72H348.538V187ZM353.641 179.84C354.267 179.84 354.805 179.969 355.253 180.227C355.702 180.485 356.047 180.851 356.288 181.325C356.529 181.799 356.65 182.366 356.65 183.026V183.826H351.959C351.976 184.507 352.158 185.032 352.505 185.4C352.856 185.769 353.347 185.953 353.978 185.953C354.426 185.953 354.828 185.91 355.184 185.826C355.543 185.737 355.914 185.608 356.294 185.438V186.651C355.943 186.816 355.586 186.937 355.222 187.013C354.858 187.089 354.422 187.127 353.914 187.127C353.224 187.127 352.617 186.994 352.092 186.727C351.572 186.456 351.163 186.054 350.867 185.521C350.575 184.988 350.429 184.326 350.429 183.534C350.429 182.747 350.562 182.078 350.829 181.528C351.096 180.978 351.47 180.559 351.953 180.271C352.435 179.984 352.998 179.84 353.641 179.84ZM353.641 180.963C353.171 180.963 352.791 181.116 352.499 181.42C352.211 181.725 352.042 182.172 351.991 182.76H355.19C355.186 182.409 355.126 182.097 355.012 181.827C354.902 181.556 354.733 181.344 354.504 181.192C354.28 181.04 353.992 180.963 353.641 180.963ZM359.824 179.973V187H358.332V179.973H359.824ZM359.087 177.282C359.316 177.282 359.513 177.343 359.678 177.466C359.847 177.589 359.932 177.8 359.932 178.101C359.932 178.397 359.847 178.608 359.678 178.735C359.513 178.858 359.316 178.919 359.087 178.919C358.85 178.919 358.649 178.858 358.484 178.735C358.324 178.608 358.243 178.397 358.243 178.101C358.243 177.8 358.324 177.589 358.484 177.466C358.649 177.343 358.85 177.282 359.087 177.282ZM363.969 190.123C363.017 190.123 362.287 189.952 361.779 189.609C361.271 189.266 361.017 188.786 361.017 188.168C361.017 187.736 361.153 187.37 361.423 187.07C361.694 186.774 362.081 186.568 362.585 186.454C362.395 186.369 362.229 186.238 362.09 186.061C361.954 185.879 361.887 185.678 361.887 185.458C361.887 185.195 361.961 184.971 362.109 184.785C362.257 184.598 362.479 184.419 362.775 184.245C362.407 184.089 362.111 183.835 361.887 183.483C361.667 183.128 361.557 182.711 361.557 182.233C361.557 181.725 361.665 181.293 361.88 180.938C362.096 180.578 362.411 180.305 362.826 180.119C363.241 179.929 363.742 179.833 364.331 179.833C364.458 179.833 364.595 179.842 364.743 179.859C364.896 179.872 365.035 179.889 365.162 179.91C365.293 179.927 365.393 179.946 365.46 179.967H367.892V180.798L366.698 181.021C366.812 181.181 366.903 181.365 366.971 181.573C367.039 181.776 367.073 181.998 367.073 182.239C367.073 182.967 366.821 183.541 366.317 183.959C365.818 184.374 365.128 184.582 364.248 184.582C364.036 184.573 363.831 184.556 363.632 184.531C363.48 184.624 363.364 184.728 363.283 184.842C363.203 184.952 363.163 185.077 363.163 185.216C363.163 185.331 363.203 185.424 363.283 185.496C363.364 185.563 363.482 185.614 363.639 185.648C363.799 185.682 363.994 185.699 364.223 185.699H365.435C366.205 185.699 366.793 185.862 367.2 186.187C367.606 186.513 367.809 186.992 367.809 187.622C367.809 188.422 367.479 189.038 366.819 189.469C366.159 189.905 365.209 190.123 363.969 190.123ZM364.026 189.076C364.546 189.076 364.984 189.025 365.34 188.923C365.695 188.822 365.964 188.676 366.146 188.485C366.328 188.299 366.419 188.077 366.419 187.819C366.419 187.59 366.362 187.415 366.248 187.292C366.133 187.169 365.962 187.085 365.733 187.038C365.505 186.992 365.221 186.968 364.883 186.968H363.778C363.503 186.968 363.26 187.011 363.048 187.095C362.837 187.184 362.672 187.311 362.553 187.476C362.439 187.641 362.382 187.84 362.382 188.073C362.382 188.394 362.524 188.642 362.807 188.815C363.095 188.989 363.501 189.076 364.026 189.076ZM364.318 183.604C364.754 183.604 365.077 183.486 365.289 183.249C365.501 183.007 365.606 182.669 365.606 182.233C365.606 181.759 365.496 181.403 365.276 181.167C365.061 180.93 364.739 180.811 364.312 180.811C363.893 180.811 363.573 180.932 363.353 181.173C363.137 181.414 363.029 181.772 363.029 182.246C363.029 182.673 363.137 183.007 363.353 183.249C363.573 183.486 363.895 183.604 364.318 183.604ZM370.666 177.123V179.605C370.666 179.863 370.657 180.115 370.64 180.36C370.627 180.606 370.613 180.796 370.596 180.932H370.678C370.826 180.686 371.008 180.485 371.224 180.329C371.44 180.168 371.681 180.047 371.948 179.967C372.219 179.886 372.506 179.846 372.811 179.846C373.348 179.846 373.805 179.937 374.182 180.119C374.559 180.297 374.847 180.574 375.045 180.951C375.249 181.327 375.35 181.816 375.35 182.417V187H373.858V182.696C373.858 182.15 373.746 181.742 373.522 181.471C373.298 181.196 372.951 181.059 372.481 181.059C372.028 181.059 371.668 181.154 371.402 181.344C371.139 181.53 370.951 181.808 370.837 182.176C370.723 182.54 370.666 182.984 370.666 183.509V187H369.174V177.123H370.666ZM380.054 185.921C380.248 185.921 380.441 185.904 380.631 185.87C380.822 185.832 380.995 185.788 381.152 185.737V186.867C380.987 186.939 380.773 187 380.511 187.051C380.248 187.102 379.975 187.127 379.692 187.127C379.294 187.127 378.937 187.061 378.619 186.93C378.302 186.795 378.05 186.564 377.864 186.238C377.678 185.912 377.584 185.462 377.584 184.886V181.109H376.626V180.443L377.654 179.916L378.143 178.412H379.083V179.973H381.095V181.109H379.083V184.867C379.083 185.223 379.171 185.487 379.349 185.661C379.527 185.834 379.762 185.921 380.054 185.921Z" fill="#474F50"/>
<path d="M240.194 88.7197L237.769 98H236.106L234.557 92.4395C234.519 92.304 234.477 92.1432 234.43 91.957C234.384 91.7708 234.337 91.5804 234.291 91.3857C234.248 91.1911 234.21 91.0133 234.176 90.8525C234.147 90.6875 234.125 90.5605 234.113 90.4717C234.104 90.5605 234.085 90.6854 234.056 90.8462C234.026 91.007 233.99 91.1847 233.948 91.3794C233.91 91.5698 233.867 91.7603 233.821 91.9507C233.774 92.1369 233.732 92.3019 233.694 92.4458L232.17 98H230.514L228.095 88.7197H229.625L230.964 94.1597C231.007 94.3332 231.049 94.5215 231.091 94.7246C231.138 94.9235 231.18 95.1245 231.218 95.3276C231.261 95.5308 231.299 95.7297 231.333 95.9243C231.366 96.1147 231.394 96.2882 231.415 96.4448C231.436 96.284 231.464 96.1063 231.498 95.9116C231.531 95.7127 231.567 95.5117 231.605 95.3086C231.648 95.1012 231.69 94.9023 231.732 94.7119C231.779 94.5215 231.826 94.3501 231.872 94.1978L233.383 88.7197H234.868L236.411 94.2168C236.457 94.3734 236.502 94.549 236.544 94.7437C236.59 94.9383 236.635 95.1372 236.677 95.3403C236.72 95.5435 236.758 95.7402 236.792 95.9307C236.825 96.1211 236.853 96.2925 236.874 96.4448C236.904 96.2375 236.942 96.0005 236.988 95.7339C237.035 95.4673 237.088 95.1965 237.147 94.9214C237.206 94.6463 237.265 94.3924 237.325 94.1597L238.658 88.7197H240.194ZM242.847 90.9731V98H241.355V90.9731H242.847ZM242.111 88.2817C242.339 88.2817 242.536 88.3431 242.701 88.4658C242.87 88.5885 242.955 88.8001 242.955 89.1006C242.955 89.3968 242.87 89.6084 242.701 89.7354C242.536 89.8581 242.339 89.9194 242.111 89.9194C241.874 89.9194 241.673 89.8581 241.508 89.7354C241.347 89.6084 241.267 89.3968 241.267 89.1006C241.267 88.8001 241.347 88.5885 241.508 88.4658C241.673 88.3431 241.874 88.2817 242.111 88.2817ZM247.348 98.127C246.51 98.127 245.837 97.8223 245.329 97.2129C244.826 96.5993 244.574 95.6958 244.574 94.5024C244.574 93.2964 244.83 92.3844 245.342 91.7666C245.858 91.1488 246.537 90.8398 247.379 90.8398C247.735 90.8398 248.046 90.8885 248.312 90.9858C248.579 91.0789 248.808 91.2059 248.998 91.3667C249.193 91.5275 249.358 91.7074 249.493 91.9062H249.563C249.542 91.7751 249.516 91.5868 249.487 91.3413C249.461 91.0916 249.449 90.861 249.449 90.6494V88.123H250.947V98H249.779L249.512 97.0415H249.449C249.322 97.2446 249.161 97.4287 248.966 97.5937C248.776 97.7546 248.547 97.8836 248.281 97.981C248.018 98.0783 247.707 98.127 247.348 98.127ZM247.767 96.9146C248.406 96.9146 248.856 96.7305 249.119 96.3623C249.381 95.9941 249.516 95.4419 249.525 94.7056V94.5088C249.525 93.7217 249.398 93.1187 249.144 92.6997C248.89 92.2765 248.427 92.0649 247.754 92.0649C247.216 92.0649 246.806 92.2829 246.522 92.7187C246.243 93.1504 246.104 93.7534 246.104 94.5278C246.104 95.3022 246.243 95.8947 246.522 96.3052C246.806 96.7114 247.221 96.9146 247.767 96.9146ZM255.701 96.9209C255.896 96.9209 256.088 96.904 256.279 96.8701C256.469 96.832 256.643 96.7876 256.799 96.7368V97.8667C256.634 97.9386 256.421 98 256.158 98.0508C255.896 98.1016 255.623 98.127 255.339 98.127C254.942 98.127 254.584 98.0614 254.267 97.9302C253.949 97.7948 253.697 97.5641 253.511 97.2383C253.325 96.9124 253.232 96.4618 253.232 95.8862V92.1094H252.273V91.4429L253.302 90.916L253.791 89.4116H254.73V90.9731H256.742V92.1094H254.73V95.8672C254.73 96.2227 254.819 96.4871 254.997 96.6606C255.174 96.8341 255.409 96.9209 255.701 96.9209ZM259.719 88.123V90.605C259.719 90.8631 259.711 91.1149 259.694 91.3604C259.681 91.6058 259.666 91.7962 259.649 91.9316H259.732C259.88 91.6862 260.062 91.4852 260.278 91.3286C260.494 91.1678 260.735 91.0472 261.001 90.9668C261.272 90.8864 261.56 90.8462 261.865 90.8462C262.402 90.8462 262.859 90.9372 263.236 91.1191C263.612 91.2969 263.9 91.5741 264.099 91.9507C264.302 92.3273 264.404 92.8161 264.404 93.417V98H262.912V93.6963C262.912 93.1504 262.8 92.742 262.576 92.4712C262.351 92.1961 262.004 92.0586 261.535 92.0586C261.082 92.0586 260.722 92.1538 260.456 92.3442C260.193 92.5304 260.005 92.8076 259.891 93.1758C259.776 93.5397 259.719 93.984 259.719 94.5088V98H258.228V88.123H259.719Z" fill="#474F50"/>
</svg>
