<svg width="641" height="336" viewBox="0 0 641 336" fill="none" xmlns="http://www.w3.org/2000/svg">
<g clip-path="url(#clip0_6362_8766)">
<path d="M209.151 273L196 293H276L263.072 273H209.151Z" fill="#CF9177"/>
<path d="M196 292.961L209.115 273.159H262.885L276 292.961" stroke="#474F50"/>
<path d="M518.151 273L505 293H585L572.072 273H518.151Z" fill="#CF9177"/>
<path d="M505 292.961L518.115 273.159H571.885L585 292.961" stroke="#474F50"/>
<path d="M309.151 273L296 293H376L363.072 273H309.151Z" fill="#CF9177"/>
<path d="M296 292.961L309.115 273.159H362.885L376 292.961" stroke="#474F50"/>
<path d="M618.151 273L605 293H685L672.072 273H618.151Z" fill="#CF9177"/>
<path d="M605 292.961L618.115 273.159H671.885L685 292.961" stroke="#474F50"/>
<path d="M397.151 273L384 293H464L451.072 273H397.151Z" fill="#CF9177"/>
<path d="M384 292.961L397.115 273.159H450.885L464 292.961" stroke="#474F50"/>
<path d="M-23.8487 273L-37 293H43L30.0717 273H-23.8487Z" fill="#CF9177"/>
<path d="M-37 292.961L-23.8852 273.159H29.8852L43 292.961" stroke="#474F50"/>
<path d="M327.008 264H320.521V262.635L322.85 260.28C323.32 259.798 323.696 259.396 323.98 259.074C324.268 258.748 324.475 258.452 324.602 258.186C324.733 257.919 324.799 257.633 324.799 257.329C324.799 256.96 324.695 256.685 324.488 256.503C324.285 256.317 324.012 256.224 323.669 256.224C323.309 256.224 322.96 256.307 322.622 256.472C322.283 256.637 321.93 256.872 321.562 257.176L320.495 255.913C320.762 255.685 321.043 255.469 321.339 255.266C321.64 255.062 321.987 254.9 322.38 254.777C322.778 254.65 323.254 254.586 323.809 254.586C324.418 254.586 324.941 254.696 325.376 254.917C325.817 255.137 326.155 255.437 326.392 255.818C326.629 256.194 326.748 256.622 326.748 257.1C326.748 257.612 326.646 258.08 326.443 258.503C326.24 258.926 325.944 259.345 325.554 259.76C325.169 260.174 324.704 260.634 324.158 261.137L322.964 262.261V262.35H327.008V264Z" fill="#474F50"/>
<path d="M76.1513 273L63 293H143L130.072 273H76.1513Z" fill="#CF9177"/>
<path d="M63 292.961L76.1148 273.159H129.885L143 292.961" stroke="#474F50"/>
<g filter="url(#filter0_d_6362_8766)">
<path d="M159 37H168V291C168 292.105 167.105 293 166 293H161C159.895 293 159 292.105 159 291V37Z" fill="url(#paint0_linear_6362_8766)"/>
</g>
<rect x="79.2554" y="57.9615" width="163.6" height="8.6" rx="1.8" transform="rotate(-19.5354 79.2554 57.9615)" fill="white" stroke="#474F50" strokeWidth="0.4"/>
<path d="M428.401 264H425.9L421.863 256.979H421.806C421.823 257.271 421.837 257.566 421.85 257.862C421.863 258.158 421.875 258.454 421.888 258.75C421.901 259.042 421.914 259.337 421.926 259.633V264H420.168V254.72H422.65L426.681 261.67H426.725C426.717 261.383 426.706 261.097 426.693 260.813C426.681 260.53 426.668 260.246 426.655 259.963C426.647 259.679 426.638 259.396 426.63 259.112V254.72H428.401V264Z" fill="#474F50"/>
<rect x="364" y="259" width="33" height="48" fill="#E8DEDA"/>
<path d="M6.00781 264H-0.479492V262.635L1.8501 260.28C2.31982 259.798 2.69645 259.396 2.97998 259.074C3.26774 258.748 3.4751 258.452 3.60205 258.186C3.73324 257.919 3.79883 257.633 3.79883 257.329C3.79883 256.96 3.69515 256.685 3.48779 256.503C3.28467 256.317 3.01172 256.224 2.66895 256.224C2.30924 256.224 1.96012 256.307 1.62158 256.472C1.28304 256.637 0.929688 256.872 0.561523 257.176L-0.504883 255.913C-0.238281 255.685 0.0431315 255.469 0.339355 255.266C0.639811 255.062 0.986816 254.9 1.38037 254.777C1.77816 254.65 2.25423 254.586 2.80859 254.586C3.41797 254.586 3.94059 254.696 4.37646 254.917C4.81657 255.137 5.15511 255.437 5.39209 255.818C5.62907 256.194 5.74756 256.622 5.74756 257.1C5.74756 257.612 5.646 258.08 5.44287 258.503C5.23975 258.926 4.94352 259.345 4.5542 259.76C4.16911 260.174 3.70361 260.634 3.15771 261.137L1.96436 262.261V262.35H6.00781V264Z" fill="#474F50"/>
<g filter="url(#filter1_d_6362_8766)">
<path d="M480 37H489V291C489 292.105 488.105 293 487 293H482C480.895 293 480 292.105 480 291V37Z" fill="url(#paint1_linear_6362_8766)"/>
</g>
<g filter="url(#filter2_d_6362_8766)">
<rect x="405" y="57.8398" width="164" height="9" rx="2" transform="rotate(-19.5354 405 57.8398)" fill="white"/>
<rect x="405.255" y="57.9615" width="163.6" height="8.6" rx="1.8" transform="rotate(-19.5354 405.255 57.9615)" stroke="#474F50" strokeWidth="0.4"/>
</g>
<path d="M225.37 264H223.409V258.63C223.409 258.482 223.411 258.3 223.415 258.084C223.419 257.864 223.426 257.64 223.434 257.411C223.443 257.178 223.451 256.969 223.459 256.783C223.413 256.838 223.318 256.933 223.174 257.068C223.034 257.2 222.903 257.318 222.78 257.424L221.714 258.281L220.768 257.1L223.758 254.72H225.37V264Z" fill="#474F50"/>
<path d="M546.37 264H544.409V258.63C544.409 258.482 544.411 258.3 544.415 258.084C544.419 257.864 544.426 257.64 544.434 257.411C544.443 257.178 544.451 256.969 544.459 256.783C544.413 256.838 544.318 256.933 544.174 257.068C544.034 257.2 543.903 257.318 543.78 257.424L542.714 258.281L541.768 257.1L544.758 254.72H546.37V264Z" fill="#474F50"/>
<path d="M107.401 264H104.9L100.863 256.979H100.806C100.823 257.271 100.837 257.566 100.85 257.862C100.863 258.158 100.875 258.454 100.888 258.75C100.901 259.042 100.914 259.337 100.926 259.633V264H99.168V254.72H101.65L105.681 261.67H105.725C105.717 261.383 105.706 261.097 105.693 260.813C105.681 260.53 105.668 260.246 105.655 259.963C105.647 259.679 105.638 259.396 105.63 259.112V254.72H107.401V264Z" fill="#474F50"/>
<rect x="30" y="259" width="46" height="48" fill="#E8DEDA"/>
<path d="M196 226V220H301" stroke="#883D1F"/>
<path d="M310.225 214.72H312.98C314.258 214.72 315.181 214.906 315.748 215.278C316.319 215.651 316.604 216.239 316.604 217.043C316.604 217.585 316.465 218.035 316.186 218.395C315.906 218.755 315.504 218.981 314.979 219.074V219.138C315.631 219.26 316.109 219.504 316.414 219.868C316.723 220.227 316.877 220.716 316.877 221.334C316.877 222.168 316.585 222.821 316.001 223.295C315.422 223.765 314.613 224 313.577 224H310.225V214.72ZM311.742 218.554H313.202C313.837 218.554 314.3 218.454 314.592 218.255C314.884 218.052 315.03 217.709 315.03 217.227C315.03 216.791 314.872 216.476 314.554 216.281C314.241 216.087 313.742 215.989 313.056 215.989H311.742V218.554ZM311.742 219.785V222.724H313.354C313.989 222.724 314.467 222.604 314.789 222.362C315.115 222.117 315.278 221.732 315.278 221.207C315.278 220.725 315.113 220.367 314.783 220.134C314.453 219.902 313.951 219.785 313.278 219.785H311.742ZM321.714 224.127C320.623 224.127 319.768 223.81 319.15 223.175C318.536 222.536 318.229 221.658 318.229 220.541C318.229 219.394 318.515 218.492 319.086 217.836C319.658 217.181 320.443 216.853 321.441 216.853C322.368 216.853 323.1 217.134 323.638 217.697C324.175 218.26 324.444 219.034 324.444 220.02V220.826H319.766C319.787 221.507 319.971 222.032 320.318 222.4C320.665 222.764 321.154 222.946 321.784 222.946C322.199 222.946 322.584 222.908 322.939 222.832C323.299 222.752 323.684 222.62 324.095 222.438V223.651C323.731 223.824 323.363 223.947 322.99 224.019C322.618 224.091 322.193 224.127 321.714 224.127ZM321.441 217.982C320.967 217.982 320.587 218.133 320.299 218.433C320.015 218.734 319.846 219.172 319.791 219.747H322.978C322.969 219.167 322.829 218.729 322.559 218.433C322.288 218.133 321.915 217.982 321.441 217.982ZM328.506 224.127C327.63 224.127 326.947 223.81 326.456 223.175C325.965 222.54 325.72 221.649 325.72 220.502C325.72 219.351 325.967 218.456 326.462 217.817C326.962 217.174 327.652 216.853 328.532 216.853C329.454 216.853 330.157 217.193 330.639 217.875H330.715C330.643 217.371 330.607 216.973 330.607 216.681V214.123H332.105V224H330.938L330.677 223.08H330.607C330.129 223.778 329.429 224.127 328.506 224.127ZM328.906 222.921C329.52 222.921 329.966 222.75 330.246 222.407C330.525 222.06 330.669 221.499 330.677 220.725V220.515C330.677 219.631 330.533 219.002 330.246 218.63C329.958 218.257 329.507 218.071 328.894 218.071C328.369 218.071 327.965 218.285 327.681 218.712C327.398 219.136 327.256 219.741 327.256 220.528C327.256 221.306 327.393 221.901 327.668 222.312C327.944 222.718 328.356 222.921 328.906 222.921ZM338.955 222C338.955 222.686 338.705 223.213 338.206 223.581C337.706 223.945 336.991 224.127 336.06 224.127C335.125 224.127 334.374 223.985 333.807 223.702V222.413C334.632 222.794 335.4 222.984 336.111 222.984C337.029 222.984 337.488 222.707 337.488 222.153C337.488 221.975 337.438 221.827 337.336 221.708C337.234 221.59 337.067 221.467 336.834 221.34C336.602 221.213 336.278 221.069 335.863 220.909C335.055 220.596 334.507 220.282 334.219 219.969C333.936 219.656 333.794 219.25 333.794 218.75C333.794 218.15 334.035 217.684 334.518 217.354C335.004 217.02 335.664 216.853 336.498 216.853C337.323 216.853 338.104 217.02 338.84 217.354L338.358 218.478C337.6 218.164 336.964 218.008 336.447 218.008C335.66 218.008 335.267 218.232 335.267 218.681C335.267 218.901 335.368 219.087 335.571 219.239C335.779 219.392 336.227 219.601 336.917 219.868C337.497 220.092 337.918 220.297 338.18 220.483C338.443 220.67 338.637 220.885 338.764 221.131C338.891 221.372 338.955 221.662 338.955 222Z" fill="#474F50"/>
<path d="M183.576 328.48C183.576 329.305 183.278 329.953 182.681 330.422C182.084 330.892 181.261 331.127 180.212 331.127C179.162 331.127 178.303 330.964 177.635 330.638V329.204C178.058 329.403 178.507 329.559 178.98 329.673C179.459 329.788 179.903 329.845 180.313 329.845C180.914 329.845 181.357 329.73 181.64 329.502C181.928 329.273 182.072 328.967 182.072 328.582C182.072 328.235 181.941 327.94 181.678 327.699C181.416 327.458 180.874 327.172 180.053 326.842C179.207 326.5 178.61 326.108 178.263 325.668C177.916 325.228 177.743 324.699 177.743 324.081C177.743 323.307 178.018 322.697 178.568 322.253C179.118 321.809 179.856 321.586 180.783 321.586C181.672 321.586 182.556 321.781 183.437 322.17L182.954 323.408C182.129 323.061 181.393 322.888 180.745 322.888C180.254 322.888 179.882 322.996 179.628 323.211C179.374 323.423 179.247 323.704 179.247 324.056C179.247 324.297 179.298 324.504 179.399 324.678C179.501 324.847 179.668 325.008 179.901 325.16C180.134 325.312 180.553 325.514 181.158 325.763C181.839 326.047 182.338 326.311 182.656 326.557C182.973 326.802 183.206 327.079 183.354 327.388C183.502 327.697 183.576 328.061 183.576 328.48ZM187.829 329.921C188.193 329.921 188.557 329.864 188.921 329.75V330.873C188.756 330.945 188.542 331.004 188.28 331.051C188.022 331.102 187.753 331.127 187.474 331.127C186.06 331.127 185.354 330.382 185.354 328.893V325.109H184.395V324.449L185.423 323.903L185.931 322.418H186.852V323.979H188.851V325.109H186.852V328.867C186.852 329.227 186.94 329.493 187.118 329.667C187.3 329.836 187.537 329.921 187.829 329.921ZM194.723 331L194.424 330.022H194.374C194.035 330.45 193.694 330.742 193.352 330.898C193.009 331.051 192.569 331.127 192.031 331.127C191.341 331.127 190.802 330.941 190.413 330.568C190.028 330.196 189.835 329.669 189.835 328.988C189.835 328.264 190.104 327.718 190.641 327.35C191.179 326.982 191.997 326.781 193.098 326.747L194.31 326.709V326.334C194.31 325.886 194.204 325.552 193.993 325.332C193.785 325.107 193.462 324.995 193.021 324.995C192.662 324.995 192.317 325.048 191.987 325.154C191.657 325.26 191.339 325.384 191.035 325.528L190.552 324.462C190.933 324.263 191.35 324.113 191.803 324.011C192.256 323.905 192.683 323.853 193.085 323.853C193.978 323.853 194.651 324.047 195.104 324.437C195.561 324.826 195.789 325.437 195.789 326.271V331H194.723ZM192.501 329.984C193.043 329.984 193.476 329.834 193.802 329.534C194.132 329.229 194.297 328.804 194.297 328.258V327.648L193.396 327.687C192.694 327.712 192.181 327.83 191.86 328.042C191.542 328.249 191.384 328.569 191.384 329C191.384 329.314 191.477 329.557 191.663 329.73C191.849 329.9 192.129 329.984 192.501 329.984ZM201.432 323.853C201.733 323.853 201.98 323.874 202.175 323.916L202.029 325.306C201.817 325.255 201.597 325.23 201.369 325.23C200.772 325.23 200.287 325.425 199.915 325.814C199.547 326.203 199.363 326.709 199.363 327.331V331H197.871V323.979H199.039L199.236 325.217H199.312C199.545 324.798 199.847 324.466 200.22 324.221C200.596 323.975 201 323.853 201.432 323.853ZM206.098 329.921C206.462 329.921 206.826 329.864 207.189 329.75V330.873C207.024 330.945 206.811 331.004 206.548 331.051C206.29 331.102 206.021 331.127 205.742 331.127C204.329 331.127 203.622 330.382 203.622 328.893V325.109H202.664V324.449L203.692 323.903L204.2 322.418H205.12V323.979H207.12V325.109H205.12V328.867C205.12 329.227 205.209 329.493 205.387 329.667C205.569 329.836 205.806 329.921 206.098 329.921ZM215.537 331.127C214.648 331.127 213.958 330.807 213.467 330.168H213.378C213.438 330.761 213.467 331.121 213.467 331.248V334.123H211.976V323.979H213.182C213.215 324.111 213.285 324.424 213.391 324.919H213.467C213.933 324.208 214.631 323.853 215.562 323.853C216.438 323.853 217.119 324.17 217.606 324.805C218.097 325.439 218.342 326.33 218.342 327.477C218.342 328.624 218.093 329.519 217.593 330.162C217.098 330.805 216.413 331.127 215.537 331.127ZM215.175 325.071C214.582 325.071 214.149 325.245 213.874 325.592C213.603 325.939 213.467 326.493 213.467 327.255V327.477C213.467 328.332 213.603 328.952 213.874 329.337C214.144 329.718 214.587 329.908 215.2 329.908C215.716 329.908 216.114 329.697 216.394 329.273C216.673 328.85 216.812 328.247 216.812 327.464C216.812 326.677 216.673 326.083 216.394 325.681C216.118 325.274 215.712 325.071 215.175 325.071ZM226.302 327.477C226.302 328.624 226.008 329.519 225.42 330.162C224.832 330.805 224.013 331.127 222.963 331.127C222.307 331.127 221.728 330.979 221.224 330.683C220.721 330.386 220.333 329.961 220.062 329.407C219.792 328.852 219.656 328.209 219.656 327.477C219.656 326.339 219.948 325.45 220.532 324.811C221.116 324.172 221.939 323.853 223.001 323.853C224.017 323.853 224.821 324.181 225.414 324.836C226.006 325.488 226.302 326.368 226.302 327.477ZM221.192 327.477C221.192 329.098 221.791 329.908 222.989 329.908C224.174 329.908 224.766 329.098 224.766 327.477C224.766 325.873 224.169 325.071 222.976 325.071C222.35 325.071 221.895 325.279 221.611 325.693C221.332 326.108 221.192 326.703 221.192 327.477ZM229.514 331H228.022V323.979H229.514V331ZM227.934 322.12C227.934 321.853 228.006 321.648 228.149 321.504C228.298 321.36 228.507 321.288 228.778 321.288C229.04 321.288 229.243 321.36 229.387 321.504C229.535 321.648 229.609 321.853 229.609 322.12C229.609 322.374 229.535 322.575 229.387 322.723C229.243 322.867 229.04 322.938 228.778 322.938C228.507 322.938 228.298 322.867 228.149 322.723C228.006 322.575 227.934 322.374 227.934 322.12ZM237.83 331H236.332V326.684C236.332 326.142 236.222 325.738 236.001 325.471C235.786 325.205 235.441 325.071 234.967 325.071C234.336 325.071 233.875 325.257 233.583 325.63C233.291 326.002 233.145 326.626 233.145 327.502V331H231.653V323.979H232.821L233.031 324.9H233.107C233.319 324.566 233.619 324.307 234.008 324.125C234.398 323.944 234.829 323.853 235.303 323.853C236.987 323.853 237.83 324.709 237.83 326.423V331ZM242.521 329.921C242.884 329.921 243.248 329.864 243.612 329.75V330.873C243.447 330.945 243.234 331.004 242.971 331.051C242.713 331.102 242.444 331.127 242.165 331.127C240.752 331.127 240.045 330.382 240.045 328.893V325.109H239.086V324.449L240.115 323.903L240.623 322.418H241.543V323.979H243.542V325.109H241.543V328.867C241.543 329.227 241.632 329.493 241.81 329.667C241.992 329.836 242.229 329.921 242.521 329.921ZM254.625 327.477C254.625 328.624 254.331 329.519 253.743 330.162C253.155 330.805 252.336 331.127 251.287 331.127C250.631 331.127 250.051 330.979 249.547 330.683C249.044 330.386 248.657 329.961 248.386 329.407C248.115 328.852 247.979 328.209 247.979 327.477C247.979 326.339 248.271 325.45 248.855 324.811C249.439 324.172 250.263 323.853 251.325 323.853C252.34 323.853 253.144 324.181 253.737 324.836C254.329 325.488 254.625 326.368 254.625 327.477ZM249.516 327.477C249.516 329.098 250.114 329.908 251.312 329.908C252.497 329.908 253.089 329.098 253.089 327.477C253.089 325.873 252.493 325.071 251.299 325.071C250.673 325.071 250.218 325.279 249.935 325.693C249.655 326.108 249.516 326.703 249.516 327.477ZM259.869 325.109H258.155V331H256.657V325.109H255.501V324.411L256.657 323.954V323.497C256.657 322.668 256.851 322.054 257.241 321.656C257.63 321.254 258.225 321.053 259.024 321.053C259.549 321.053 260.065 321.14 260.573 321.313L260.18 322.443C259.812 322.325 259.46 322.266 259.126 322.266C258.787 322.266 258.54 322.371 258.383 322.583C258.231 322.79 258.155 323.104 258.155 323.522V323.979H259.869V325.109ZM264.585 325.109H262.871V331H261.373V325.109H260.218V324.411L261.373 323.954V323.497C261.373 322.668 261.568 322.054 261.957 321.656C262.346 321.254 262.941 321.053 263.741 321.053C264.265 321.053 264.782 321.14 265.29 321.313L264.896 322.443C264.528 322.325 264.177 322.266 263.842 322.266C263.504 322.266 263.256 322.371 263.1 322.583C262.947 322.79 262.871 323.104 262.871 323.522V323.979H264.585V325.109ZM270.507 329C270.507 329.686 270.258 330.213 269.758 330.581C269.259 330.945 268.544 331.127 267.613 331.127C266.678 331.127 265.926 330.985 265.359 330.702V329.413C266.185 329.794 266.953 329.984 267.664 329.984C268.582 329.984 269.041 329.707 269.041 329.153C269.041 328.975 268.99 328.827 268.889 328.708C268.787 328.59 268.62 328.467 268.387 328.34C268.154 328.213 267.831 328.069 267.416 327.909C266.608 327.596 266.06 327.282 265.772 326.969C265.488 326.656 265.347 326.25 265.347 325.75C265.347 325.15 265.588 324.684 266.07 324.354C266.557 324.02 267.217 323.853 268.051 323.853C268.876 323.853 269.657 324.02 270.393 324.354L269.911 325.478C269.153 325.164 268.516 325.008 268 325.008C267.213 325.008 266.819 325.232 266.819 325.681C266.819 325.901 266.921 326.087 267.124 326.239C267.331 326.392 267.78 326.601 268.47 326.868C269.049 327.092 269.471 327.297 269.733 327.483C269.995 327.67 270.19 327.885 270.317 328.131C270.444 328.372 270.507 328.662 270.507 329ZM275.192 331.127C274.1 331.127 273.245 330.81 272.627 330.175C272.014 329.536 271.707 328.658 271.707 327.541C271.707 326.394 271.993 325.492 272.564 324.836C273.135 324.181 273.92 323.853 274.919 323.853C275.846 323.853 276.578 324.134 277.115 324.697C277.653 325.26 277.921 326.034 277.921 327.02V327.826H273.243C273.264 328.507 273.448 329.032 273.795 329.4C274.142 329.764 274.631 329.946 275.262 329.946C275.676 329.946 276.062 329.908 276.417 329.832C276.777 329.752 277.162 329.62 277.572 329.438V330.651C277.208 330.824 276.84 330.947 276.468 331.019C276.095 331.091 275.67 331.127 275.192 331.127ZM274.919 324.982C274.445 324.982 274.064 325.133 273.776 325.433C273.493 325.734 273.324 326.172 273.269 326.747H276.455C276.447 326.167 276.307 325.729 276.036 325.433C275.765 325.133 275.393 324.982 274.919 324.982ZM282.231 329.921C282.595 329.921 282.959 329.864 283.323 329.75V330.873C283.158 330.945 282.944 331.004 282.682 331.051C282.424 331.102 282.155 331.127 281.876 331.127C280.463 331.127 279.756 330.382 279.756 328.893V325.109H278.797V324.449L279.826 323.903L280.333 322.418H281.254V323.979H283.253V325.109H281.254V328.867C281.254 329.227 281.343 329.493 281.521 329.667C281.702 329.836 281.939 329.921 282.231 329.921Z" fill="#474F50"/>
<path d="M348 220H464V226" stroke="#883D1F"/>
<path d="M83 79.5L408 79.5" stroke="#883D1F" stroke-miterlimit="3.99933"/>
<line x1="-20" y1="293.5" x2="351" y2="293.5" stroke="#883D1F" stroke-dasharray="2 2"/>
<line x1="397" y1="293.5" x2="661" y2="293.5" stroke="#883D1F" stroke-dasharray="2 2"/>
<line x1="363.5" y1="262" x2="363.5" y2="302" stroke="#883D1F"/>
<line x1="397.5" y1="262" x2="397.5" y2="302" stroke="#883D1F"/>
<line x1="29.5" y1="262" x2="29.5" y2="302" stroke="#883D1F"/>
<line x1="75.5" y1="262" x2="75.5" y2="302" stroke="#883D1F"/>
<path d="M211.37 92.5254C211.37 93.4945 211.052 94.2371 210.417 94.7534C209.783 95.2697 208.879 95.5278 207.707 95.5278H206.742V99H205.225V89.7197H207.897C209.057 89.7197 209.924 89.9567 210.5 90.4307C211.08 90.9046 211.37 91.6029 211.37 92.5254ZM206.742 94.252H207.548C208.327 94.252 208.898 94.1165 209.262 93.8457C209.626 93.5749 209.808 93.1517 209.808 92.5762C209.808 92.043 209.645 91.6452 209.319 91.3828C208.993 91.1204 208.486 90.9893 207.796 90.9893H206.742V94.252ZM214.556 99H213.064V91.9795H214.556V99ZM212.976 90.1196C212.976 89.853 213.048 89.6478 213.191 89.5039C213.34 89.36 213.549 89.2881 213.82 89.2881C214.082 89.2881 214.285 89.36 214.429 89.5039C214.577 89.6478 214.651 89.853 214.651 90.1196C214.651 90.3735 214.577 90.5745 214.429 90.7227C214.285 90.8665 214.082 90.9385 213.82 90.9385C213.549 90.9385 213.34 90.8665 213.191 90.7227C213.048 90.5745 212.976 90.3735 212.976 90.1196ZM219.311 97.9209C219.674 97.9209 220.038 97.8638 220.402 97.7495V98.873C220.237 98.945 220.024 99.0042 219.761 99.0508C219.503 99.1016 219.234 99.127 218.955 99.127C217.542 99.127 216.835 98.3822 216.835 96.8926V93.1094H215.876V92.4492L216.905 91.9033L217.413 90.418H218.333V91.9795H220.333V93.1094H218.333V96.8672C218.333 97.2269 218.422 97.4935 218.6 97.667C218.782 97.8363 219.019 97.9209 219.311 97.9209ZM224.643 99.127C223.58 99.127 222.772 98.818 222.218 98.2002C221.668 97.5781 221.393 96.6873 221.393 95.5278C221.393 94.3472 221.68 93.4395 222.256 92.8047C222.836 92.1699 223.671 91.8525 224.763 91.8525C225.504 91.8525 226.17 91.9901 226.763 92.2651L226.312 93.4648C225.681 93.2194 225.161 93.0967 224.75 93.0967C223.536 93.0967 222.929 93.9028 222.929 95.5151C222.929 96.3022 223.079 96.8947 223.379 97.2925C223.684 97.686 224.128 97.8828 224.712 97.8828C225.377 97.8828 226.005 97.7178 226.598 97.3877V98.689C226.331 98.8455 226.045 98.9577 225.741 99.0254C225.44 99.0931 225.074 99.127 224.643 99.127ZM234.424 99H232.926V94.6836C232.926 94.1419 232.816 93.7378 232.596 93.4712C232.38 93.2046 232.035 93.0713 231.562 93.0713C230.935 93.0713 230.474 93.2596 230.178 93.6362C229.886 94.0086 229.74 94.6349 229.74 95.5151V99H228.248V89.123H229.74V91.6304C229.74 92.0324 229.714 92.4619 229.664 92.9189H229.759C229.962 92.5804 230.243 92.318 230.603 92.1318C230.967 91.9456 231.39 91.8525 231.873 91.8525C233.574 91.8525 234.424 92.7095 234.424 94.4233V99Z" fill="#474F50"/>
<line x1="82.5" y1="68" x2="82.5" y2="80" stroke="#883D1F"/>
<line x1="408.5" y1="68" x2="408.5" y2="80" stroke="#883D1F"/>
<path d="M169.646 307.646C169.451 307.842 169.451 308.158 169.646 308.354L172.828 311.536C173.024 311.731 173.34 311.731 173.536 311.536C173.731 311.34 173.731 311.024 173.536 310.828L170.707 308L173.536 305.172C173.731 304.976 173.731 304.66 173.536 304.464C173.34 304.269 173.024 304.269 172.828 304.464L169.646 307.646ZM196.354 308.354C196.549 308.158 196.549 307.842 196.354 307.646L193.172 304.464C192.976 304.269 192.66 304.269 192.464 304.464C192.269 304.66 192.269 304.976 192.464 305.172L195.293 308L192.464 310.828C192.269 311.024 192.269 311.34 192.464 311.536C192.66 311.731 192.976 311.731 193.172 311.536L196.354 308.354ZM170 308.5H196V307.5H170V308.5Z" fill="#883D1F"/>
</g>
<defs>
<filter id="filter0_d_6362_8766" x="158" y="36" width="11" height="258" filterUnits="userSpaceOnUse" color-interpolation-filters="sRGB">
<feFlood flood-opacity="0" result="BackgroundImageFix"/>
<feColorMatrix in="SourceAlpha" type="matrix" values="0 0 0 0 0 0 0 0 0 0 0 0 0 0 0 0 0 0 127 0" result="hardAlpha"/>
<feOffset/>
<feGaussianBlur stdDeviation="0.5"/>
<feComposite in2="hardAlpha" operator="out"/>
<feColorMatrix type="matrix" values="0 0 0 0 0 0 0 0 0 0 0 0 0 0 0 0 0 0 0.2 0"/>
<feBlend mode="normal" in2="BackgroundImageFix" result="effect1_dropShadow_6362_8766"/>
<feBlend mode="normal" in="SourceGraphic" in2="effect1_dropShadow_6362_8766" result="shape"/>
</filter>
<filter id="filter1_d_6362_8766" x="479" y="36" width="11" height="258" filterUnits="userSpaceOnUse" color-interpolation-filters="sRGB">
<feFlood flood-opacity="0" result="BackgroundImageFix"/>
<feColorMatrix in="SourceAlpha" type="matrix" values="0 0 0 0 0 0 0 0 0 0 0 0 0 0 0 0 0 0 127 0" result="hardAlpha"/>
<feOffset/>
<feGaussianBlur stdDeviation="0.5"/>
<feComposite in2="hardAlpha" operator="out"/>
<feColorMatrix type="matrix" values="0 0 0 0 0 0 0 0 0 0 0 0 0 0 0 0 0 0 0.2 0"/>
<feBlend mode="normal" in2="BackgroundImageFix" result="effect1_dropShadow_6362_8766"/>
<feBlend mode="normal" in="SourceGraphic" in2="effect1_dropShadow_6362_8766" result="shape"/>
</filter>
<filter id="filter2_d_6362_8766" x="404.553" y="2.55273" width="158.462" height="64.2158" filterUnits="userSpaceOnUse" color-interpolation-filters="sRGB">
<feFlood flood-opacity="0" result="BackgroundImageFix"/>
<feColorMatrix in="SourceAlpha" type="matrix" values="0 0 0 0 0 0 0 0 0 0 0 0 0 0 0 0 0 0 127 0" result="hardAlpha"/>
<feOffset/>
<feGaussianBlur stdDeviation="0.5"/>
<feComposite in2="hardAlpha" operator="out"/>
<feColorMatrix type="matrix" values="0 0 0 0 0 0 0 0 0 0 0 0 0 0 0 0 0 0 0.28 0"/>
<feBlend mode="normal" in2="BackgroundImageFix" result="effect1_dropShadow_6362_8766"/>
<feBlend mode="normal" in="SourceGraphic" in2="effect1_dropShadow_6362_8766" result="shape"/>
</filter>
<linearGradient id="paint0_linear_6362_8766" x1="163.5" y1="37" x2="163.5" y2="293" gradientUnits="userSpaceOnUse">
<stop stop-color="#999FAD"/>
<stop offset="0.434654" stop-color="#6C717C"/>
<stop offset="1" stop-color="#5A5F67"/>
</linearGradient>
<linearGradient id="paint1_linear_6362_8766" x1="484.5" y1="37" x2="484.5" y2="293" gradientUnits="userSpaceOnUse">
<stop stop-color="#999FAD"/>
<stop offset="0.434654" stop-color="#6C717C"/>
<stop offset="1" stop-color="#5A5F67"/>
</linearGradient>
<clipPath id="clip0_6362_8766">
<rect width="641" height="336" fill="white"/>
</clipPath>
</defs>
</svg>
