<svg width="462" height="513" viewBox="0 0 462 513" fill="none" xmlns="http://www.w3.org/2000/svg">
<path d="M5.35254 46H3.73926L3.73926 39.5674C3.73926 39.3532 3.74154 39.139 3.74609 38.9248C3.75065 38.7106 3.75521 38.501 3.75977 38.2959C3.76888 38.0908 3.78027 37.8949 3.79395 37.708C3.69824 37.8128 3.57975 37.9268 3.43848 38.0498C3.30176 38.1729 3.15592 38.3005 3.00098 38.4326L1.85254 39.3486L1.0459 38.3301L4.0127 36.0059H5.35254L5.35254 46ZM13.043 38.2891C13.9408 38.2891 14.6608 38.6172 15.2031 39.2734C15.75 39.9297 16.0234 40.9049 16.0234 42.1992C16.0234 43.056 15.8958 43.7783 15.6406 44.3662C15.39 44.9495 15.0368 45.3916 14.5811 45.6924C14.1299 45.9886 13.6035 46.1367 13.002 46.1367C12.6191 46.1367 12.2865 46.0866 12.0039 45.9863C11.7214 45.8861 11.4798 45.7562 11.2793 45.5967C11.0788 45.4326 10.9102 45.2549 10.7734 45.0635H10.6777C10.7005 45.2458 10.721 45.4486 10.7393 45.6719C10.762 45.8906 10.7734 46.0911 10.7734 46.2734L10.7734 49.3564H9.16016L9.16016 38.4326H10.4727L10.6982 39.4785H10.7734C10.9147 39.2643 11.0856 39.0661 11.2861 38.8838C11.4912 38.7015 11.7373 38.5579 12.0244 38.4531C12.3161 38.3437 12.6556 38.2891 13.043 38.2891ZM12.6123 39.6016C12.1702 39.6016 11.8148 39.6904 11.5459 39.8682C11.2816 40.0413 11.0879 40.3034 10.9648 40.6543C10.8464 41.0052 10.7826 41.445 10.7734 41.9736V42.1992C10.7734 42.7598 10.8304 43.236 10.9443 43.6279C11.0628 44.0153 11.2565 44.3115 11.5254 44.5166C11.7988 44.7171 12.168 44.8174 12.6328 44.8174C13.0247 44.8174 13.3483 44.7103 13.6035 44.4961C13.8633 44.2819 14.057 43.9766 14.1846 43.5801C14.3122 43.1836 14.376 42.7165 14.376 42.1787C14.376 41.363 14.2301 40.7295 13.9385 40.2783C13.6514 39.8271 13.2093 39.6016 12.6123 39.6016Z" fill="#474F50"/>
<path d="M250.972 13.5869L158.238 56.7429L159.009 66.5043L252 22.5777L250.972 13.5869Z" fill="#53988E" fill-opacity="0.5"/>
<path d="M158.239 56.7432L112 39.7891L112.257 47.2386L159.009 66.5047L158.239 56.7432Z" fill="#DB8C47" fill-opacity="0.5"/>
<path d="M199.34 1L112.257 39.789L158.239 56.7431L250.716 13.5872L199.34 1Z" fill="#2A3845"/>
<path d="M112 39.789L199.339 1L250.972 13.5872M112 39.789L112.257 47.4954L159.009 66.5046M112 39.789L158.239 56.7431M250.972 13.5872L252 22.578L159.009 66.5046M250.972 13.5872L158.239 56.7431M159.009 66.5046L158.239 56.7431" stroke="black"/>
<path d="M7.39648 198H0.628906L0.628906 196.79L3.21973 194.165C3.72103 193.655 4.13346 193.215 4.45703 192.846C4.7806 192.472 5.01986 192.119 5.1748 191.786C5.33431 191.453 5.41406 191.091 5.41406 190.699C5.41406 190.216 5.27506 189.852 4.99707 189.605C4.71908 189.355 4.35221 189.229 3.89648 189.229C3.46354 189.229 3.0625 189.316 2.69336 189.489C2.32878 189.658 1.95052 189.899 1.55859 190.214L0.676758 189.154C0.954753 188.917 1.25098 188.701 1.56543 188.505C1.88444 188.309 2.23991 188.154 2.63184 188.04C3.02376 187.922 3.47038 187.862 3.97168 187.862C4.60514 187.862 5.15202 187.976 5.6123 188.204C6.07259 188.427 6.42578 188.74 6.67187 189.141C6.92253 189.542 7.04785 190.009 7.04785 190.542C7.04785 191.08 6.94075 191.576 6.72656 192.032C6.51237 192.488 6.20703 192.939 5.81055 193.386C5.41406 193.828 4.94238 194.309 4.39551 194.828L2.66602 196.517V196.592H7.39648V198ZM13.043 190.289C13.9408 190.289 14.6608 190.617 15.2031 191.273C15.75 191.93 16.0234 192.905 16.0234 194.199C16.0234 195.056 15.8958 195.778 15.6406 196.366C15.39 196.95 15.0368 197.392 14.5811 197.692C14.1299 197.989 13.6035 198.137 13.002 198.137C12.6191 198.137 12.2865 198.087 12.0039 197.986C11.7214 197.886 11.4798 197.756 11.2793 197.597C11.0788 197.433 10.9102 197.255 10.7734 197.063H10.6777C10.7005 197.246 10.721 197.449 10.7393 197.672C10.762 197.891 10.7734 198.091 10.7734 198.273L10.7734 201.356H9.16016L9.16016 190.433H10.4727L10.6982 191.479H10.7734C10.9147 191.264 11.0856 191.066 11.2861 190.884C11.4912 190.701 11.7373 190.558 12.0244 190.453C12.3161 190.344 12.6556 190.289 13.043 190.289ZM12.6123 191.602C12.1702 191.602 11.8148 191.69 11.5459 191.868C11.2816 192.041 11.0879 192.303 10.9648 192.654C10.8464 193.005 10.7826 193.445 10.7734 193.974V194.199C10.7734 194.76 10.8304 195.236 10.9443 195.628C11.0628 196.015 11.2565 196.312 11.5254 196.517C11.7988 196.717 12.168 196.817 12.6328 196.817C13.0247 196.817 13.3483 196.71 13.6035 196.496C13.8633 196.282 14.057 195.977 14.1846 195.58C14.3122 195.184 14.376 194.716 14.376 194.179C14.376 193.363 14.2301 192.729 13.9385 192.278C13.6514 191.827 13.2093 191.602 12.6123 191.602Z" fill="#474F50"/>
<path d="M361.37 106.929L262.491 152.022L264.121 161.801L363 115.621L361.37 106.929Z" fill="#53988E" fill-opacity="0.5"/>
<path d="M263.035 152.565L226.329 130.833L227.178 138.982L264.121 161.801L263.035 152.565Z" fill="#DB8C47" fill-opacity="0.5"/>
<path d="M319.537 89L226.091 130.833L262.491 152.022L361.37 106.929L319.537 89Z" fill="#2A3845"/>
<path d="M226.091 130.635L319.483 89L361.533 106.774M226.091 130.635L227.313 138.914L263.985 161.801M226.091 130.635L262.763 152.062M361.533 106.774L363 115.783L263.985 161.801M361.533 106.774L262.763 152.062M263.985 161.801L262.763 152.062" stroke="black"/>
<path d="M216.312 135.723L112 181.902L137.535 211.783L251.082 157.998L216.312 135.723Z" fill="#2A3845"/>
<path d="M251.626 158.541L137.535 211.783L140.251 221.563L254.342 167.777L251.626 158.541Z" fill="#53988E" fill-opacity="0.5"/>
<path d="M137.534 211.783L112.231 182.134L113.63 190.595L140.251 221.563L137.534 211.783Z" fill="#DB8C47" fill-opacity="0.5"/>
<path d="M112 181.831L216.368 135.723L251.402 158.286M112 181.831L113.47 190.17L140.419 221.562M112 181.831L137.724 211.997M251.402 158.286L254.342 167.851L140.419 221.562M251.402 158.286L137.724 211.997M140.419 221.562L137.724 211.997" stroke="black"/>
<path d="M7.01367 345.289C7.01367 345.74 6.92253 346.132 6.74023 346.465C6.55794 346.798 6.30729 347.071 5.98828 347.285C5.67383 347.495 5.30924 347.645 4.89453 347.736V347.784C5.69206 347.884 6.29362 348.135 6.69922 348.536C7.10937 348.937 7.31445 349.468 7.31445 350.129C7.31445 350.708 7.17546 351.225 6.89746 351.681C6.61947 352.132 6.19336 352.487 5.61914 352.747C5.04492 353.007 4.30664 353.137 3.4043 353.137C2.86198 353.137 2.3584 353.093 1.89355 353.007C1.43327 352.92 0.995768 352.781 0.581055 352.59V351.161C1.00488 351.371 1.45605 351.533 1.93457 351.646C2.41309 351.76 2.86654 351.817 3.29492 351.817C4.12891 351.817 4.72363 351.662 5.0791 351.353C5.43457 351.038 5.6123 350.605 5.6123 350.054C5.6123 349.698 5.51888 349.407 5.33203 349.179C5.14974 348.951 4.86491 348.78 4.47754 348.666C4.09473 348.552 3.60026 348.495 2.99414 348.495H2.1123V347.203H3.00098C3.57975 347.203 4.0446 347.135 4.39551 346.998C4.74642 346.857 4.99935 346.663 5.1543 346.417C5.3138 346.171 5.39355 345.884 5.39355 345.556C5.39355 345.127 5.25456 344.795 4.97656 344.558C4.69857 344.316 4.28613 344.195 3.73926 344.195C3.40202 344.195 3.0944 344.234 2.81641 344.312C2.54297 344.389 2.29004 344.487 2.05762 344.605C1.8252 344.724 1.60417 344.852 1.39453 344.988L0.62207 343.874C1.00033 343.591 1.4515 343.352 1.97559 343.156C2.49967 342.96 3.11035 342.862 3.80762 342.862C4.83301 342.862 5.6237 343.083 6.17969 343.525C6.73568 343.963 7.01367 344.551 7.01367 345.289ZM13.043 345.289C13.9408 345.289 14.6608 345.617 15.2031 346.273C15.75 346.93 16.0234 347.905 16.0234 349.199C16.0234 350.056 15.8958 350.778 15.6406 351.366C15.39 351.95 15.0368 352.392 14.5811 352.692C14.1299 352.989 13.6035 353.137 13.002 353.137C12.6191 353.137 12.2865 353.087 12.0039 352.986C11.7214 352.886 11.4798 352.756 11.2793 352.597C11.0788 352.433 10.9102 352.255 10.7734 352.063H10.6777C10.7005 352.246 10.721 352.449 10.7393 352.672C10.762 352.891 10.7734 353.091 10.7734 353.273L10.7734 356.356H9.16016L9.16016 345.433H10.4727L10.6982 346.479H10.7734C10.9147 346.264 11.0856 346.066 11.2861 345.884C11.4912 345.701 11.7373 345.558 12.0244 345.453C12.3161 345.344 12.6556 345.289 13.043 345.289ZM12.6123 346.602C12.1702 346.602 11.8148 346.69 11.5459 346.868C11.2816 347.041 11.0879 347.303 10.9648 347.654C10.8464 348.005 10.7826 348.445 10.7734 348.974V349.199C10.7734 349.76 10.8304 350.236 10.9443 350.628C11.0628 351.015 11.2565 351.312 11.5254 351.517C11.7988 351.717 12.168 351.817 12.6328 351.817C13.0247 351.817 13.3483 351.71 13.6035 351.496C13.8633 351.282 14.057 350.977 14.1846 350.58C14.3122 350.184 14.376 349.716 14.376 349.179C14.376 348.363 14.2301 347.729 13.9385 347.278C13.6514 346.827 13.2093 346.602 12.6123 346.602Z" fill="#474F50"/>
<path d="M230.145 315.1L133.778 360.833L135.956 369L232.867 323.266L230.145 315.1Z" fill="#53988E" fill-opacity="0.5"/>
<path d="M133.778 360.833L112.544 336.333L113.089 342.322L135.956 368.455L133.778 360.833Z" fill="#DB8C47" fill-opacity="0.5"/>
<path d="M200.744 296.045L112 335.245L133.778 360.834L230.144 315.1L200.744 296.045Z" fill="#2A3845"/>
<path d="M406.27 232.345L331.681 267.734L331.956 275.356L407.089 239.423L406.27 232.345Z" fill="#53988E" fill-opacity="0.5"/>
<path d="M331.411 267.189L293.844 253.578V259.023L331.955 275.356L331.411 267.189Z" fill="#DB8C47" fill-opacity="0.5"/>
<path d="M364.622 222L293.844 253.578L331.411 267.189L406 232.344L364.622 222Z" fill="#2A3845"/>
<path d="M293.844 253.595L364.492 222L406.258 232.253M293.844 253.595L294.052 259.872L331.87 275.356M293.844 253.595L331.246 267.405M406.258 232.253L407.089 239.576L331.87 275.356M406.258 232.253L331.246 267.405M331.87 275.356L331.246 267.405" stroke="black"/>
<path d="M112 335.232L200.622 296.045L230.37 315.222M112 335.232L113.248 342.32L136.132 369M112 335.232L133.843 360.871M230.37 315.222L232.867 323.351L136.132 369M230.37 315.222L133.843 360.871M136.132 369L133.843 360.871" stroke="black"/>
<path d="M322.156 271L238.856 309.656L239.4 317.822L323.244 278.622L322.156 271Z" fill="#53988E" fill-opacity="0.5"/>
<path d="M238.856 309.656L207.822 291.145L208.911 298.222L239.944 317.822L238.856 309.656Z" fill="#DB8C47" fill-opacity="0.5"/>
<path d="M286.222 255.756L207.822 291.145L238.856 309.656L321.611 271L286.222 255.756Z" fill="#2A3845"/>
<path d="M207.822 291.252L286.557 255.756L322.008 270.909M207.822 291.252L208.853 298.31L239.769 317.823M207.822 291.252L238.739 309.519M322.008 270.909L323.244 278.59L239.769 317.823M322.008 270.909L238.739 309.519M239.769 317.823L238.739 309.519" stroke="black"/>
<path d="M7.75879 489.806H6.40527V492H4.81934V489.806H0.273437L0.273437 488.589L4.83984 481.979H6.40527L6.40527 488.473H7.75879V489.806ZM4.81934 488.473V485.991C4.81934 485.786 4.82161 485.579 4.82617 485.369C4.83529 485.155 4.8444 484.95 4.85352 484.754C4.86263 484.558 4.87174 484.378 4.88086 484.214C4.88997 484.045 4.89681 483.906 4.90137 483.797H4.84668C4.76009 483.979 4.66439 484.166 4.55957 484.357C4.45475 484.544 4.3431 484.727 4.22461 484.904L1.76367 488.473H4.81934ZM13.043 484.289C13.9408 484.289 14.6608 484.617 15.2031 485.273C15.75 485.93 16.0234 486.905 16.0234 488.199C16.0234 489.056 15.8958 489.778 15.6406 490.366C15.39 490.95 15.0368 491.392 14.5811 491.692C14.1299 491.989 13.6035 492.137 13.002 492.137C12.6191 492.137 12.2865 492.087 12.0039 491.986C11.7214 491.886 11.4798 491.756 11.2793 491.597C11.0788 491.433 10.9102 491.255 10.7734 491.063H10.6777C10.7005 491.246 10.721 491.449 10.7393 491.672C10.762 491.891 10.7734 492.091 10.7734 492.273L10.7734 495.356H9.16016L9.16016 484.433H10.4727L10.6982 485.479H10.7734C10.9147 485.264 11.0856 485.066 11.2861 484.884C11.4912 484.701 11.7373 484.558 12.0244 484.453C12.3161 484.344 12.6556 484.289 13.043 484.289ZM12.6123 485.602C12.1702 485.602 11.8148 485.69 11.5459 485.868C11.2816 486.041 11.0879 486.303 10.9648 486.654C10.8464 487.005 10.7826 487.445 10.7734 487.974V488.199C10.7734 488.76 10.8304 489.236 10.9443 489.628C11.0628 490.015 11.2565 490.312 11.5254 490.517C11.7988 490.717 12.168 490.817 12.6328 490.817C13.0247 490.817 13.3483 490.71 13.6035 490.496C13.8633 490.282 14.057 489.977 14.1846 489.58C14.3122 489.184 14.376 488.716 14.376 488.179C14.376 487.363 14.2301 486.729 13.9385 486.278C13.6514 485.827 13.2093 485.602 12.6123 485.602Z" fill="#474F50"/>
<path d="M220.5 462.5L132 504.5L134 512L223 470L220.5 462.5Z" fill="#53988E" fill-opacity="0.5"/>
<path d="M132 504.5L112.5 482L113 487.5L134 511.5L132 504.5Z" fill="#DB8C47" fill-opacity="0.5"/>
<path d="M193.5 445L112 481L132 504.5L220.5 462.5L193.5 445Z" fill="#2A3845"/>
<path d="M460.248 351.5L391.748 384L392 391L461 358L460.248 351.5Z" fill="#53988E" fill-opacity="0.5"/>
<path d="M391.5 383.5L354.5 374V379L392 391L391.5 383.5Z" fill="#DB8C47" fill-opacity="0.5"/>
<path d="M422 342L355 373.5L391.5 383.5L460 351.5L422 342Z" fill="#2A3845"/>
<path d="M354.5 373.5L421.881 342L460.237 351.416M354.5 373.5V379L391.921 391M354.5 373.5L391.349 383.698M460.237 351.416L461 358.141L391.921 391M460.237 351.416L391.349 383.698M391.921 391L391.349 383.698" stroke="black"/>
<path d="M112 480.989L193.387 445L220.707 462.611M112 480.989L113.146 487.497L134.162 512M112 480.989L132.06 504.534M220.707 462.611L223 470.077L134.162 512M220.707 462.611L132.06 504.534M134.162 512L132.06 504.534" stroke="black"/>
<path d="M305 422L228.5 457.5L229 465L306 429L305 422Z" fill="#53988E" fill-opacity="0.5"/>
<path d="M228.5 457.5L200 440.5L201 447L229.5 465L228.5 457.5Z" fill="#DB8C47" fill-opacity="0.5"/>
<path d="M272 408L200 440.5L228.5 457.5L304.5 422L272 408Z" fill="#2A3845"/>
<path d="M200 440.599L272.307 408L304.864 421.916M200 440.599L200.946 447.08L229.339 465M200 440.599L228.393 457.375M304.864 421.916L306 428.97L229.339 465M304.864 421.916L228.393 457.375M229.339 465L228.393 457.375" stroke="black"/>
<path d="M382.248 386.5L313.748 419L314 426L383 393L382.248 386.5Z" fill="#53988E" fill-opacity="0.5"/>
<path d="M313.5 418.5L279 406V411L314 426L313.5 418.5Z" fill="#DB8C47" fill-opacity="0.5"/>
<path d="M344 377L279 406L313.5 418.5L382 386.5L344 377Z" fill="#2A3845"/>
<path d="M279 406.016L343.881 377L382.237 386.416M279 406.016L279.191 411.78L313.921 426M279 406.016L313.349 418.698M382.237 386.416L383 393.141L313.921 426M382.237 386.416L313.349 418.698M313.921 426L313.349 418.698" stroke="black"/>
</svg>
