<svg width="419" height="573" viewBox="0 0 419 573" fill="none" xmlns="http://www.w3.org/2000/svg">
<path d="M5.35254 44H3.73926L3.73926 37.5674C3.73926 37.3532 3.74154 37.139 3.74609 36.9248C3.75065 36.7106 3.75521 36.501 3.75977 36.2959C3.76888 36.0908 3.78027 35.8949 3.79395 35.708C3.69824 35.8128 3.57975 35.9268 3.43848 36.0498C3.30176 36.1729 3.15592 36.3005 3.00098 36.4326L1.85254 37.3486L1.0459 36.3301L4.0127 34.0059H5.35254L5.35254 44ZM9.32422 44V34.0059H10.9648V42.6055H15.21V44H9.32422Z" fill="#474F50"/>
<path d="M7.39648 196H0.628906L0.628906 194.79L3.21973 192.165C3.72103 191.655 4.13346 191.215 4.45703 190.846C4.7806 190.472 5.01986 190.119 5.1748 189.786C5.33431 189.453 5.41406 189.091 5.41406 188.699C5.41406 188.216 5.27506 187.852 4.99707 187.605C4.71908 187.355 4.35221 187.229 3.89648 187.229C3.46354 187.229 3.0625 187.316 2.69336 187.489C2.32878 187.658 1.95052 187.899 1.55859 188.214L0.676758 187.154C0.954753 186.917 1.25098 186.701 1.56543 186.505C1.88444 186.309 2.23991 186.154 2.63184 186.04C3.02376 185.922 3.47038 185.862 3.97168 185.862C4.60514 185.862 5.15202 185.976 5.6123 186.204C6.07259 186.427 6.42578 186.74 6.67187 187.141C6.92253 187.542 7.04785 188.009 7.04785 188.542C7.04785 189.08 6.94075 189.576 6.72656 190.032C6.51237 190.488 6.20703 190.939 5.81055 191.386C5.41406 191.828 4.94238 192.309 4.39551 192.828L2.66602 194.517V194.592H7.39648V196ZM9.32422 196V186.006H10.9648V194.605H15.21V196H9.32422Z" fill="#474F50"/>
<path d="M7.01367 343.289C7.01367 343.74 6.92253 344.132 6.74023 344.465C6.55794 344.798 6.30729 345.071 5.98828 345.285C5.67383 345.495 5.30924 345.645 4.89453 345.736V345.784C5.69206 345.884 6.29362 346.135 6.69922 346.536C7.10937 346.937 7.31445 347.468 7.31445 348.129C7.31445 348.708 7.17546 349.225 6.89746 349.681C6.61947 350.132 6.19336 350.487 5.61914 350.747C5.04492 351.007 4.30664 351.137 3.4043 351.137C2.86198 351.137 2.3584 351.093 1.89355 351.007C1.43327 350.92 0.995768 350.781 0.581055 350.59V349.161C1.00488 349.371 1.45605 349.533 1.93457 349.646C2.41309 349.76 2.86654 349.817 3.29492 349.817C4.12891 349.817 4.72363 349.662 5.0791 349.353C5.43457 349.038 5.6123 348.605 5.6123 348.054C5.6123 347.698 5.51888 347.407 5.33203 347.179C5.14974 346.951 4.86491 346.78 4.47754 346.666C4.09473 346.552 3.60026 346.495 2.99414 346.495H2.1123V345.203H3.00098C3.57975 345.203 4.0446 345.135 4.39551 344.998C4.74642 344.857 4.99935 344.663 5.1543 344.417C5.3138 344.171 5.39355 343.884 5.39355 343.556C5.39355 343.127 5.25456 342.795 4.97656 342.558C4.69857 342.316 4.28613 342.195 3.73926 342.195C3.40202 342.195 3.0944 342.234 2.81641 342.312C2.54297 342.389 2.29004 342.487 2.05762 342.605C1.8252 342.724 1.60417 342.852 1.39453 342.988L0.62207 341.874C1.00033 341.591 1.4515 341.352 1.97559 341.156C2.49967 340.96 3.11035 340.862 3.80762 340.862C4.83301 340.862 5.6237 341.083 6.17969 341.525C6.73568 341.963 7.01367 342.551 7.01367 343.289ZM9.32422 351V341.006H10.9648V349.605H15.21V351H9.32422Z" fill="#474F50"/>
<path d="M7.75879 487.806H6.40527V490H4.81934V487.806H0.273437L0.273437 486.589L4.83984 479.979H6.40527L6.40527 486.473H7.75879V487.806ZM4.81934 486.473V483.991C4.81934 483.786 4.82161 483.579 4.82617 483.369C4.83529 483.155 4.8444 482.95 4.85352 482.754C4.86263 482.558 4.87174 482.378 4.88086 482.214C4.88997 482.045 4.89681 481.906 4.90137 481.797H4.84668C4.76009 481.979 4.66439 482.166 4.55957 482.357C4.45475 482.544 4.3431 482.727 4.22461 482.904L1.76367 486.473H4.81934ZM9.32422 490V480.006H10.9648V488.605H15.21V490H9.32422Z" fill="#474F50"/>
<path d="M155.362 87.6226L105 21.3965V26.9363L155.362 95.1769V87.6226Z" fill="#53988E" fill-opacity="0.5"/>
<path d="M222.343 62.6934L155.362 87.6226V95.1769L222.847 70.4995L222.343 62.6934Z" fill="#DB8C47" fill-opacity="0.5"/>
<path d="M168.456 1L105 21.1448L155.362 87.6227L222.344 62.6935L168.456 1Z" fill="#2A3845"/>
<path d="M105 21.1448L168.456 1L222.344 62.6935M105 21.1448L155.362 87.6227M105 21.1448V26.9364L155.362 95.177M222.344 62.6935L222.847 70.4996L155.362 95.177M222.344 62.6935L155.362 87.6227M155.362 95.177V87.6227" stroke="black"/>
<path d="M155.362 239.775L105 173.549V179.089L155.362 247.329V239.775Z" fill="#53988E" fill-opacity="0.5"/>
<path d="M231.66 210.062L176.514 150.131V156.678L231.66 218.371V210.062Z" fill="#53988E" fill-opacity="0.5"/>
<path d="M222.343 214.846L155.362 239.775V247.329L222.847 222.652L222.343 214.846Z" fill="#DB8C47" fill-opacity="0.5"/>
<path d="M293.354 187.902L231.66 210.062V218.371L293.354 195.708V187.902Z" fill="#DB8C47" fill-opacity="0.5"/>
<path d="M168.456 153.152L105 173.297L155.362 239.775L222.344 214.846L168.456 153.152Z" fill="#2A3845"/>
<path d="M234.43 132L176.514 150.13L231.66 210.061L293.354 187.902L234.43 132Z" fill="#2A3845"/>
<path d="M176.514 150.13V156.677L231.66 218.371M176.514 150.13L231.66 210.061M176.514 150.13L234.43 132L293.354 187.902M231.66 218.371V210.061M231.66 218.371L293.354 195.708V187.902M231.66 210.061L293.354 187.902" stroke="black"/>
<path d="M105 173.297L168.456 153.152L222.344 214.846M105 173.297L155.362 239.775M105 173.297V179.089L155.362 247.329M222.344 214.846L222.847 222.652L155.362 247.329M222.344 214.846L155.362 239.775M155.362 247.329V239.775" stroke="black"/>
<path d="M155.362 401.164L105 334.938V340.477L155.362 408.718V401.164Z" fill="#53988E" fill-opacity="0.5"/>
<path d="M231.66 371.45L176.514 311.52V318.067L231.66 379.76V371.45Z" fill="#53988E" fill-opacity="0.5"/>
<path d="M301.916 345.262L241.985 290.871V297.67L301.916 353.824V345.262Z" fill="#53988E" fill-opacity="0.5"/>
<path d="M222.343 376.234L155.362 401.164V408.718L222.847 384.04L222.343 376.234Z" fill="#DB8C47" fill-opacity="0.5"/>
<path d="M293.354 349.291L231.66 371.45V379.76L293.354 357.097V349.291Z" fill="#DB8C47" fill-opacity="0.5"/>
<path d="M358.321 325.62L301.916 345.262V353.823L358.321 333.174V325.62Z" fill="#DB8C47" fill-opacity="0.5"/>
<path d="M168.456 314.541L105 334.686L155.362 401.164L222.344 376.234L168.456 314.541Z" fill="#2A3845"/>
<path d="M234.43 293.389L176.514 311.519L231.66 371.45L293.354 349.291L234.43 293.389Z" fill="#2A3845"/>
<path d="M295.117 274L241.985 290.871L301.916 345.262L358.321 325.621L295.117 274Z" fill="#2A3845"/>
<path d="M241.985 290.871V297.67L301.916 353.824M241.985 290.871L301.916 345.262M241.985 290.871L295.117 274L358.321 325.621M301.916 353.824V345.262M301.916 353.824L358.321 333.175V325.621M301.916 345.262L358.321 325.621" stroke="black"/>
<path d="M176.514 311.519V318.066L231.66 379.76M176.514 311.519L231.66 371.45M176.514 311.519L234.43 293.389L293.354 349.291M231.66 379.76V371.45M231.66 379.76L293.354 357.097V349.291M231.66 371.45L293.354 349.291" stroke="black"/>
<path d="M105 334.686L168.456 314.541L222.344 376.234M105 334.686L155.362 401.164M105 334.686V340.477L155.362 408.718M222.344 376.234L222.847 384.041L155.362 408.718M222.344 376.234L155.362 401.164M155.362 408.718V401.164" stroke="black"/>
<path d="M155.362 564.791L105 498.564V504.104L155.362 572.345V564.791Z" fill="#53988E" fill-opacity="0.5"/>
<path d="M231.66 535.077L176.514 475.146V481.694L231.66 543.387V535.077Z" fill="#53988E" fill-opacity="0.5"/>
<path d="M301.916 508.889L241.985 454.498V461.297L301.916 517.451V508.889Z" fill="#53988E" fill-opacity="0.5"/>
<path d="M366.128 485.722L302.671 435.108V442.411L366.128 493.528V485.722Z" fill="#53988E" fill-opacity="0.5"/>
<path d="M222.343 539.861L155.362 564.791V572.345L222.847 547.667L222.343 539.861Z" fill="#DB8C47" fill-opacity="0.5"/>
<path d="M293.354 512.918L231.66 535.077V543.387L293.354 520.724V512.918Z" fill="#DB8C47" fill-opacity="0.5"/>
<path d="M358.321 489.247L301.916 508.889V517.45L358.321 496.801V489.247Z" fill="#DB8C47" fill-opacity="0.5"/>
<path d="M418 467.844L366.127 485.722V493.528L418 474.894V467.844Z" fill="#DB8C47" fill-opacity="0.5"/>
<path d="M168.456 478.168L105 498.313L155.362 564.791L222.344 539.861L168.456 478.168Z" fill="#2A3845"/>
<path d="M234.43 457.017L176.514 475.147L231.66 535.078L293.354 512.918L234.43 457.017Z" fill="#2A3845"/>
<path d="M295.117 437.627L241.985 454.498L301.916 508.889L358.321 489.248L295.117 437.627Z" fill="#2A3845"/>
<path d="M351.019 420L302.671 435.109L366.128 485.722L417.749 467.844L351.019 420Z" fill="#2A3845"/>
<path d="M302.671 435.109V442.526L366.128 493.529M302.671 435.109L366.128 485.722M302.671 435.109L351.019 420L418 467.844M366.128 493.529V485.722M366.128 493.529L418 474.895V467.844M366.128 485.722L418 467.844" stroke="black"/>
<path d="M241.985 454.498V461.297L301.916 517.451M241.985 454.498L301.916 508.889M241.985 454.498L295.117 437.627L358.321 489.248M301.916 517.451V508.889M301.916 517.451L358.321 496.802V489.248M301.916 508.889L358.321 489.248" stroke="black"/>
<path d="M176.514 475.147V481.694L231.66 543.387M176.514 475.147L231.66 535.078M176.514 475.147L234.43 457.017L293.354 512.918M231.66 543.387V535.078M231.66 543.387L293.354 520.725V512.918M231.66 535.078L293.354 512.918" stroke="black"/>
<path d="M105 498.313L168.456 478.168L222.344 539.861M105 498.313L155.362 564.791M105 498.313V504.104L155.362 572.345M222.344 539.861L222.847 547.668L155.362 572.345M222.344 539.861L155.362 564.791M155.362 572.345V564.791" stroke="black"/>
</svg>
