<svg width="586" height="482" viewBox="0 0 586 482" fill="none" xmlns="http://www.w3.org/2000/svg">
<path d="M219.303 6.763V26.9335L215.701 19.0094L216.061 1L219.303 6.763Z" fill="#DB8C47" fill-opacity="0.5"/>
<path d="M231.909 1L232.629 19.3696L228.667 27.6539V3.8815L231.909 1Z" fill="#DB8C47" fill-opacity="0.5"/>
<path d="M215.701 19.0088L99 38.8191L100.801 49.2645L219.303 27.2931L215.701 19.0088Z" fill="#53988E" fill-opacity="0.5"/>
<path d="M348.97 39.1795L232.63 19.3691L228.667 28.0136L346.809 48.9045L348.97 39.1795Z" fill="#53988E" fill-opacity="0.5"/>
<path d="M215.701 1L106.924 20.4501L99 38.8197L215.701 19.0094V1Z" fill="#2A3845"/>
<path d="M341.046 20.4501L231.909 1L232.63 19.3696L348.97 39.1799L341.046 20.4501Z" fill="#2A3845"/>
<path d="M216.061 1L106.564 20.4501L99 38.8197M216.061 1L215.701 19.0094M216.061 1L219.303 6.763V27.2937M215.701 19.0094L99 38.8197M215.701 19.0094L219.303 27.2937M99 38.8197L100.801 49.2651L219.303 27.2937" stroke="black"/>
<path d="M232.63 19.3696L228.667 28.0141M232.63 19.3696L231.909 1M232.63 19.3696L348.97 39.1799M228.667 28.0141V3.8815L231.909 1M228.667 28.0141L346.809 48.9049L348.97 39.1799M231.909 1L341.046 20.4501L348.97 39.1799" stroke="black"/>
<path d="M5.35254 31H3.73926L3.73926 24.5674C3.73926 24.3532 3.74154 24.139 3.74609 23.9248C3.75065 23.7106 3.75521 23.501 3.75977 23.2959C3.76888 23.0908 3.78027 22.8949 3.79395 22.708C3.69824 22.8128 3.57975 22.9268 3.43848 23.0498C3.30176 23.1729 3.15592 23.3005 3.00098 23.4326L1.85254 24.3486L1.0459 23.3301L4.0127 21.0059H5.35254L5.35254 31ZM13.043 23.2891C13.9408 23.2891 14.6608 23.6172 15.2031 24.2734C15.75 24.9297 16.0234 25.9049 16.0234 27.1992C16.0234 28.056 15.8958 28.7783 15.6406 29.3662C15.39 29.9495 15.0368 30.3916 14.5811 30.6924C14.1299 30.9886 13.6035 31.1367 13.002 31.1367C12.6191 31.1367 12.2865 31.0866 12.0039 30.9863C11.7214 30.8861 11.4798 30.7562 11.2793 30.5967C11.0788 30.4326 10.9102 30.2549 10.7734 30.0635H10.6777C10.7005 30.2458 10.721 30.4486 10.7393 30.6719C10.762 30.8906 10.7734 31.0911 10.7734 31.2734L10.7734 34.3564H9.16016L9.16016 23.4326H10.4727L10.6982 24.4785H10.7734C10.9147 24.2643 11.0856 24.0661 11.2861 23.8838C11.4912 23.7015 11.7373 23.5579 12.0244 23.4531C12.3161 23.3437 12.6556 23.2891 13.043 23.2891ZM12.6123 24.6016C12.1702 24.6016 11.8148 24.6904 11.5459 24.8682C11.2816 25.0413 11.0879 25.3034 10.9648 25.6543C10.8464 26.0052 10.7826 26.445 10.7734 26.9736V27.1992C10.7734 27.7598 10.8304 28.236 10.9443 28.6279C11.0628 29.0153 11.2565 29.3115 11.5254 29.5166C11.7988 29.7171 12.168 29.8174 12.6328 29.8174C13.0247 29.8174 13.3483 29.7103 13.6035 29.4961C13.8633 29.2819 14.057 28.9766 14.1846 28.5801C14.3122 28.1836 14.376 27.7165 14.376 27.1787C14.376 26.363 14.2301 25.7295 13.9385 25.2783C13.6514 24.8271 13.2093 24.6016 12.6123 24.6016ZM20.8633 27.9238V26.5635H24.3906V27.9238H20.8633ZM33.8721 31H32.2588V24.5674C32.2588 24.3532 32.2611 24.139 32.2656 23.9248C32.2702 23.7106 32.2747 23.501 32.2793 23.2959C32.2884 23.0908 32.2998 22.8949 32.3135 22.708C32.2178 22.8128 32.0993 22.9268 31.958 23.0498C31.8213 23.1729 31.6755 23.3005 31.5205 23.4326L30.3721 24.3486L29.5654 23.3301L32.5322 21.0059H33.8721V31ZM41.5625 23.2891C42.4603 23.2891 43.1803 23.6172 43.7227 24.2734C44.2695 24.9297 44.543 25.9049 44.543 27.1992C44.543 28.056 44.4154 28.7783 44.1602 29.3662C43.9095 29.9495 43.5563 30.3916 43.1006 30.6924C42.6494 30.9886 42.123 31.1367 41.5215 31.1367C41.1387 31.1367 40.806 31.0866 40.5234 30.9863C40.2409 30.8861 39.9993 30.7562 39.7988 30.5967C39.5983 30.4326 39.4297 30.2549 39.293 30.0635H39.1973C39.22 30.2458 39.2406 30.4486 39.2588 30.6719C39.2816 30.8906 39.293 31.0911 39.293 31.2734V34.3564H37.6797V23.4326H38.9922L39.2178 24.4785H39.293C39.4342 24.2643 39.6051 24.0661 39.8057 23.8838C40.0107 23.7015 40.2568 23.5579 40.5439 23.4531C40.8356 23.3437 41.1751 23.2891 41.5625 23.2891ZM41.1318 24.6016C40.6898 24.6016 40.3343 24.6904 40.0654 24.8682C39.8011 25.0413 39.6074 25.3034 39.4844 25.6543C39.3659 26.0052 39.3021 26.445 39.293 26.9736V27.1992C39.293 27.7598 39.3499 28.236 39.4639 28.6279C39.5824 29.0153 39.776 29.3115 40.0449 29.5166C40.3184 29.7171 40.6875 29.8174 41.1523 29.8174C41.5443 29.8174 41.8678 29.7103 42.123 29.4961C42.3828 29.2819 42.5765 28.9766 42.7041 28.5801C42.8317 28.1836 42.8955 27.7165 42.8955 27.1787C42.8955 26.363 42.7497 25.7295 42.458 25.2783C42.1709 24.8271 41.7288 24.6016 41.1318 24.6016Z" fill="#474F50"/>
<path d="M6.86816 178H0.583984L0.583984 176.876L2.98975 174.439C3.45524 173.965 3.83822 173.557 4.13867 173.214C4.43913 172.867 4.6613 172.539 4.80518 172.23C4.95329 171.921 5.02734 171.585 5.02734 171.221C5.02734 170.772 4.89827 170.434 4.64014 170.205C4.382 169.972 4.04134 169.856 3.61816 169.856C3.21615 169.856 2.84375 169.936 2.50098 170.097C2.16243 170.254 1.8112 170.478 1.44727 170.77L0.628418 169.786C0.886556 169.566 1.16162 169.365 1.45361 169.183C1.74984 169.001 2.07992 168.857 2.44385 168.751C2.80778 168.641 3.22249 168.586 3.68799 168.586C4.2762 168.586 4.78402 168.692 5.21143 168.904C5.63883 169.111 5.9668 169.401 6.19531 169.773C6.42806 170.146 6.54443 170.58 6.54443 171.075C6.54443 171.574 6.44499 172.035 6.24609 172.458C6.0472 172.882 5.76367 173.301 5.39551 173.715C5.02734 174.126 4.58936 174.572 4.08154 175.055L2.47559 176.623V176.692H6.86816V178ZM12.1113 170.84C12.945 170.84 13.6136 171.145 14.1172 171.754C14.625 172.363 14.8789 173.269 14.8789 174.471C14.8789 175.266 14.7604 175.937 14.5234 176.483C14.2907 177.025 13.9627 177.435 13.5395 177.714C13.1206 177.989 12.6318 178.127 12.0732 178.127C11.7178 178.127 11.4089 178.08 11.1465 177.987C10.8841 177.894 10.6598 177.774 10.4736 177.625C10.2874 177.473 10.1309 177.308 10.0039 177.13H9.91504C9.9362 177.3 9.95524 177.488 9.97217 177.695C9.99333 177.898 10.0039 178.085 10.0039 178.254L10.0039 181.117H8.50586L8.50586 170.973H9.72461L9.93408 171.944H10.0039C10.1351 171.745 10.2938 171.561 10.48 171.392C10.6704 171.223 10.8989 171.09 11.1655 170.992C11.4364 170.891 11.7516 170.84 12.1113 170.84ZM11.7114 172.059C11.3009 172.059 10.9709 172.141 10.7212 172.306C10.4757 172.467 10.2959 172.71 10.1816 173.036C10.0716 173.362 10.0124 173.77 10.0039 174.261V174.471C10.0039 174.991 10.0568 175.433 10.1626 175.797C10.2726 176.157 10.4525 176.432 10.7021 176.623C10.9561 176.809 11.2988 176.902 11.7305 176.902C12.0944 176.902 12.3949 176.802 12.6318 176.604C12.873 176.405 13.0529 176.121 13.1714 175.753C13.2899 175.385 13.3491 174.951 13.3491 174.452C13.3491 173.694 13.2137 173.106 12.9429 172.687C12.6763 172.268 12.2658 172.059 11.7114 172.059ZM19.373 175.144V173.88H22.6484V175.144H19.373ZM33.3506 178H27.0664V176.876L29.4722 174.439C29.9377 173.965 30.3206 173.557 30.6211 173.214C30.9215 172.867 31.1437 172.539 31.2876 172.23C31.4357 171.921 31.5098 171.585 31.5098 171.221C31.5098 170.772 31.3807 170.434 31.1226 170.205C30.8644 169.972 30.5238 169.856 30.1006 169.856C29.6986 169.856 29.3262 169.936 28.9834 170.097C28.6449 170.254 28.2936 170.478 27.9297 170.77L27.1108 169.786C27.369 169.566 27.644 169.365 27.936 169.183C28.2323 169.001 28.5623 168.857 28.9263 168.751C29.2902 168.641 29.7049 168.586 30.1704 168.586C30.7586 168.586 31.2664 168.692 31.6938 168.904C32.1213 169.111 32.4492 169.401 32.6777 169.773C32.9105 170.146 33.0269 170.58 33.0269 171.075C33.0269 171.574 32.9274 172.035 32.7285 172.458C32.5296 172.882 32.2461 173.301 31.8779 173.715C31.5098 174.126 31.0718 174.572 30.564 175.055L28.958 176.623V176.692H33.3506V178ZM38.5937 170.84C39.4274 170.84 40.096 171.145 40.5996 171.754C41.1074 172.363 41.3613 173.269 41.3613 174.471C41.3613 175.266 41.2428 175.937 41.0059 176.483C40.7731 177.025 40.4451 177.435 40.022 177.714C39.603 177.989 39.1143 178.127 38.5557 178.127C38.2002 178.127 37.8913 178.08 37.6289 177.987C37.3665 177.894 37.1423 177.774 36.9561 177.625C36.7699 177.473 36.6133 177.308 36.4863 177.13H36.3975C36.4186 177.3 36.4377 177.488 36.4546 177.695C36.4757 177.898 36.4863 178.085 36.4863 178.254V181.117H34.9883V170.973H36.207L36.4165 171.944H36.4863C36.6175 171.745 36.7762 171.561 36.9624 171.392C37.1528 171.223 37.3813 171.09 37.6479 170.992C37.9188 170.891 38.234 170.84 38.5937 170.84ZM38.1938 172.059C37.7834 172.059 37.4533 172.141 37.2036 172.306C36.9582 172.467 36.7783 172.71 36.6641 173.036C36.554 173.362 36.4948 173.77 36.4863 174.261V174.471C36.4863 174.991 36.5392 175.433 36.645 175.797C36.755 176.157 36.9349 176.432 37.1846 176.623C37.4385 176.809 37.7812 176.902 38.2129 176.902C38.5768 176.902 38.8773 176.802 39.1143 176.604C39.3555 176.405 39.5353 176.121 39.6538 175.753C39.7723 175.385 39.8315 174.951 39.8315 174.452C39.8315 173.694 39.6961 173.106 39.4253 172.687C39.1587 172.268 38.7482 172.059 38.1938 172.059Z" fill="#474F50"/>
<path d="M175.075 170.205L169.44 181.909L168.139 176.057L173.558 164.354L175.075 170.205Z" fill="#DB8C47" fill-opacity="0.5"/>
<path d="M247.682 155.468V167.605L245.515 162.837L245.732 152L247.682 155.468Z" fill="#DB8C47" fill-opacity="0.5"/>
<path d="M255.268 152L255.701 163.054L253.317 168.039V153.734L255.268 152Z" fill="#DB8C47" fill-opacity="0.5"/>
<path d="M327.442 165.005L332.86 176.059L330.91 181.477L325.491 169.556L327.442 165.005Z" fill="#DB8C47" fill-opacity="0.5"/>
<path d="M402 188.628L332.86 176.058L330.91 181.476L400.916 193.83L402 188.628Z" fill="#53988E" fill-opacity="0.5"/>
<path d="M392.897 176.059L327.659 165.005L332.86 176.059L401.783 188.413L392.897 176.059Z" fill="#2A3845"/>
<path d="M327.442 164.787L325.492 169.555L330.91 181.476M327.442 164.787L332.861 176.057M327.442 164.787L392.897 176.057L402 188.628M332.861 176.057L330.91 181.476M332.861 176.057L402 188.628M330.91 181.476L400.917 193.83L402 188.628" stroke="black"/>
<path d="M245.515 162.837L175.292 174.758L176.375 181.043L247.682 167.822L245.515 162.837Z" fill="#53988E" fill-opacity="0.5"/>
<path d="M325.708 174.974L255.702 163.054L253.318 168.255L324.408 180.826L325.708 174.974Z" fill="#53988E" fill-opacity="0.5"/>
<path d="M245.515 152L180.06 163.704L175.292 174.758L245.515 162.837V152Z" fill="#2A3845"/>
<path d="M320.94 163.704L255.268 152L255.702 163.054L325.708 174.974L320.94 163.704Z" fill="#2A3845"/>
<path d="M245.731 152L179.843 163.704L175.292 174.758M245.731 152L245.515 162.837M245.731 152L247.682 155.468V167.822M245.515 162.837L175.292 174.758M245.515 162.837L247.682 167.822M175.292 174.758L176.375 181.043L247.682 167.822" stroke="black"/>
<path d="M255.702 163.054L253.318 168.255M255.702 163.054L255.268 152M255.702 163.054L325.708 174.974M253.318 168.255V153.734L255.268 152M253.318 168.255L324.408 180.826L325.708 174.974M255.268 152L320.94 163.704L325.708 174.974" stroke="black"/>
<path d="M168.139 176.058L99 188.195L100.084 194.047L169.44 182.126L168.139 176.058Z" fill="#53988E" fill-opacity="0.5"/>
<path d="M173.558 164.138L108.536 176.058L99.4331 187.979L168.139 176.058L173.558 164.138Z" fill="#2A3845"/>
<path d="M173.558 164.138L175.075 170.206L169.44 182.127M173.558 164.138L168.139 176.058M173.558 164.138L108.536 176.058L99 188.196M169.44 182.127L168.139 176.058M169.44 182.127L100.084 194.048L99 188.196M168.139 176.058L99 188.196" stroke="black"/>
<path d="M6.51269 312.84C6.51269 313.259 6.42806 313.623 6.25879 313.932C6.08952 314.241 5.85677 314.494 5.56055 314.693C5.26855 314.888 4.93001 315.028 4.54492 315.112V315.157C5.28548 315.25 5.84408 315.483 6.2207 315.855C6.60156 316.227 6.79199 316.72 6.79199 317.334C6.79199 317.871 6.66292 318.352 6.40478 318.775C6.14665 319.194 5.75098 319.524 5.21777 319.765C4.68457 320.006 3.99902 320.127 3.16113 320.127C2.65755 320.127 2.18994 320.087 1.7583 320.006C1.33089 319.926 0.924642 319.797 0.539551 319.619L0.539551 318.292C0.933105 318.487 1.35205 318.637 1.79639 318.743C2.24072 318.849 2.66178 318.902 3.05957 318.902C3.83398 318.902 4.38623 318.758 4.71631 318.47C5.04639 318.178 5.21143 317.776 5.21143 317.264C5.21143 316.934 5.12467 316.663 4.95117 316.452C4.7819 316.24 4.51742 316.081 4.15771 315.976C3.80225 315.87 3.3431 315.817 2.78027 315.817H1.96143V314.617H2.78662C3.32406 314.617 3.7557 314.554 4.08154 314.427C4.40739 314.296 4.64225 314.116 4.78613 313.887C4.93424 313.659 5.0083 313.392 5.0083 313.087C5.0083 312.69 4.87923 312.381 4.62109 312.161C4.36296 311.936 3.97998 311.824 3.47217 311.824C3.15902 311.824 2.87337 311.86 2.61523 311.932C2.36133 312.004 2.12646 312.095 1.91064 312.205C1.69482 312.315 1.48958 312.434 1.29492 312.561L0.577637 311.526C0.928874 311.264 1.34782 311.041 1.83447 310.859C2.32113 310.677 2.88818 310.586 3.53564 310.586C4.48779 310.586 5.222 310.792 5.73828 311.202C6.25456 311.608 6.51269 312.154 6.51269 312.84ZM12.1113 312.84C12.945 312.84 13.6136 313.145 14.1172 313.754C14.625 314.363 14.8789 315.269 14.8789 316.471C14.8789 317.266 14.7604 317.937 14.5234 318.483C14.2907 319.025 13.9627 319.435 13.5395 319.714C13.1206 319.989 12.6318 320.127 12.0732 320.127C11.7178 320.127 11.4089 320.08 11.1465 319.987C10.8841 319.894 10.6598 319.774 10.4736 319.625C10.2874 319.473 10.1309 319.308 10.0039 319.13H9.91504C9.9362 319.3 9.95524 319.488 9.97217 319.695C9.99333 319.898 10.0039 320.085 10.0039 320.254L10.0039 323.117H8.50586L8.50586 312.973H9.72461L9.93408 313.944H10.0039C10.1351 313.745 10.2938 313.561 10.48 313.392C10.6704 313.223 10.8989 313.09 11.1655 312.992C11.4364 312.891 11.7516 312.84 12.1113 312.84ZM11.7114 314.059C11.3009 314.059 10.9709 314.141 10.7212 314.306C10.4757 314.467 10.2959 314.71 10.1816 315.036C10.0716 315.362 10.0124 315.77 10.0039 316.261V316.471C10.0039 316.991 10.0568 317.433 10.1626 317.797C10.2726 318.157 10.4525 318.432 10.7021 318.623C10.9561 318.809 11.2988 318.902 11.7305 318.902C12.0944 318.902 12.3949 318.802 12.6318 318.604C12.873 318.405 13.0529 318.121 13.1714 317.753C13.2899 317.385 13.3491 316.951 13.3491 316.452C13.3491 315.694 13.2137 315.106 12.9429 314.687C12.6763 314.268 12.2658 314.059 11.7114 314.059ZM19.373 317.144V315.88H22.6484V317.144H19.373ZM32.9951 312.84C32.9951 313.259 32.9105 313.623 32.7412 313.932C32.5719 314.241 32.3392 314.494 32.043 314.693C31.751 314.888 31.4124 315.028 31.0273 315.112V315.157C31.7679 315.25 32.3265 315.483 32.7031 315.855C33.084 316.227 33.2744 316.72 33.2744 317.334C33.2744 317.871 33.1453 318.352 32.8872 318.775C32.6291 319.194 32.2334 319.524 31.7002 319.765C31.167 320.006 30.4814 320.127 29.6436 320.127C29.14 320.127 28.6724 320.087 28.2407 320.006C27.8133 319.926 27.4071 319.797 27.022 319.619V318.292C27.4155 318.487 27.8345 318.637 28.2788 318.743C28.7231 318.849 29.1442 318.902 29.542 318.902C30.3164 318.902 30.8687 318.758 31.1987 318.47C31.5288 318.178 31.6938 317.776 31.6938 317.264C31.6938 316.934 31.6071 316.663 31.4336 316.452C31.2643 316.24 30.9998 316.081 30.6401 315.976C30.2847 315.87 29.8255 315.817 29.2627 315.817H28.4438V314.617H29.269C29.8065 314.617 30.2381 314.554 30.564 314.427C30.8898 314.296 31.1247 314.116 31.2686 313.887C31.4167 313.659 31.4907 313.392 31.4907 313.087C31.4907 312.69 31.3617 312.381 31.1035 312.161C30.8454 311.936 30.4624 311.824 29.9546 311.824C29.6414 311.824 29.3558 311.86 29.0977 311.932C28.8437 312.004 28.6089 312.095 28.3931 312.205C28.1772 312.315 27.972 312.434 27.7773 312.561L27.0601 311.526C27.4113 311.264 27.8302 311.041 28.3169 310.859C28.8035 310.677 29.3706 310.586 30.0181 310.586C30.9702 310.586 31.7044 310.792 32.2207 311.202C32.737 311.608 32.9951 312.154 32.9951 312.84ZM38.5937 312.84C39.4274 312.84 40.096 313.145 40.5996 313.754C41.1074 314.363 41.3613 315.269 41.3613 316.471C41.3613 317.266 41.2428 317.937 41.0059 318.483C40.7731 319.025 40.4451 319.435 40.022 319.714C39.603 319.989 39.1143 320.127 38.5557 320.127C38.2002 320.127 37.8913 320.08 37.6289 319.987C37.3665 319.894 37.1423 319.774 36.9561 319.625C36.7699 319.473 36.6133 319.308 36.4863 319.13H36.3975C36.4186 319.3 36.4377 319.488 36.4546 319.695C36.4757 319.898 36.4863 320.085 36.4863 320.254V323.117H34.9883V312.973H36.207L36.4165 313.944H36.4863C36.6175 313.745 36.7762 313.561 36.9624 313.392C37.1528 313.223 37.3813 313.09 37.6479 312.992C37.9188 312.891 38.234 312.84 38.5937 312.84ZM38.1938 314.059C37.7834 314.059 37.4533 314.141 37.2036 314.306C36.9582 314.467 36.7783 314.71 36.6641 315.036C36.554 315.362 36.4948 315.77 36.4863 316.261V316.471C36.4863 316.991 36.5392 317.433 36.645 317.797C36.755 318.157 36.9349 318.432 37.1846 318.623C37.4385 318.809 37.7812 318.902 38.2129 318.902C38.5768 318.902 38.8773 318.802 39.1143 318.604C39.3555 318.405 39.5353 318.121 39.6538 317.753C39.7723 317.385 39.8315 316.951 39.8315 316.452C39.8315 315.694 39.6961 315.106 39.4253 314.687C39.1587 314.268 38.7482 314.059 38.1938 314.059Z" fill="#474F50"/>
<path d="M180.073 318.54L169.966 331.722L168.209 326.23L178.535 313.926L180.073 318.54Z" fill="#DB8C47" fill-opacity="0.5"/>
<path d="M252.138 306.457L246.425 318.321L245.107 312.389L250.6 300.524L252.138 306.457Z" fill="#DB8C47" fill-opacity="0.5"/>
<path d="M325.74 291.515V303.819L323.543 298.986L323.763 288L325.74 291.515Z" fill="#DB8C47" fill-opacity="0.5"/>
<path d="M333.43 288L333.87 299.205L331.453 304.259V289.758L333.43 288Z" fill="#DB8C47" fill-opacity="0.5"/>
<path d="M406.595 301.184L412.088 312.389L410.11 317.882L404.617 305.798L406.595 301.184Z" fill="#DB8C47" fill-opacity="0.5"/>
<path d="M478.879 313.705L489.205 325.789L487.008 331.721L476.901 317.88L478.879 313.705Z" fill="#DB8C47" fill-opacity="0.5"/>
<path d="M482.174 325.131L412.087 312.388L410.109 317.88L481.076 330.404L482.174 325.131Z" fill="#53988E" fill-opacity="0.5"/>
<path d="M472.946 312.389L406.813 301.184L412.087 312.389L481.954 324.912L472.946 312.389Z" fill="#2A3845"/>
<path d="M406.594 300.963L404.616 305.797L410.109 317.881M406.594 300.963L412.087 312.388M406.594 300.963L472.946 312.388L482.174 325.131M412.087 312.388L410.109 317.881M412.087 312.388L482.174 325.131M410.109 317.881L481.076 330.404L482.174 325.131" stroke="black"/>
<path d="M323.544 298.985L252.358 311.069L253.456 317.441L325.741 304.039L323.544 298.985Z" fill="#53988E" fill-opacity="0.5"/>
<path d="M404.836 311.289L333.87 299.205L331.453 304.478L403.518 317.221L404.836 311.289Z" fill="#53988E" fill-opacity="0.5"/>
<path d="M323.544 288L257.192 299.864L252.358 311.07L323.544 298.986V288Z" fill="#2A3845"/>
<path d="M400.003 299.864L333.431 288L333.871 299.205L404.837 311.289L400.003 299.864Z" fill="#2A3845"/>
<path d="M323.764 288L256.972 299.864L252.358 311.07M323.764 288L323.544 298.986M323.764 288L325.741 291.515V304.039M323.544 298.986L252.358 311.07M323.544 298.986L325.741 304.039M252.358 311.07L253.457 317.441L325.741 304.039" stroke="black"/>
<path d="M544.572 325.13L479.099 313.705L489.205 325.789L557.535 337.873L544.572 325.13Z" fill="#2A3845"/>
<path d="M333.87 299.205L331.453 304.478M333.87 299.205L333.43 288M333.87 299.205L404.836 311.289M331.453 304.478V289.758L333.43 288M331.453 304.478L403.518 317.221L404.836 311.289M333.43 288L400.002 299.864L404.836 311.289" stroke="black"/>
<path d="M178.535 313.926L113.281 324.911L99 338.753L168.209 326.23L178.535 313.926Z" fill="#2A3845"/>
<path d="M168.209 326.23L99 338.754L100.538 343.807L169.966 331.723L168.209 326.23Z" fill="#53988E" fill-opacity="0.5"/>
<path d="M178.535 313.926L180.073 318.54L169.966 331.722M178.535 313.926L168.209 326.23M178.535 313.926L113.281 324.911L99 338.753M169.966 331.722L168.209 326.23M169.966 331.722L100.538 343.806L99 338.753M168.209 326.23L99 338.753" stroke="black"/>
<path d="M557.755 337.874L489.205 325.79L487.008 331.722L556.217 343.587L557.755 337.874Z" fill="#53988E" fill-opacity="0.5"/>
<path d="M478.878 313.705L476.901 317.66L487.008 331.721M478.878 313.705L489.205 325.789M478.878 313.705L544.572 325.13L557.754 337.873M487.008 331.721L489.205 325.789M487.008 331.721L556.216 343.586L557.754 337.873M489.205 325.789L557.754 337.873" stroke="black"/>
<path d="M245.107 312.388L175.019 324.691L176.118 330.624L246.425 318.54L245.107 312.388Z" fill="#53988E" fill-opacity="0.5"/>
<path d="M250.599 300.304L184.686 312.388L175.458 324.472L245.107 312.388L250.599 300.304Z" fill="#2A3845"/>
<path d="M250.6 300.304L252.138 306.456L246.425 318.54M250.6 300.304L245.107 312.388M250.6 300.304L184.687 312.388L175.02 324.692M246.425 318.54L245.107 312.388M246.425 318.54L176.118 330.624L175.02 324.692M245.107 312.388L175.02 324.692" stroke="black"/>
<path d="M7.20459 455.962H5.94775V458H4.4751V455.962H0.253906L0.253906 454.833L4.49414 448.694H5.94775L5.94775 454.725H7.20459V455.962ZM4.4751 454.725V452.42C4.4751 452.23 4.47721 452.037 4.48145 451.843C4.48991 451.644 4.49837 451.453 4.50684 451.271C4.5153 451.09 4.52376 450.922 4.53223 450.77C4.54069 450.613 4.54704 450.484 4.55127 450.383H4.50049C4.42008 450.552 4.33122 450.726 4.23389 450.903C4.13656 451.077 4.03288 451.246 3.92285 451.411L1.6377 454.725H4.4751ZM12.1113 450.84C12.945 450.84 13.6136 451.145 14.1172 451.754C14.625 452.363 14.8789 453.269 14.8789 454.471C14.8789 455.266 14.7604 455.937 14.5234 456.483C14.2907 457.025 13.9627 457.435 13.5395 457.714C13.1206 457.989 12.6318 458.127 12.0732 458.127C11.7178 458.127 11.4089 458.08 11.1465 457.987C10.8841 457.894 10.6598 457.774 10.4736 457.625C10.2874 457.473 10.1309 457.308 10.0039 457.13H9.91504C9.9362 457.3 9.95524 457.488 9.97217 457.695C9.99333 457.898 10.0039 458.085 10.0039 458.254L10.0039 461.117H8.50586L8.50586 450.973H9.72461L9.93408 451.944H10.0039C10.1351 451.745 10.2938 451.561 10.48 451.392C10.6704 451.223 10.8989 451.09 11.1655 450.992C11.4364 450.891 11.7516 450.84 12.1113 450.84ZM11.7114 452.059C11.3009 452.059 10.9709 452.141 10.7212 452.306C10.4757 452.467 10.2959 452.71 10.1816 453.036C10.0716 453.362 10.0124 453.77 10.0039 454.261V454.471C10.0039 454.991 10.0568 455.433 10.1626 455.797C10.2726 456.157 10.4525 456.432 10.7021 456.623C10.9561 456.809 11.2988 456.902 11.7305 456.902C12.0944 456.902 12.3949 456.802 12.6318 456.604C12.873 456.405 13.0529 456.121 13.1714 455.753C13.2899 455.385 13.3491 454.951 13.3491 454.452C13.3491 453.694 13.2137 453.106 12.9429 452.687C12.6763 452.268 12.2658 452.059 11.7114 452.059ZM19.373 455.144V453.88H22.6484V455.144H19.373ZM33.687 455.962H32.4302V458H30.9575V455.962H26.7363V454.833L30.9766 448.694H32.4302V454.725H33.687V455.962ZM30.9575 454.725V452.42C30.9575 452.23 30.9596 452.037 30.9639 451.843C30.9723 451.644 30.9808 451.453 30.9893 451.271C30.9977 451.09 31.0062 450.922 31.0146 450.77C31.0231 450.613 31.0295 450.484 31.0337 450.383H30.9829C30.9025 450.552 30.8136 450.726 30.7163 450.903C30.619 451.077 30.5153 451.246 30.4053 451.411L28.1201 454.725H30.9575ZM38.5937 450.84C39.4274 450.84 40.096 451.145 40.5996 451.754C41.1074 452.363 41.3613 453.269 41.3613 454.471C41.3613 455.266 41.2428 455.937 41.0059 456.483C40.7731 457.025 40.4451 457.435 40.022 457.714C39.603 457.989 39.1143 458.127 38.5557 458.127C38.2002 458.127 37.8913 458.08 37.6289 457.987C37.3665 457.894 37.1423 457.774 36.9561 457.625C36.7699 457.473 36.6133 457.308 36.4863 457.13H36.3975C36.4186 457.3 36.4377 457.488 36.4546 457.695C36.4757 457.898 36.4863 458.085 36.4863 458.254V461.117H34.9883V450.973H36.207L36.4165 451.944H36.4863C36.6175 451.745 36.7762 451.561 36.9624 451.392C37.1528 451.223 37.3813 451.09 37.6479 450.992C37.9188 450.891 38.234 450.84 38.5937 450.84ZM38.1938 452.059C37.7834 452.059 37.4533 452.141 37.2036 452.306C36.9582 452.467 36.7783 452.71 36.6641 453.036C36.554 453.362 36.4948 453.77 36.4863 454.261V454.471C36.4863 454.991 36.5392 455.433 36.645 455.797C36.755 456.157 36.9349 456.432 37.1846 456.623C37.4385 456.809 37.7812 456.902 38.2129 456.902C38.5768 456.902 38.8773 456.802 39.1143 456.604C39.3555 456.405 39.5353 456.121 39.6538 455.753C39.7723 455.385 39.8315 454.951 39.8315 454.452C39.8315 453.694 39.6961 453.106 39.4253 452.687C39.1587 452.268 38.7482 452.059 38.1938 452.059Z" fill="#474F50"/>
<path d="M152.96 467.305L99 476.796L99.8788 480.839L154.718 471.699L152.96 467.305Z" fill="#53988E" fill-opacity="0.5"/>
<path d="M164.737 456.76L113.94 465.197L99.1758 476.797L152.96 467.306L164.737 456.76Z" fill="#2A3845"/>
<path d="M166.67 460.451L154.718 471.7L152.96 467.306L164.736 456.76L166.67 460.451Z" fill="#DB8C47" fill-opacity="0.5"/>
<path d="M223.618 450.431L215.533 460.977L214.127 456.583L222.388 446.74L223.618 450.431Z" fill="#DB8C47" fill-opacity="0.5"/>
<path d="M519.259 456.583L531.562 466.777L529.629 471.172L517.677 459.923L519.259 456.583Z" fill="#DB8C47" fill-opacity="0.5"/>
<path d="M281.27 440.763L276.7 450.255L275.645 445.509L280.039 436.018L281.27 440.763Z" fill="#DB8C47" fill-opacity="0.5"/>
<path d="M340.152 428.812V438.655L338.394 434.788L338.57 426L340.152 428.812Z" fill="#DB8C47" fill-opacity="0.5"/>
<path d="M346.304 426L346.655 434.964L344.722 439.007V427.406L346.304 426Z" fill="#DB8C47" fill-opacity="0.5"/>
<path d="M404.833 436.545L409.228 445.509L407.646 449.903L403.252 440.236L404.833 436.545Z" fill="#DB8C47" fill-opacity="0.5"/>
<path d="M462.661 446.564L470.922 456.232L469.164 460.977L461.079 449.904L462.661 446.564Z" fill="#DB8C47" fill-opacity="0.5"/>
<path d="M570.407 465.02L519.435 456.583L531.563 466.777L585.172 476.445L570.407 465.02Z" fill="#2A3845"/>
<path d="M585.345 476.445L531.561 466.778L529.803 471.172L584.115 480.664L585.345 476.445Z" fill="#53988E" fill-opacity="0.5"/>
<path d="M519.258 456.583L517.677 459.923L529.629 471.172M519.258 456.583L531.562 466.777M519.258 456.583L570.406 465.02L585.347 476.445M529.629 471.172L531.562 466.777M529.629 471.172L584.116 480.663L585.347 476.445M531.562 466.777L585.347 476.445" stroke="black"/>
<path d="M465.297 455.704L409.228 445.51L407.646 449.904L464.419 459.923L465.297 455.704Z" fill="#53988E" fill-opacity="0.5"/>
<path d="M457.915 445.509L405.009 436.545L409.228 445.509L465.121 455.528L457.915 445.509Z" fill="#2A3845"/>
<path d="M164.737 456.76L152.96 467.306M164.737 456.76L166.67 460.451L154.718 471.7M164.737 456.76L113.94 465.197L99 476.797M152.96 467.306L154.718 471.7M152.96 467.306L99 476.797M154.718 471.7L99.8788 480.84L99 476.797" stroke="black"/>
<path d="M404.834 436.371L403.252 440.238L407.646 449.905M404.834 436.371L409.228 445.511M404.834 436.371L457.915 445.511L465.297 455.705M409.228 445.511L407.646 449.905M409.228 445.511L465.297 455.705M407.646 449.905L464.418 459.924L465.297 455.705" stroke="black"/>
<path d="M338.395 434.788L281.446 444.455L282.325 449.552L340.152 438.831L338.395 434.788Z" fill="#53988E" fill-opacity="0.5"/>
<path d="M403.428 444.63L346.656 434.963L344.722 439.181L402.374 449.376L403.428 444.63Z" fill="#53988E" fill-opacity="0.5"/>
<path d="M338.395 426L285.313 435.491L281.446 444.455L338.395 434.788V426Z" fill="#2A3845"/>
<path d="M399.562 435.491L346.305 426L346.656 434.964L403.429 444.631L399.562 435.491Z" fill="#2A3845"/>
<path d="M338.57 426L285.137 435.491L281.446 444.455M338.57 426L338.395 434.788M338.57 426L340.152 428.812V438.831M338.395 434.788L281.446 444.455M338.395 434.788L340.152 438.831M281.446 444.455L282.325 449.553L340.152 438.831" stroke="black"/>
<path d="M515.215 455.704L462.837 446.564L470.922 456.232L525.585 465.899L515.215 455.704Z" fill="#2A3845"/>
<path d="M346.655 434.964L344.722 439.182M346.655 434.964L346.304 426M346.655 434.964L403.428 444.631M344.722 439.182V427.406L346.304 426M344.722 439.182L402.373 449.377L403.428 444.631M346.304 426L399.561 435.491L403.428 444.631" stroke="black"/>
<path d="M222.387 446.74L170.185 455.529L158.76 466.602L214.126 456.583L222.387 446.74Z" fill="#2A3845"/>
<path d="M214.126 456.583L158.76 466.602L159.99 470.644L215.532 460.977L214.126 456.583Z" fill="#53988E" fill-opacity="0.5"/>
<path d="M222.387 446.74L223.618 450.431L215.532 460.977M222.387 446.74L214.126 456.583M222.387 446.74L170.185 455.529L158.76 466.602M215.532 460.977L214.126 456.583M215.532 460.977L159.99 470.644L158.76 466.602M214.126 456.583L158.76 466.602" stroke="black"/>
<path d="M525.761 465.899L470.922 456.231L469.164 460.977L524.531 470.469L525.761 465.899Z" fill="#53988E" fill-opacity="0.5"/>
<path d="M462.661 446.564L461.079 449.728L469.164 460.977M462.661 446.564L470.922 456.232M462.661 446.564L515.215 455.704L525.761 465.899M469.164 460.977L470.922 456.232M469.164 460.977L524.531 470.469L525.761 465.899M470.922 456.232L525.761 465.899" stroke="black"/>
<path d="M275.646 445.51L219.577 455.353L220.455 460.098L276.701 450.431L275.646 445.51Z" fill="#53988E" fill-opacity="0.5"/>
<path d="M280.038 435.843L227.308 445.51L219.926 455.177L275.644 445.51L280.038 435.843Z" fill="#2A3845"/>
<path d="M280.04 435.843L281.27 440.764L276.701 450.431M280.04 435.843L275.646 445.51M280.04 435.843L227.31 445.51L219.576 455.353M276.701 450.431L275.646 445.51M276.701 450.431L220.455 460.099L219.576 455.353M275.646 445.51L219.576 455.353" stroke="black"/>
</svg>
