<svg width="586" height="441" viewBox="0 0 586 441" fill="none" xmlns="http://www.w3.org/2000/svg">
<path d="M5.35254 26H3.73926L3.73926 19.5674C3.73926 19.3532 3.74154 19.139 3.74609 18.9248C3.75065 18.7106 3.75521 18.501 3.75977 18.2959C3.76888 18.0908 3.78027 17.8949 3.79395 17.708C3.69824 17.8128 3.57975 17.9268 3.43848 18.0498C3.30176 18.1729 3.15592 18.3005 3.00098 18.4326L1.85254 19.3486L1.0459 18.3301L4.0127 16.0059H5.35254L5.35254 26ZM9.32422 26V16.0059H10.9648V24.6055H15.21V26H9.32422ZM19.7559 22.9238V21.5635H23.2832V22.9238H19.7559ZM32.7646 26H31.1514V19.5674C31.1514 19.3532 31.1536 19.139 31.1582 18.9248C31.1628 18.7106 31.1673 18.501 31.1719 18.2959C31.181 18.0908 31.1924 17.8949 31.2061 17.708C31.1103 17.8128 30.9919 17.9268 30.8506 18.0498C30.7139 18.1729 30.568 18.3005 30.4131 18.4326L29.2646 19.3486L28.458 18.3301L31.4248 16.0059H32.7646V26ZM36.7363 26V16.0059H38.377V24.6055H42.6221V26H36.7363Z" fill="#474F50"/>
<path d="M6.86816 162H0.583984L0.583984 160.876L2.98975 158.439C3.45524 157.965 3.83822 157.557 4.13867 157.214C4.43913 156.867 4.6613 156.539 4.80518 156.23C4.95329 155.921 5.02734 155.585 5.02734 155.221C5.02734 154.772 4.89827 154.434 4.64014 154.205C4.382 153.972 4.04134 153.856 3.61816 153.856C3.21615 153.856 2.84375 153.936 2.50098 154.097C2.16243 154.254 1.8112 154.478 1.44727 154.77L0.628418 153.786C0.886556 153.566 1.16162 153.365 1.45361 153.183C1.74984 153.001 2.07992 152.857 2.44385 152.751C2.80778 152.641 3.22249 152.586 3.68799 152.586C4.2762 152.586 4.78402 152.692 5.21143 152.904C5.63883 153.111 5.9668 153.401 6.19531 153.773C6.42806 154.146 6.54443 154.58 6.54443 155.075C6.54443 155.574 6.44499 156.035 6.24609 156.458C6.0472 156.882 5.76367 157.301 5.39551 157.715C5.02734 158.126 4.58936 158.572 4.08154 159.055L2.47559 160.623V160.692H6.86816V162ZM8.6582 162V152.72H10.1816V160.705H14.1235V162H8.6582ZM18.3447 159.144V157.88H21.6201V159.144H18.3447ZM32.3223 162H26.0381V160.876L28.4438 158.439C28.9093 157.965 29.2923 157.557 29.5928 157.214C29.8932 156.867 30.1154 156.539 30.2593 156.23C30.4074 155.921 30.4814 155.585 30.4814 155.221C30.4814 154.772 30.3524 154.434 30.0942 154.205C29.8361 153.972 29.4954 153.856 29.0723 153.856C28.6702 153.856 28.2978 153.936 27.9551 154.097C27.6165 154.254 27.2653 154.478 26.9014 154.77L26.0825 153.786C26.3407 153.566 26.6157 153.365 26.9077 153.183C27.2039 153.001 27.534 152.857 27.8979 152.751C28.2619 152.641 28.6766 152.586 29.1421 152.586C29.7303 152.586 30.2381 152.692 30.6655 152.904C31.0929 153.111 31.4209 153.401 31.6494 153.773C31.8822 154.146 31.9985 154.58 31.9985 155.075C31.9985 155.574 31.8991 156.035 31.7002 156.458C31.5013 156.882 31.2178 157.301 30.8496 157.715C30.4814 158.126 30.0435 158.572 29.5356 159.055L27.9297 160.623V160.692H32.3223V162ZM34.1123 162V152.72H35.6357V160.705H39.5776V162H34.1123Z" fill="#474F50"/>
<path d="M6.51269 283.84C6.51269 284.259 6.42806 284.623 6.25879 284.932C6.08952 285.241 5.85677 285.494 5.56055 285.693C5.26855 285.888 4.93001 286.028 4.54492 286.112V286.157C5.28548 286.25 5.84408 286.483 6.2207 286.855C6.60156 287.227 6.79199 287.72 6.79199 288.334C6.79199 288.871 6.66292 289.352 6.40478 289.775C6.14665 290.194 5.75098 290.524 5.21777 290.765C4.68457 291.006 3.99902 291.127 3.16113 291.127C2.65755 291.127 2.18994 291.087 1.7583 291.006C1.33089 290.926 0.924642 290.797 0.539551 290.619L0.539551 289.292C0.933105 289.487 1.35205 289.637 1.79639 289.743C2.24072 289.849 2.66178 289.902 3.05957 289.902C3.83398 289.902 4.38623 289.758 4.71631 289.47C5.04639 289.178 5.21143 288.776 5.21143 288.264C5.21143 287.934 5.12467 287.663 4.95117 287.452C4.7819 287.24 4.51742 287.081 4.15771 286.976C3.80225 286.87 3.3431 286.817 2.78027 286.817H1.96143V285.617H2.78662C3.32406 285.617 3.7557 285.554 4.08154 285.427C4.40739 285.296 4.64225 285.116 4.78613 284.887C4.93424 284.659 5.0083 284.392 5.0083 284.087C5.0083 283.69 4.87923 283.381 4.62109 283.161C4.36296 282.936 3.97998 282.824 3.47217 282.824C3.15902 282.824 2.87337 282.86 2.61523 282.932C2.36133 283.004 2.12646 283.095 1.91064 283.205C1.69482 283.315 1.48958 283.434 1.29492 283.561L0.577637 282.526C0.928874 282.264 1.34782 282.041 1.83447 281.859C2.32113 281.677 2.88818 281.586 3.53564 281.586C4.48779 281.586 5.222 281.792 5.73828 282.202C6.25456 282.608 6.51269 283.154 6.51269 283.84ZM8.6582 291V281.72H10.1816V289.705H14.1235V291H8.6582ZM18.3447 288.144V286.88H21.6201V288.144H18.3447ZM31.9668 283.84C31.9668 284.259 31.8822 284.623 31.7129 284.932C31.5436 285.241 31.3109 285.494 31.0146 285.693C30.7227 285.888 30.3841 286.028 29.999 286.112V286.157C30.7396 286.25 31.2982 286.483 31.6748 286.855C32.0557 287.227 32.2461 287.72 32.2461 288.334C32.2461 288.871 32.117 289.352 31.8589 289.775C31.6007 290.194 31.2051 290.524 30.6719 290.765C30.1387 291.006 29.4531 291.127 28.6152 291.127C28.1117 291.127 27.644 291.087 27.2124 291.006C26.785 290.926 26.3787 290.797 25.9937 290.619V289.292C26.3872 289.487 26.8062 289.637 27.2505 289.743C27.6948 289.849 28.1159 289.902 28.5137 289.902C29.2881 289.902 29.8403 289.758 30.1704 289.47C30.5005 289.178 30.6655 288.776 30.6655 288.264C30.6655 287.934 30.5788 287.663 30.4053 287.452C30.236 287.24 29.9715 287.081 29.6118 286.976C29.2563 286.87 28.7972 286.817 28.2344 286.817H27.4155V285.617H28.2407C28.7782 285.617 29.2098 285.554 29.5356 285.427C29.8615 285.296 30.0964 285.116 30.2402 284.887C30.3883 284.659 30.4624 284.392 30.4624 284.087C30.4624 283.69 30.3333 283.381 30.0752 283.161C29.8171 282.936 29.4341 282.824 28.9263 282.824C28.6131 282.824 28.3275 282.86 28.0693 282.932C27.8154 283.004 27.5806 283.095 27.3647 283.205C27.1489 283.315 26.9437 283.434 26.749 283.561L26.0317 282.526C26.383 282.264 26.8019 282.041 27.2886 281.859C27.7752 281.677 28.3423 281.586 28.9897 281.586C29.9419 281.586 30.6761 281.792 31.1924 282.202C31.7087 282.608 31.9668 283.154 31.9668 283.84ZM34.1123 291V281.72H35.6357V289.705H39.5776V291H34.1123Z" fill="#474F50"/>
<path d="M7.20459 421.962H5.94775V424H4.4751V421.962H0.253906L0.253906 420.833L4.49414 414.694H5.94775L5.94775 420.725H7.20459V421.962ZM4.4751 420.725V418.42C4.4751 418.23 4.47721 418.037 4.48145 417.843C4.48991 417.644 4.49837 417.453 4.50684 417.271C4.5153 417.09 4.52376 416.922 4.53223 416.77C4.54069 416.613 4.54704 416.484 4.55127 416.383H4.50049C4.42008 416.552 4.33122 416.726 4.23389 416.903C4.13656 417.077 4.03288 417.246 3.92285 417.411L1.6377 420.725H4.4751ZM8.6582 424V414.72H10.1816V422.705H14.1235V424H8.6582ZM18.3447 421.144V419.88H21.6201V421.144H18.3447ZM32.6587 421.962H31.4019V424H29.9292V421.962H25.708V420.833L29.9482 414.694H31.4019V420.725H32.6587V421.962ZM29.9292 420.725V418.42C29.9292 418.23 29.9313 418.037 29.9355 417.843C29.944 417.644 29.9525 417.453 29.9609 417.271C29.9694 417.09 29.9779 416.922 29.9863 416.77C29.9948 416.613 30.0011 416.484 30.0054 416.383H29.9546C29.8742 416.552 29.7853 416.726 29.688 416.903C29.5907 417.077 29.487 417.246 29.377 417.411L27.0918 420.725H29.9292ZM34.1123 424V414.72H35.6357V422.705H39.5776V424H34.1123Z" fill="#474F50"/>
<path d="M192.505 1.30371L189.163 37.1564L192.505 45.36L195.239 7.98811L192.505 1.30371Z" fill="#53988E" fill-opacity="0.5"/>
<path d="M205.57 8.59523V45.0556L207.393 36.852V1.91113L205.57 8.59523Z" fill="#53988E" fill-opacity="0.5"/>
<path d="M189.163 37.1562L105 52.0442L106.823 61.1593L192.505 45.6637L189.163 37.1562Z" fill="#DB8C47" fill-opacity="0.5"/>
<path d="M292.163 50.829L207.393 36.8525L205.57 46.8791L290.036 61.1594L292.163 50.829Z" fill="#DB8C47" fill-opacity="0.5"/>
<path d="M192.505 1L122.319 12.8496L105 52.0445L189.163 37.1565L192.505 1Z" fill="#2A3845"/>
<path d="M280.313 13.7607L207.393 1.4043V36.8515L292.163 50.8287L280.313 13.7607Z" fill="#2A3845"/>
<path d="M189.163 37.1565L192.505 1M189.163 37.1565L192.505 45.6639M189.163 37.1565L105 52.0445M192.505 1L195.239 7.98823L192.505 45.6639M192.505 1L122.319 12.8496L105 52.0445M192.505 45.6639L106.823 61.1596L105 52.0445" stroke="black"/>
<path d="M207.393 1.30371V36.8525M207.393 1.30371L280.314 13.761L292.163 50.829M207.393 1.30371L205.57 8.59578V46.8791M207.393 36.8525L205.57 46.8791M207.393 36.8525L292.163 50.829M205.57 46.8791L290.036 61.4633L292.163 50.829" stroke="black"/>
<path d="M352.46 143.73L302.725 135.118L312.844 161.816L371.192 172.366L352.46 143.73Z" fill="#2A3845"/>
<path d="M300.787 140.287L310.691 168.492L312.844 161.817L302.725 135.335L300.787 140.287Z" fill="#53988E" fill-opacity="0.5"/>
<path d="M371.192 172.367L312.844 161.817L310.691 168.707L369.254 179.042L371.192 172.367Z" fill="#DB8C47" fill-opacity="0.5"/>
<path d="M310.691 168.706L300.787 140.285L302.725 135.118M310.691 168.706L312.844 161.816M310.691 168.706L369.254 179.04L371.191 172.366M312.844 161.816L302.725 135.118M312.844 161.816L371.191 172.366M302.725 135.118L352.46 143.73L371.191 172.366" stroke="black"/>
<path d="M175.697 135.335L162.563 162.033L164.501 168.707L177.85 140.718L175.697 135.335Z" fill="#53988E" fill-opacity="0.5"/>
<path d="M233.182 125.215L230.813 150.621L233.182 156.434L235.12 129.952L233.182 125.215Z" fill="#53988E" fill-opacity="0.5"/>
<path d="M242.44 130.382V156.218L243.732 150.405V125.646L242.44 130.382Z" fill="#53988E" fill-opacity="0.5"/>
<path d="M162.563 162.032L104 172.582L105.507 179.472L164.5 168.922L162.563 162.032Z" fill="#DB8C47" fill-opacity="0.5"/>
<path d="M230.814 150.621L171.175 161.171L172.467 167.63L233.182 156.65L230.814 150.621Z" fill="#DB8C47" fill-opacity="0.5"/>
<path d="M303.802 160.309L243.732 150.405L242.44 157.51L302.295 167.63L303.802 160.309Z" fill="#DB8C47" fill-opacity="0.5"/>
<path d="M175.696 135.335L127.253 143.086L104 172.582L162.563 162.033L175.696 135.335Z" fill="#2A3845"/>
<path d="M233.182 125L183.447 133.397L171.175 161.171L230.814 150.621L233.182 125Z" fill="#2A3845"/>
<path d="M295.405 134.043L243.732 125.287V150.406L303.802 160.31L295.405 134.043Z" fill="#2A3845"/>
<path d="M162.563 162.033L175.696 135.335M162.563 162.033L164.5 168.922M162.563 162.033L104 172.582M175.696 135.335L177.849 140.718L164.5 168.922M175.696 135.335L127.253 143.086L104 172.582M164.5 168.922L105.507 179.472L104 172.582" stroke="black"/>
<path d="M230.814 150.621L233.182 125M230.814 150.621L233.182 156.65M230.814 150.621L171.175 161.171M233.182 125L235.12 129.952L233.182 156.65M233.182 125L183.447 133.397L171.175 161.171M233.182 156.65L172.467 167.63L171.175 161.171" stroke="black"/>
<path d="M243.732 125.215V150.405M243.732 125.215L295.405 134.042L303.802 160.309M243.732 125.215L242.44 130.382V157.51M243.732 150.405L242.44 157.51M243.732 150.405L303.802 160.309M242.44 157.51L302.295 167.845L303.802 160.309" stroke="black"/>
<path d="M186.879 397.645L156.345 425.067L158.29 431.097L189.213 402.896L186.879 397.645Z" fill="#53988E" fill-opacity="0.5"/>
<path d="M156.345 425.069L105 434.405L106.556 440.239L158.29 431.098L156.345 425.069Z" fill="#DB8C47" fill-opacity="0.5"/>
<path d="M186.49 397.84L143.314 404.841L105.194 434.404L156.344 425.068L186.49 397.84Z" fill="#2A3845"/>
<path d="M448.468 387.919L403.541 380.14L412.682 404.256L465.388 413.786L448.468 387.919Z" fill="#2A3845"/>
<path d="M585.193 434.403L533.264 424.873L530.736 431.097L583.637 440.432L585.193 434.403Z" fill="#DB8C47" fill-opacity="0.5"/>
<path d="M549.796 405.424L506.425 398.033L533.265 424.873L584.999 434.208L549.796 405.424Z" fill="#2A3845"/>
<path d="M503.702 401.924L530.736 431.097L533.264 424.874L506.231 397.84L503.702 401.924Z" fill="#53988E" fill-opacity="0.5"/>
<path d="M530.736 431.097L533.264 424.874M530.736 431.097L503.702 401.924L506.231 397.84M530.736 431.097L583.637 440.433L585.193 434.404M533.264 424.874L506.231 397.84M533.264 424.874L585.193 434.404M506.231 397.84L549.796 405.425L585.193 434.404" stroke="black"/>
<path d="M401.79 384.809L410.736 410.287L412.681 404.258L403.54 380.336L401.79 384.809Z" fill="#53988E" fill-opacity="0.5"/>
<path d="M499.425 396.671L454.887 388.697L473.558 414.564L525.486 424.289L499.425 396.671Z" fill="#2A3845"/>
<path d="M465.388 413.788L412.681 404.258L410.737 410.481L463.638 419.817L465.388 413.788Z" fill="#DB8C47" fill-opacity="0.5"/>
<path d="M410.736 410.48L401.79 384.807L403.54 380.14M410.736 410.48L412.681 404.256M410.736 410.48L463.637 419.815L465.387 413.786M412.681 404.256L403.54 380.14M412.681 404.256L465.387 413.786M403.54 380.14L448.467 387.919L465.387 413.786" stroke="black"/>
<path d="M453.523 394.921L471.416 420.788L473.556 414.564L454.885 388.697L453.523 394.921Z" fill="#53988E" fill-opacity="0.5"/>
<path d="M237.253 388.894L216.053 414.955L217.804 420.984L239.586 394.339L237.253 388.894Z" fill="#53988E" fill-opacity="0.5"/>
<path d="M525.485 424.291L473.556 414.566L471.417 420.79L523.54 430.126L525.485 424.291Z" fill="#DB8C47" fill-opacity="0.5"/>
<path d="M454.885 388.697L453.523 394.921L471.416 420.788M454.885 388.697L473.556 414.564M454.885 388.697L499.423 396.671L525.484 424.289M473.556 414.564L471.416 420.788M473.556 414.564L525.484 424.289M471.416 420.788L523.539 430.123L525.484 424.289" stroke="black"/>
<path d="M288.792 380.336L276.928 404.453L278.678 410.482L290.737 385.198L288.792 380.336Z" fill="#53988E" fill-opacity="0.5"/>
<path d="M340.721 371.194L338.582 394.144L340.721 399.395L342.471 375.473L340.721 371.194Z" fill="#53988E" fill-opacity="0.5"/>
<path d="M349.084 375.862V399.2L350.251 393.949V371.583L349.084 375.862Z" fill="#53988E" fill-opacity="0.5"/>
<path d="M156.345 425.067L158.29 431.097M156.345 425.067L186.88 397.645M156.345 425.067L105 434.403M158.29 431.097L189.214 402.896L186.88 397.645M158.29 431.097L106.556 440.238L105 434.403M186.88 397.645L143.314 404.841L105 434.403" stroke="black"/>
<path d="M216.054 414.955L164.32 424.291L165.487 430.125L217.804 420.984L216.054 414.955Z" fill="#DB8C47" fill-opacity="0.5"/>
<path d="M276.928 404.452L224.027 413.982L225.389 420.206L278.678 410.676L276.928 404.452Z" fill="#DB8C47" fill-opacity="0.5"/>
<path d="M338.581 394.145L284.708 403.674L285.874 409.509L340.72 399.59L338.581 394.145Z" fill="#DB8C47" fill-opacity="0.5"/>
<path d="M404.513 402.896L350.251 393.949L349.084 400.367L403.152 409.508L404.513 402.896Z" fill="#DB8C47" fill-opacity="0.5"/>
<path d="M237.253 388.894L193.298 396.284L164.514 424.291L216.053 414.955L237.253 388.894Z" fill="#2A3845"/>
<path d="M288.792 380.336L245.032 387.338L224.027 413.983L276.928 404.453L288.792 380.336Z" fill="#2A3845"/>
<path d="M340.721 371L295.794 378.585L284.708 403.674L338.581 394.144L340.721 371Z" fill="#2A3845"/>
<path d="M396.928 379.169L350.251 371.26V393.95L404.513 402.897L396.928 379.169Z" fill="#2A3845"/>
<path d="M276.928 404.453L288.792 380.336M276.928 404.453L278.678 410.676M276.928 404.453L224.027 413.983M288.792 380.336L290.737 385.198L278.678 410.676M288.792 380.336L245.032 387.338L224.027 413.983M278.678 410.676L225.389 420.206L224.027 413.983" stroke="black"/>
<path d="M338.581 394.144L340.721 371M338.581 394.144L340.721 399.59M338.581 394.144L284.708 403.674M340.721 371L342.471 375.473L340.721 399.59M340.721 371L295.794 378.585L284.708 403.674M340.721 399.59L285.875 409.509L284.708 403.674" stroke="black"/>
<path d="M350.251 371.194V393.95M350.251 371.194L396.928 379.168L404.513 402.896M350.251 371.194L349.084 375.862V400.368M350.251 393.95L349.084 400.368M350.251 393.95L404.513 402.896M349.084 400.368L403.152 409.703L404.513 402.896" stroke="black"/>
<path d="M216.054 414.955L217.804 420.984M216.054 414.955L237.253 388.894M216.054 414.955L164.32 424.291M217.804 420.984L239.587 394.339L237.253 388.894M217.804 420.984L165.487 430.125L164.32 424.291M237.253 388.894L193.298 396.284L164.32 424.291" stroke="black"/>
<path d="M405.832 260.913L358.267 252.677L367.945 278.209L423.746 288.299L405.832 260.913Z" fill="#2A3845"/>
<path d="M356.414 257.62L365.886 284.594L367.945 278.211L358.267 252.884L356.414 257.62Z" fill="#53988E" fill-opacity="0.5"/>
<path d="M459.78 270.18L412.627 261.737L432.394 289.123L487.372 299.419L459.78 270.18Z" fill="#2A3845"/>
<path d="M423.747 288.3L367.946 278.211L365.886 284.8L421.894 294.684L423.747 288.3Z" fill="#DB8C47" fill-opacity="0.5"/>
<path d="M365.886 284.798L356.414 257.619L358.267 252.677M365.886 284.798L367.945 278.209M365.886 284.798L421.893 294.682L423.746 288.299M367.945 278.209L358.267 252.677M367.945 278.209L423.746 288.299M358.267 252.677L405.832 260.913L423.746 288.299" stroke="black"/>
<path d="M411.187 268.326L430.13 295.712L432.395 289.123L412.628 261.737L411.187 268.326Z" fill="#53988E" fill-opacity="0.5"/>
<path d="M182.215 261.944L159.771 289.536L161.625 295.919L184.686 267.71L182.215 261.944Z" fill="#53988E" fill-opacity="0.5"/>
<path d="M487.372 299.419L432.395 289.124L430.13 295.713L485.313 305.597L487.372 299.419Z" fill="#DB8C47" fill-opacity="0.5"/>
<path d="M412.628 261.737L411.187 268.326L430.13 295.712M412.628 261.737L432.395 289.123M412.628 261.737L459.781 270.18L487.373 299.419M432.395 289.123L430.13 295.712M432.395 289.123L487.373 299.419M430.13 295.712L485.314 305.596L487.373 299.419" stroke="black"/>
<path d="M236.781 252.884L224.22 278.416L226.074 284.8L238.84 258.031L236.781 252.884Z" fill="#53988E" fill-opacity="0.5"/>
<path d="M291.759 243.205L289.494 267.502L291.759 273.062L293.612 247.735L291.759 243.205Z" fill="#53988E" fill-opacity="0.5"/>
<path d="M300.613 248.147V272.856L301.848 267.296V243.617L300.613 248.147Z" fill="#53988E" fill-opacity="0.5"/>
<path d="M159.772 289.536L105 299.42L106.235 305.597L161.625 295.919L159.772 289.536Z" fill="#DB8C47" fill-opacity="0.5"/>
<path d="M224.221 278.416L168.214 288.506L169.656 295.095L226.075 285.005L224.221 278.416Z" fill="#DB8C47" fill-opacity="0.5"/>
<path d="M289.493 267.503L232.457 277.592L233.692 283.77L291.758 273.268L289.493 267.503Z" fill="#DB8C47" fill-opacity="0.5"/>
<path d="M359.297 276.769L301.848 267.297L300.613 274.092L357.855 283.77L359.297 276.769Z" fill="#DB8C47" fill-opacity="0.5"/>
<path d="M182.215 261.944L135.68 269.769L105.206 299.42L159.771 289.536L182.215 261.944Z" fill="#2A3845"/>
<path d="M236.782 252.884L190.452 260.296L168.214 288.506L224.221 278.416L236.782 252.884Z" fill="#2A3845"/>
<path d="M291.758 243L244.194 251.03L232.457 277.593L289.493 267.503L291.758 243Z" fill="#2A3845"/>
<path d="M351.266 251.648L301.848 243.274V267.297L359.297 276.769L351.266 251.648Z" fill="#2A3845"/>
<path d="M224.221 278.416L236.782 252.884M224.221 278.416L226.075 285.005M224.221 278.416L168.214 288.506M236.782 252.884L238.841 258.031L226.075 285.005M236.782 252.884L190.452 260.296L168.214 288.506M226.075 285.005L169.656 295.095L168.214 288.506" stroke="black"/>
<path d="M289.493 267.503L291.758 243M289.493 267.503L291.758 273.269M289.493 267.503L232.457 277.593M291.758 243L293.612 247.736L291.758 273.269M291.758 243L244.194 251.03L232.457 277.593M291.758 273.269L233.692 283.77L232.457 277.593" stroke="black"/>
<path d="M301.848 243.205V267.296M301.848 243.205L351.266 251.647L359.297 276.768M301.848 243.205L300.613 248.147V274.091M301.848 267.296L300.613 274.091M301.848 267.296L359.297 276.768M300.613 274.091L357.855 283.975L359.297 276.768" stroke="black"/>
<path d="M159.772 289.536L161.625 295.919M159.772 289.536L182.216 261.944M159.772 289.536L105 299.42M161.625 295.919L184.687 267.71L182.216 261.944M161.625 295.919L106.235 305.597L105 299.42M182.216 261.944L135.68 269.769L105 299.42" stroke="black"/>
</svg>
