<svg width="641" height="424" viewBox="0 0 641 424" fill="none" xmlns="http://www.w3.org/2000/svg">
<rect width="641" height="424" rx="16" fill="#E8DEDA"/>
<line x1="24" y1="55.5" x2="617" y2="55.5" stroke="#C5C5C5"/>
<path d="M28.1699 29.0059C29.0768 29.0059 29.8242 29.1152 30.4121 29.334C31.0046 29.5527 31.4443 29.8831 31.7314 30.3252C32.0186 30.7673 32.1621 31.3255 32.1621 32C32.1621 32.4557 32.0755 32.8545 31.9023 33.1963C31.7292 33.5381 31.5013 33.8275 31.2188 34.0645C30.9362 34.3014 30.6309 34.4951 30.3027 34.6455L33.2422 39H30.8906L28.5049 35.165H27.377V39H25.2578V29.0059H28.1699ZM28.0195 30.7422H27.377V33.4424H28.0605C28.7624 33.4424 29.2637 33.3262 29.5645 33.0938C29.8698 32.8568 30.0225 32.5104 30.0225 32.0547C30.0225 31.5807 29.8584 31.2435 29.5303 31.043C29.2067 30.8424 28.7031 30.7422 28.0195 30.7422ZM41.2812 35.165C41.2812 35.8031 41.1947 36.3682 41.0215 36.8604C40.8529 37.3525 40.6045 37.7695 40.2764 38.1113C39.9528 38.4486 39.5609 38.7038 39.1006 38.877C38.6449 39.0501 38.1299 39.1367 37.5557 39.1367C37.0179 39.1367 36.5234 39.0501 36.0723 38.877C35.6257 38.7038 35.236 38.4486 34.9033 38.1113C34.5752 37.7695 34.32 37.3525 34.1377 36.8604C33.96 36.3682 33.8711 35.8031 33.8711 35.165C33.8711 34.3174 34.0215 33.5996 34.3223 33.0117C34.623 32.4238 35.0514 31.9772 35.6074 31.6719C36.1634 31.3665 36.8265 31.2139 37.5967 31.2139C38.3122 31.2139 38.9456 31.3665 39.4971 31.6719C40.0531 31.9772 40.4883 32.4238 40.8027 33.0117C41.1217 33.5996 41.2812 34.3174 41.2812 35.165ZM35.9971 35.165C35.9971 35.6663 36.0518 36.0879 36.1611 36.4297C36.2705 36.7715 36.4414 37.029 36.6738 37.2021C36.9062 37.3753 37.2093 37.4619 37.583 37.4619C37.9521 37.4619 38.2507 37.3753 38.4785 37.2021C38.7109 37.029 38.8796 36.7715 38.9844 36.4297C39.0938 36.0879 39.1484 35.6663 39.1484 35.165C39.1484 34.6592 39.0938 34.2399 38.9844 33.9072C38.8796 33.57 38.7109 33.3171 38.4785 33.1484C38.2461 32.9798 37.943 32.8955 37.5693 32.8955C37.0179 32.8955 36.6169 33.0846 36.3662 33.4629C36.1201 33.8411 35.9971 34.4085 35.9971 35.165ZM49.2861 39L48.6982 36.3271C48.6663 36.1676 48.6139 35.9329 48.541 35.623C48.4681 35.3086 48.3883 34.9736 48.3018 34.6182C48.2197 34.2581 48.1423 33.9255 48.0693 33.6201C48.001 33.3148 47.9508 33.0915 47.9189 32.9502H47.8574C47.8255 33.0915 47.7754 33.3148 47.707 33.6201C47.6387 33.9255 47.5612 34.2581 47.4746 34.6182C47.3926 34.9782 47.3151 35.3177 47.2422 35.6367C47.1693 35.9512 47.1146 36.1904 47.0781 36.3545L46.4629 39H44.2207L42.0469 31.3574H44.125L45.0068 34.7412C45.0661 34.9782 45.123 35.2607 45.1777 35.5889C45.2324 35.9124 45.2803 36.2269 45.3213 36.5322C45.3669 36.833 45.401 37.0723 45.4238 37.25H45.4785C45.4876 37.1178 45.5059 36.9424 45.5332 36.7236C45.5651 36.5049 45.5993 36.2793 45.6357 36.0469C45.6768 35.8099 45.7132 35.598 45.7451 35.4111C45.7816 35.2197 45.8089 35.0898 45.8271 35.0215L46.7705 31.3574H49.0674L49.9629 35.0215C49.9948 35.1536 50.0358 35.3633 50.0859 35.6504C50.1406 35.9375 50.1885 36.2337 50.2295 36.5391C50.2705 36.8398 50.2933 37.0768 50.2979 37.25H50.3525C50.3708 37.0951 50.4027 36.8649 50.4482 36.5596C50.4938 36.2542 50.5462 35.9352 50.6055 35.6025C50.6693 35.2653 50.7331 34.9782 50.7969 34.7412L51.7129 31.3574H53.7568L51.5557 39H49.2861ZM60.7158 39H58.6309V28.3633H60.7158V39ZM66.0615 31.2139C66.7679 31.2139 67.3763 31.3506 67.8867 31.624C68.3971 31.8929 68.7913 32.2848 69.0693 32.7998C69.3473 33.3148 69.4863 33.9437 69.4863 34.6865V35.6982H64.5576C64.5804 36.2861 64.7559 36.7487 65.084 37.0859C65.4167 37.4186 65.877 37.585 66.4648 37.585C66.9525 37.585 67.3991 37.5348 67.8047 37.4346C68.2103 37.3343 68.6273 37.1839 69.0557 36.9834V38.5967C68.6774 38.7835 68.2809 38.9202 67.8662 39.0068C67.4561 39.0934 66.957 39.1367 66.3691 39.1367C65.6035 39.1367 64.9245 38.9954 64.332 38.7129C63.7441 38.4303 63.2816 37.9997 62.9443 37.4209C62.6117 36.8421 62.4453 36.113 62.4453 35.2334C62.4453 34.3402 62.5957 33.5973 62.8965 33.0049C63.2018 32.4079 63.6257 31.9613 64.168 31.665C64.7103 31.3643 65.3415 31.2139 66.0615 31.2139ZM66.0752 32.6973C65.6696 32.6973 65.3324 32.8271 65.0635 33.0869C64.7992 33.3467 64.6465 33.7546 64.6055 34.3105H67.5312C67.5267 34.0007 67.4697 33.7249 67.3604 33.4834C67.2555 33.2419 67.096 33.0505 66.8818 32.9092C66.6722 32.7679 66.4033 32.6973 66.0752 32.6973ZM75.5225 31.2139C76.3382 31.2139 76.9945 31.4372 77.4912 31.8838C77.988 32.3258 78.2363 33.0368 78.2363 34.0166V39H76.1514V34.5361C76.1514 33.9893 76.0511 33.5768 75.8506 33.2988C75.6546 33.0208 75.3447 32.8818 74.9209 32.8818C74.2829 32.8818 73.8477 33.0983 73.6152 33.5312C73.3828 33.9642 73.2666 34.5885 73.2666 35.4043V39H71.1816V31.3574H72.7744L73.0547 32.335H73.1709C73.335 32.0706 73.5378 31.8564 73.7793 31.6924C74.0254 31.5283 74.2965 31.4076 74.5928 31.3301C74.8936 31.2526 75.2035 31.2139 75.5225 31.2139ZM82.6182 42.3633C81.5518 42.3633 80.736 42.1764 80.1709 41.8027C79.6104 41.4336 79.3301 40.9141 79.3301 40.2441C79.3301 39.7839 79.4736 39.3988 79.7607 39.0889C80.0479 38.779 80.4694 38.5579 81.0254 38.4258C80.8112 38.3346 80.6243 38.1865 80.4648 37.9814C80.3053 37.7718 80.2256 37.5508 80.2256 37.3184C80.2256 37.0267 80.3099 36.7852 80.4785 36.5938C80.6471 36.3978 80.891 36.2064 81.21 36.0195C80.8089 35.8464 80.4899 35.5684 80.2529 35.1855C80.0205 34.8027 79.9043 34.3516 79.9043 33.832C79.9043 33.276 80.0251 32.8044 80.2666 32.417C80.5127 32.0251 80.8682 31.7266 81.333 31.5215C81.8024 31.3164 82.3721 31.2139 83.042 31.2139C83.1833 31.2139 83.3473 31.223 83.5342 31.2412C83.721 31.2594 83.8919 31.2799 84.0469 31.3027C84.2064 31.3255 84.3135 31.3438 84.3682 31.3574H87.0342V32.417L85.8379 32.7246C85.9473 32.8932 86.0293 33.0732 86.084 33.2646C86.1387 33.4561 86.166 33.6589 86.166 33.873C86.166 34.6934 85.8789 35.3337 85.3047 35.7939C84.735 36.2497 83.9421 36.4775 82.9258 36.4775C82.6842 36.4639 82.4564 36.4456 82.2422 36.4229C82.1374 36.5049 82.0576 36.5915 82.0029 36.6826C81.9482 36.7738 81.9209 36.8695 81.9209 36.9697C81.9209 37.07 81.9619 37.1543 82.0439 37.2227C82.1305 37.2865 82.2581 37.3366 82.4268 37.373C82.5999 37.4049 82.8141 37.4209 83.0693 37.4209H84.3682C85.2067 37.4209 85.8447 37.6009 86.2822 37.9609C86.7243 38.321 86.9453 38.8496 86.9453 39.5469C86.9453 40.4401 86.5716 41.1328 85.8242 41.625C85.0814 42.1172 84.0127 42.3633 82.6182 42.3633ZM82.707 41.0029C83.2038 41.0029 83.6299 40.9551 83.9854 40.8594C84.3454 40.7682 84.6211 40.6361 84.8125 40.4629C85.0039 40.2943 85.0996 40.0915 85.0996 39.8545C85.0996 39.6631 85.0426 39.5104 84.9287 39.3965C84.8193 39.2871 84.6507 39.2096 84.4229 39.1641C84.1995 39.1185 83.9124 39.0957 83.5615 39.0957H82.4814C82.2262 39.0957 81.9961 39.1367 81.791 39.2188C81.5905 39.3008 81.431 39.4147 81.3125 39.5605C81.194 39.7109 81.1348 39.8841 81.1348 40.0801C81.1348 40.3672 81.2715 40.5928 81.5449 40.7568C81.8229 40.9209 82.2103 41.0029 82.707 41.0029ZM83.042 35.2061C83.4339 35.2061 83.721 35.0853 83.9033 34.8438C84.0856 34.6022 84.1768 34.2741 84.1768 33.8594C84.1768 33.3991 84.0811 33.055 83.8896 32.8271C83.7028 32.5947 83.4202 32.4785 83.042 32.4785C82.6592 32.4785 82.3721 32.5947 82.1807 32.8271C81.9893 33.055 81.8936 33.3991 81.8936 33.8594C81.8936 34.2741 81.987 34.6022 82.1738 34.8438C82.3652 35.0853 82.6546 35.2061 83.042 35.2061ZM91.5186 37.4756C91.7464 37.4756 91.9674 37.4528 92.1816 37.4072C92.4004 37.3617 92.6169 37.3047 92.8311 37.2363V38.7881C92.6077 38.8883 92.3298 38.9704 91.9971 39.0342C91.6689 39.1025 91.3089 39.1367 90.917 39.1367C90.4613 39.1367 90.0511 39.0638 89.6865 38.918C89.3265 38.7676 89.0417 38.5101 88.832 38.1455C88.627 37.7764 88.5244 37.2637 88.5244 36.6074V32.9229H87.5264V32.041L88.6748 31.3438L89.2764 29.7305H90.6094V31.3574H92.749V32.9229H90.6094V36.6074C90.6094 36.8991 90.6914 37.1178 90.8555 37.2637C91.0241 37.4049 91.2451 37.4756 91.5186 37.4756ZM96.4678 28.3633V30.5303C96.4678 30.9085 96.4541 31.2686 96.4268 31.6104C96.404 31.9521 96.3857 32.1937 96.3721 32.335H96.4814C96.6455 32.0706 96.8392 31.8564 97.0625 31.6924C97.2904 31.5283 97.541 31.4076 97.8145 31.3301C98.0879 31.2526 98.3818 31.2139 98.6963 31.2139C99.2477 31.2139 99.7285 31.3118 100.139 31.5078C100.549 31.6992 100.868 32.0023 101.096 32.417C101.324 32.8271 101.438 33.3604 101.438 34.0166V39H99.3525V34.5361C99.3525 33.9893 99.2523 33.5768 99.0518 33.2988C98.8512 33.0208 98.5413 32.8818 98.1221 32.8818C97.7028 32.8818 97.3724 32.9798 97.1309 33.1758C96.8893 33.3672 96.7184 33.652 96.6182 34.0303C96.5179 34.404 96.4678 34.862 96.4678 35.4043V39H94.3828V28.3633H96.4678ZM109.237 28.4043H110.734V42.1787H109.237V28.4043ZM121.925 29.0059C123.215 29.0059 124.156 29.2839 124.748 29.8398C125.34 30.3913 125.637 31.1523 125.637 32.123C125.637 32.5605 125.571 32.9798 125.438 33.3809C125.306 33.7773 125.09 34.1305 124.789 34.4404C124.493 34.7503 124.096 34.9964 123.6 35.1787C123.103 35.3564 122.49 35.4453 121.761 35.4453H120.852V39H118.732V29.0059H121.925ZM121.815 30.7422H120.852V33.709H121.549C121.945 33.709 122.289 33.6566 122.581 33.5518C122.873 33.4469 123.098 33.2829 123.258 33.0596C123.417 32.8363 123.497 32.5492 123.497 32.1982C123.497 31.7061 123.36 31.3415 123.087 31.1045C122.813 30.863 122.39 30.7422 121.815 30.7422ZM129.444 31.3574V39H127.359V31.3574H129.444ZM128.405 28.3633C128.715 28.3633 128.982 28.4362 129.205 28.582C129.428 28.7233 129.54 28.9899 129.54 29.3818C129.54 29.7692 129.428 30.0381 129.205 30.1885C128.982 30.3343 128.715 30.4072 128.405 30.4072C128.091 30.4072 127.822 30.3343 127.599 30.1885C127.38 30.0381 127.271 29.7692 127.271 29.3818C127.271 28.9899 127.38 28.7233 127.599 28.582C127.822 28.4362 128.091 28.3633 128.405 28.3633ZM134.858 37.4756C135.086 37.4756 135.307 37.4528 135.521 37.4072C135.74 37.3617 135.957 37.3047 136.171 37.2363V38.7881C135.948 38.8883 135.67 38.9704 135.337 39.0342C135.009 39.1025 134.649 39.1367 134.257 39.1367C133.801 39.1367 133.391 39.0638 133.026 38.918C132.666 38.7676 132.382 38.5101 132.172 38.1455C131.967 37.7764 131.864 37.2637 131.864 36.6074V32.9229H130.866V32.041L132.015 31.3438L132.616 29.7305H133.949V31.3574H136.089V32.9229H133.949V36.6074C133.949 36.8991 134.031 37.1178 134.195 37.2637C134.364 37.4049 134.585 37.4756 134.858 37.4756ZM140.826 39.1367C140.07 39.1367 139.425 39 138.892 38.7266C138.358 38.4486 137.953 38.0202 137.675 37.4414C137.397 36.8626 137.258 36.1221 137.258 35.2197C137.258 34.2855 137.415 33.5244 137.729 32.9365C138.049 32.3441 138.488 31.9089 139.049 31.6309C139.614 31.3529 140.268 31.2139 141.011 31.2139C141.539 31.2139 141.995 31.2663 142.378 31.3711C142.765 31.4714 143.103 31.5921 143.39 31.7334L142.774 33.3467C142.446 33.2145 142.141 33.1074 141.858 33.0254C141.576 32.9388 141.293 32.8955 141.011 32.8955C140.646 32.8955 140.343 32.9821 140.102 33.1553C139.86 33.3239 139.68 33.5791 139.562 33.9209C139.443 34.2627 139.384 34.6911 139.384 35.2061C139.384 35.7119 139.448 36.1312 139.575 36.4639C139.703 36.7965 139.887 37.0449 140.129 37.209C140.37 37.3685 140.664 37.4482 141.011 37.4482C141.444 37.4482 141.829 37.3913 142.166 37.2773C142.503 37.1589 142.831 36.9948 143.15 36.7852V38.5693C142.831 38.7699 142.496 38.9134 142.146 39C141.799 39.0911 141.359 39.1367 140.826 39.1367ZM147.013 28.3633V30.5303C147.013 30.9085 146.999 31.2686 146.972 31.6104C146.949 31.9521 146.931 32.1937 146.917 32.335H147.026C147.19 32.0706 147.384 31.8564 147.607 31.6924C147.835 31.5283 148.086 31.4076 148.359 31.3301C148.633 31.2526 148.927 31.2139 149.241 31.2139C149.793 31.2139 150.273 31.3118 150.684 31.5078C151.094 31.6992 151.413 32.0023 151.641 32.417C151.868 32.8271 151.982 33.3604 151.982 34.0166V39H149.897V34.5361C149.897 33.9893 149.797 33.5768 149.597 33.2988C149.396 33.0208 149.086 32.8818 148.667 32.8818C148.248 32.8818 147.917 32.9798 147.676 33.1758C147.434 33.3672 147.263 33.652 147.163 34.0303C147.063 34.404 147.013 34.862 147.013 35.4043V39H144.928V28.3633H147.013ZM159.782 28.4043H161.279V42.1787H159.782V28.4043ZM175.396 39L174.671 36.6211H171.027L170.303 39H168.02L171.547 28.9648H174.138L177.679 39H175.396ZM174.165 34.8438L173.44 32.5195C173.395 32.3646 173.333 32.1663 173.256 31.9248C173.183 31.6787 173.108 31.4303 173.03 31.1797C172.957 30.9245 172.898 30.7035 172.853 30.5166C172.807 30.7035 172.743 30.9359 172.661 31.2139C172.584 31.4873 172.508 31.7471 172.436 31.9932C172.363 32.2393 172.31 32.4147 172.278 32.5195L171.561 34.8438H174.165ZM184.098 39H178.062V37.7695L181.603 32.9502H178.273V31.3574H183.975V32.7109L180.529 37.4072H184.098V39ZM187.7 31.3574V39H185.615V31.3574H187.7ZM186.661 28.3633C186.971 28.3633 187.238 28.4362 187.461 28.582C187.684 28.7233 187.796 28.9899 187.796 29.3818C187.796 29.7692 187.684 30.0381 187.461 30.1885C187.238 30.3343 186.971 30.4072 186.661 30.4072C186.347 30.4072 186.078 30.3343 185.854 30.1885C185.636 30.0381 185.526 29.7692 185.526 29.3818C185.526 28.9899 185.636 28.7233 185.854 28.582C186.078 28.4362 186.347 28.3633 186.661 28.3633ZM198.87 31.2139C199.736 31.2139 200.39 31.4372 200.832 31.8838C201.279 32.3258 201.502 33.0368 201.502 34.0166V39H199.41V34.5361C199.41 33.9893 199.317 33.5768 199.13 33.2988C198.943 33.0208 198.654 32.8818 198.262 32.8818C197.71 32.8818 197.318 33.0801 197.086 33.4766C196.854 33.8685 196.737 34.4313 196.737 35.165V39H194.652V34.5361C194.652 34.1715 194.611 33.8662 194.529 33.6201C194.447 33.374 194.322 33.1895 194.153 33.0664C193.985 32.9434 193.768 32.8818 193.504 32.8818C193.117 32.8818 192.811 32.9798 192.588 33.1758C192.369 33.3672 192.212 33.652 192.116 34.0303C192.025 34.404 191.979 34.862 191.979 35.4043V39H189.895V31.3574H191.487L191.768 32.335H191.884C192.039 32.0706 192.232 31.8564 192.465 31.6924C192.702 31.5283 192.962 31.4076 193.244 31.3301C193.527 31.2526 193.814 31.2139 194.105 31.2139C194.666 31.2139 195.14 31.305 195.527 31.4873C195.919 31.6696 196.22 31.9521 196.43 32.335H196.614C196.842 31.943 197.163 31.6582 197.578 31.4805C197.997 31.3027 198.428 31.2139 198.87 31.2139ZM210.662 31.3574V39H209.062L208.782 38.0225H208.673C208.509 38.2822 208.304 38.4941 208.058 38.6582C207.812 38.8223 207.54 38.943 207.244 39.0205C206.948 39.098 206.64 39.1367 206.321 39.1367C205.774 39.1367 205.298 39.041 204.893 38.8496C204.487 38.6536 204.17 38.3506 203.942 37.9404C203.719 37.5303 203.607 36.9971 203.607 36.3408V31.3574H205.692V35.8213C205.692 36.3682 205.79 36.7806 205.986 37.0586C206.182 37.3366 206.494 37.4756 206.923 37.4756C207.347 37.4756 207.679 37.3799 207.921 37.1885C208.162 36.9925 208.331 36.7077 208.427 36.334C208.527 35.9557 208.577 35.4954 208.577 34.9531V31.3574H210.662ZM216.069 37.4756C216.297 37.4756 216.518 37.4528 216.732 37.4072C216.951 37.3617 217.168 37.3047 217.382 37.2363V38.7881C217.159 38.8883 216.881 38.9704 216.548 39.0342C216.22 39.1025 215.86 39.1367 215.468 39.1367C215.012 39.1367 214.602 39.0638 214.237 38.918C213.877 38.7676 213.592 38.5101 213.383 38.1455C213.178 37.7764 213.075 37.2637 213.075 36.6074V32.9229H212.077V32.041L213.226 31.3438L213.827 29.7305H215.16V31.3574H217.3V32.9229H215.16V36.6074C215.16 36.8991 215.242 37.1178 215.406 37.2637C215.575 37.4049 215.796 37.4756 216.069 37.4756ZM221.019 28.3633V30.5303C221.019 30.9085 221.005 31.2686 220.978 31.6104C220.955 31.9521 220.937 32.1937 220.923 32.335H221.032C221.196 32.0706 221.39 31.8564 221.613 31.6924C221.841 31.5283 222.092 31.4076 222.365 31.3301C222.639 31.2526 222.933 31.2139 223.247 31.2139C223.799 31.2139 224.279 31.3118 224.689 31.5078C225.1 31.6992 225.419 32.0023 225.646 32.417C225.874 32.8271 225.988 33.3604 225.988 34.0166V39H223.903V34.5361C223.903 33.9893 223.803 33.5768 223.603 33.2988C223.402 33.0208 223.092 32.8818 222.673 32.8818C222.254 32.8818 221.923 32.9798 221.682 33.1758C221.44 33.3672 221.269 33.652 221.169 34.0303C221.069 34.404 221.019 34.862 221.019 35.4043V39H218.934V28.3633H221.019ZM233.788 28.4043H235.285V42.1787H233.788V28.4043ZM247.077 33.3877H251.042V38.5693C250.518 38.7425 249.973 38.8815 249.408 38.9863C248.843 39.0866 248.203 39.1367 247.487 39.1367C246.494 39.1367 245.651 38.9408 244.958 38.5488C244.265 38.1569 243.739 37.5781 243.379 36.8125C243.019 36.0469 242.839 35.1058 242.839 33.9893C242.839 32.9411 243.039 32.0342 243.44 31.2686C243.846 30.5029 244.436 29.9105 245.211 29.4912C245.99 29.0719 246.94 28.8623 248.062 28.8623C248.59 28.8623 249.112 28.9193 249.627 29.0332C250.142 29.1471 250.609 29.2952 251.028 29.4775L250.324 31.1729C250.019 31.0179 249.67 30.888 249.278 30.7832C248.886 30.6784 248.476 30.626 248.048 30.626C247.433 30.626 246.897 30.7673 246.441 31.0498C245.99 31.3324 245.639 31.7288 245.389 32.2393C245.143 32.7451 245.02 33.3421 245.02 34.0303C245.02 34.682 245.108 35.2607 245.286 35.7666C245.464 36.2679 245.744 36.6621 246.127 36.9492C246.51 37.2318 247.009 37.373 247.624 37.373C247.925 37.373 248.178 37.3594 248.383 37.332C248.592 37.3001 248.788 37.2682 248.971 37.2363V35.1514H247.077V33.3877ZM256.395 31.2002C257.42 31.2002 258.206 31.4235 258.753 31.8701C259.3 32.3167 259.573 32.9958 259.573 33.9072V39H258.117L257.714 37.9609H257.659C257.44 38.2344 257.217 38.4577 256.989 38.6309C256.761 38.804 256.499 38.9316 256.203 39.0137C255.907 39.0957 255.547 39.1367 255.123 39.1367C254.672 39.1367 254.266 39.0501 253.906 38.877C253.551 38.7038 253.271 38.4395 253.065 38.084C252.86 37.724 252.758 37.2682 252.758 36.7168C252.758 35.9056 253.043 35.3086 253.612 34.9258C254.182 34.5384 255.036 34.3242 256.176 34.2832L257.502 34.2422V33.9072C257.502 33.5062 257.397 33.2122 257.188 33.0254C256.978 32.8385 256.686 32.7451 256.312 32.7451C255.943 32.7451 255.581 32.7975 255.226 32.9023C254.87 33.0072 254.515 33.1393 254.159 33.2988L253.469 31.8906C253.874 31.6764 254.328 31.5078 254.829 31.3848C255.335 31.2617 255.857 31.2002 256.395 31.2002ZM257.502 35.459L256.695 35.4863C256.021 35.5046 255.551 35.6253 255.287 35.8486C255.027 36.0719 254.897 36.3659 254.897 36.7305C254.897 37.0495 254.991 37.2773 255.178 37.4141C255.365 37.5462 255.608 37.6123 255.909 37.6123C256.356 37.6123 256.732 37.4801 257.037 37.2158C257.347 36.9515 257.502 36.5755 257.502 36.0879V35.459ZM265.979 31.2139C266.84 31.2139 267.535 31.5488 268.063 32.2188C268.597 32.8887 268.863 33.8708 268.863 35.165C268.863 36.0309 268.738 36.7601 268.487 37.3525C268.237 37.9404 267.89 38.3848 267.448 38.6855C267.006 38.9863 266.498 39.1367 265.924 39.1367C265.555 39.1367 265.238 39.0911 264.974 39C264.709 38.9043 264.484 38.7835 264.297 38.6377C264.11 38.4873 263.948 38.3278 263.812 38.1592H263.702C263.739 38.3415 263.766 38.5283 263.784 38.7197C263.802 38.9111 263.812 39.098 263.812 39.2803V42.3633H261.727V31.3574H263.422L263.716 32.3486H263.812C263.948 32.1436 264.115 31.9544 264.311 31.7812C264.507 31.6081 264.741 31.4714 265.015 31.3711C265.293 31.2663 265.614 31.2139 265.979 31.2139ZM265.309 32.8818C264.944 32.8818 264.655 32.957 264.44 33.1074C264.226 33.2578 264.069 33.4834 263.969 33.7842C263.873 34.085 263.821 34.4655 263.812 34.9258V35.1514C263.812 35.6436 263.857 36.0605 263.948 36.4023C264.044 36.7441 264.201 37.0039 264.42 37.1816C264.643 37.3594 264.949 37.4482 265.336 37.4482C265.655 37.4482 265.917 37.3594 266.122 37.1816C266.327 37.0039 266.48 36.7441 266.58 36.4023C266.685 36.056 266.737 35.6344 266.737 35.1377C266.737 34.3903 266.621 33.8275 266.389 33.4492C266.156 33.071 265.796 32.8818 265.309 32.8818Z" fill="#474F50"/>
<path d="M107 318L534 269" stroke="#474F50"/>
<path d="M92 182L518 132" stroke="#474F50"/>
<path d="M101.346 134.74L111.078 223.206L160.778 217.739L151.046 129.272L101.346 134.74Z" fill="#2A3845"/>
<path d="M111.078 223.206L160.778 217.739L151.046 129.272L101.346 134.74L111.078 223.206ZM117.674 134.043L119.478 150.444L104.343 152.109L102.539 135.708L117.674 134.043ZM126.317 202.731L124.515 186.349L139.65 184.684L141.452 201.066L126.317 202.731ZM141.571 202.153L143.376 218.554L128.241 220.218L126.436 203.818L141.571 202.153ZM121.519 168.999L123.321 185.381L108.186 187.046L106.384 170.664L121.519 168.999ZM106.265 169.578L104.463 153.195L119.598 151.53L121.4 167.913L106.265 169.578ZM122.593 168.881L137.728 167.216L139.53 183.598L124.395 185.262L122.593 168.881ZM123.441 186.467L125.243 202.849L110.108 204.514L108.306 188.132L123.441 186.467ZM140.723 184.566L155.858 182.901L157.661 199.283L142.526 200.948L140.723 184.566ZM140.604 183.479L138.802 167.098L153.937 165.433L155.739 181.814L140.604 183.479ZM138.682 166.011L136.88 149.629L152.015 147.964L153.817 164.346L138.682 166.011ZM137.609 166.13L122.474 167.795L120.671 151.412L135.806 149.747L137.609 166.13ZM120.552 150.326L118.748 133.925L133.883 132.26L135.687 148.661L120.552 150.326ZM110.228 205.601L125.363 203.936L127.167 220.337L112.032 222.002L110.228 205.601ZM144.449 218.435L142.645 202.035L157.78 200.37L159.584 216.77L144.449 218.435ZM151.896 146.878L136.761 148.543L134.956 132.142L150.091 130.477L151.896 146.878Z" fill="white"/>
<path d="M170.926 127.084L180.658 215.551L230.358 210.083L220.626 121.617L170.926 127.084Z" fill="#2A3845"/>
<path d="M180.658 215.551L230.358 210.083L220.626 121.617L170.926 127.084L180.658 215.551ZM187.254 126.388L189.058 142.789L173.923 144.454L172.119 128.053L187.254 126.388ZM195.897 195.076L194.095 178.694L209.23 177.029L211.032 193.411L195.897 195.076ZM211.152 194.498L212.956 210.898L197.821 212.563L196.017 196.163L211.152 194.498ZM191.1 161.344L192.902 177.725L177.767 179.39L175.965 163.009L191.1 161.344ZM175.845 161.922L174.043 145.54L189.178 143.875L190.98 160.257L175.845 161.922ZM192.173 161.226L207.308 159.561L209.11 175.942L193.975 177.607L192.173 161.226ZM193.021 178.812L194.823 195.194L179.688 196.859L177.886 180.477L193.021 178.812ZM210.304 176.91L225.439 175.245L227.241 191.628L212.106 193.293L210.304 176.91ZM210.184 175.824L208.382 159.443L223.517 157.778L225.319 174.159L210.184 175.824ZM208.262 158.356L206.46 141.974L221.595 140.309L223.397 156.691L208.262 158.356ZM207.189 158.474L192.054 160.139L190.252 143.757L205.387 142.092L207.189 158.474ZM190.132 142.671L188.328 126.27L203.463 124.605L205.267 141.006L190.132 142.671ZM179.808 197.946L194.943 196.281L196.747 212.681L181.612 214.346L179.808 197.946ZM214.03 210.78L212.225 194.38L227.36 192.715L229.165 209.115L214.03 210.78ZM221.476 139.222L206.341 140.887L204.537 124.487L219.672 122.822L221.476 139.222Z" fill="white"/>
<path d="M240.506 119.43L250.238 207.896L299.938 202.429L290.206 113.963L240.506 119.43Z" fill="#2A3845"/>
<path d="M250.238 207.896L299.938 202.429L290.206 113.963L240.506 119.43L250.238 207.896ZM256.834 118.734L258.639 135.134L243.504 136.799L241.699 120.399L256.834 118.734ZM265.477 187.422L263.675 171.039L278.81 169.374L280.612 185.757L265.477 187.422ZM280.732 186.843L282.536 203.244L267.401 204.909L265.597 188.508L280.732 186.843ZM260.68 153.69L262.482 170.071L247.347 171.736L245.545 155.355L260.68 153.69ZM245.425 154.268L243.623 137.886L258.758 136.221L260.56 152.603L245.425 154.268ZM261.754 153.572L276.889 151.907L278.691 168.288L263.556 169.953L261.754 153.572ZM262.601 171.157L264.404 187.54L249.269 189.205L247.466 172.822L262.601 171.157ZM279.884 169.256L295.019 167.591L296.821 183.974L281.686 185.639L279.884 169.256ZM279.764 168.17L277.962 151.789L293.097 150.124L294.899 166.505L279.764 168.17ZM277.843 150.702L276.041 134.319L291.176 132.655L292.978 149.037L277.843 150.702ZM276.769 150.82L261.634 152.485L259.832 136.103L274.967 134.438L276.769 150.82ZM259.712 135.016L257.908 118.616L273.043 116.951L274.847 133.351L259.712 135.016ZM249.388 190.292L264.523 188.627L266.327 205.027L251.192 206.692L249.388 190.292ZM283.61 203.126L281.806 186.725L296.941 185.06L298.745 201.461L283.61 203.126ZM291.056 131.568L275.921 133.233L274.117 116.833L289.252 115.168L291.056 131.568Z" fill="white"/>
<path d="M310.086 111.776L319.818 200.242L369.519 194.775L359.787 106.308L310.086 111.776Z" fill="#2A3845"/>
<path d="M319.818 200.242L369.519 194.775L359.787 106.308L310.086 111.776L319.818 200.242ZM326.415 111.08L328.219 127.48L313.084 129.145L311.28 112.745L326.415 111.08ZM335.058 179.767L333.255 163.385L348.39 161.72L350.193 178.102L335.058 179.767ZM350.312 179.189L352.116 195.59L336.981 197.255L335.177 180.854L350.312 179.189ZM330.26 146.036L332.062 162.417L316.927 164.082L315.125 147.701L330.26 146.036ZM315.006 146.614L313.203 130.231L328.338 128.566L330.141 144.949L315.006 146.614ZM331.334 145.917L346.469 144.252L348.271 160.634L333.136 162.299L331.334 145.917ZM332.182 163.503L333.984 179.885L318.849 181.55L317.047 165.168L332.182 163.503ZM349.464 161.602L364.599 159.937L366.401 176.319L351.266 177.984L349.464 161.602ZM349.345 160.516L347.543 144.134L362.678 142.469L364.48 158.851L349.345 160.516ZM347.423 143.048L345.621 126.665L360.756 125L362.558 141.383L347.423 143.048ZM346.349 143.166L331.214 144.831L329.412 128.448L344.547 126.783L346.349 143.166ZM329.293 127.362L327.488 110.961L342.623 109.296L344.428 125.697L329.293 127.362ZM318.968 182.637L334.103 180.972L335.908 197.373L320.773 199.038L318.968 182.637ZM353.19 195.472L351.386 179.071L366.521 177.406L368.325 193.807L353.19 195.472ZM360.636 123.914L345.501 125.579L343.697 109.178L358.832 107.513L360.636 123.914Z" fill="white"/>
<path d="M379.667 104.122L389.399 192.588L439.099 187.12L429.367 98.6541L379.667 104.122Z" fill="#2A3845"/>
<path d="M389.399 192.588L439.099 187.12L429.367 98.6541L379.667 104.122L389.399 192.588ZM395.995 103.425L397.799 119.826L382.664 121.491L380.86 105.09L395.995 103.425ZM404.638 172.113L402.836 155.731L417.971 154.066L419.773 170.448L404.638 172.113ZM419.892 171.535L421.697 187.935L406.562 189.6L404.757 173.2L419.892 171.535ZM399.84 138.381L401.642 154.762L386.507 156.427L384.705 140.046L399.84 138.381ZM384.586 138.959L382.784 122.577L397.919 120.912L399.721 137.295L384.586 138.959ZM400.914 138.263L416.049 136.598L417.851 152.979L402.716 154.644L400.914 138.263ZM401.762 155.849L403.564 172.231L388.429 173.896L386.627 157.514L401.762 155.849ZM419.044 153.948L434.179 152.283L435.982 168.665L420.846 170.33L419.044 153.948ZM418.925 152.861L417.123 136.48L432.258 134.815L434.06 151.196L418.925 152.861ZM417.003 135.393L415.201 119.011L430.336 117.346L432.138 133.728L417.003 135.393ZM415.93 135.511L400.794 137.176L398.992 120.794L414.127 119.129L415.93 135.511ZM398.873 119.708L397.069 103.307L412.204 101.642L414.008 118.043L398.873 119.708ZM388.549 174.983L403.684 173.318L405.488 189.718L390.353 191.383L388.549 174.983ZM422.77 187.817L420.966 171.417L436.101 169.752L437.905 186.152L422.77 187.817ZM430.216 116.26L415.081 117.925L413.277 101.524L428.412 99.8591L430.216 116.26Z" fill="white"/>
<path d="M449.247 96.4673L458.979 184.934L508.679 179.466L498.947 90.9999L449.247 96.4673Z" fill="#2A3845"/>
<path d="M458.979 184.934L508.679 179.466L498.947 90.9999L449.247 96.4673L458.979 184.934ZM465.575 95.771L467.379 112.171L452.244 113.836L450.44 97.436L465.575 95.771ZM474.218 164.459L472.416 148.076L487.551 146.411L489.353 162.794L474.218 164.459ZM489.473 163.881L491.277 180.281L476.142 181.946L474.338 165.546L489.473 163.881ZM469.421 130.727L471.223 147.108L456.088 148.773L454.286 132.392L469.421 130.727ZM454.166 131.305L452.364 114.923L467.499 113.258L469.301 129.64L454.166 131.305ZM470.494 130.609L485.629 128.944L487.431 145.325L472.296 146.99L470.494 130.609ZM471.342 148.194L473.144 164.577L458.009 166.242L456.207 149.859L471.342 148.194ZM488.625 146.293L503.76 144.628L505.562 161.011L490.427 162.676L488.625 146.293ZM488.505 145.207L486.703 128.826L501.838 127.161L503.64 143.542L488.505 145.207ZM486.583 127.739L484.781 111.357L499.916 109.692L501.718 126.074L486.583 127.739ZM485.51 127.857L470.375 129.522L468.573 113.14L483.708 111.475L485.51 127.857ZM468.453 112.053L466.649 95.6529L481.784 93.9879L483.588 110.388L468.453 112.053ZM458.129 167.329L473.264 165.664L475.068 182.064L459.933 183.729L458.129 167.329ZM492.35 180.163L490.546 163.762L505.681 162.097L507.486 178.498L492.35 180.163ZM499.797 108.605L484.662 110.27L482.858 93.8698L497.993 92.2048L499.797 108.605Z" fill="white"/>
<path d="M116.327 270.918L126.059 359.385L175.759 353.917L166.027 265.451L116.327 270.918Z" fill="#2A3845"/>
<path d="M126.059 359.385L175.759 353.917L166.027 265.451L116.327 270.918L126.059 359.385ZM132.655 270.222L134.459 286.623L119.324 288.288L117.52 271.887L132.655 270.222ZM141.298 338.91L139.495 322.528L154.63 320.863L156.433 337.245L141.298 338.91ZM156.552 338.332L158.356 354.732L143.221 356.397L141.417 339.997L156.552 338.332ZM136.5 305.178L138.302 321.559L123.167 323.224L121.365 306.843L136.5 305.178ZM121.246 305.756L119.443 289.374L134.578 287.709L136.381 304.091L121.246 305.756ZM137.574 305.06L152.709 303.395L154.511 319.776L139.376 321.441L137.574 305.06ZM138.422 322.646L140.224 339.028L125.089 340.693L123.287 324.311L138.422 322.646ZM155.704 320.744L170.839 319.079L172.641 335.462L157.506 337.127L155.704 320.744ZM155.585 319.658L153.783 303.277L168.918 301.612L170.72 317.993L155.585 319.658ZM153.663 302.19L151.861 285.808L166.996 284.143L168.798 300.525L153.663 302.19ZM152.589 302.308L137.454 303.973L135.652 287.591L150.787 285.926L152.589 302.308ZM135.533 286.505L133.728 270.104L148.863 268.439L150.668 284.84L135.533 286.505ZM125.208 341.78L140.344 340.115L142.148 356.515L127.013 358.18L125.208 341.78ZM159.43 354.614L157.626 338.214L172.761 336.549L174.565 352.949L159.43 354.614ZM166.876 283.056L151.741 284.721L149.937 268.321L165.072 266.656L166.876 283.056Z" fill="white"/>
<path d="M185.907 263.263L195.639 351.729L245.339 346.262L235.607 257.796L185.907 263.263Z" fill="#2A3845"/>
<path d="M195.639 351.729L245.339 346.262L235.607 257.796L185.907 263.263L195.639 351.729ZM202.235 262.567L204.039 278.967L188.904 280.632L187.1 264.232L202.235 262.567ZM210.878 331.255L209.076 314.872L224.211 313.207L226.013 329.59L210.878 331.255ZM226.132 330.676L227.937 347.077L212.802 348.742L210.997 332.341L226.132 330.676ZM206.08 297.523L207.882 313.904L192.747 315.569L190.945 299.188L206.08 297.523ZM190.826 298.101L189.024 281.719L204.159 280.054L205.961 296.436L190.826 298.101ZM207.154 297.405L222.289 295.74L224.091 312.121L208.956 313.786L207.154 297.405ZM208.002 314.99L209.804 331.373L194.669 333.038L192.867 316.655L208.002 314.99ZM225.284 313.089L240.419 311.424L242.222 327.807L227.087 329.472L225.284 313.089ZM225.165 312.003L223.363 295.622L238.498 293.957L240.3 310.338L225.165 312.003ZM223.243 294.535L221.441 278.153L236.576 276.488L238.378 292.87L223.243 294.535ZM222.17 294.653L207.035 296.318L205.232 279.936L220.367 278.271L222.17 294.653ZM205.113 278.849L203.309 262.449L218.444 260.784L220.248 277.184L205.113 278.849ZM194.789 334.125L209.924 332.46L211.728 348.86L196.593 350.525L194.789 334.125ZM229.01 346.959L227.206 330.558L242.341 328.893L244.145 345.294L229.01 346.959ZM236.457 275.401L221.322 277.066L219.517 260.666L234.652 259.001L236.457 275.401Z" fill="white"/>
<path d="M255.487 255.609L265.219 344.075L314.919 338.608L305.187 250.141L255.487 255.609Z" fill="#2A3845"/>
<path d="M265.219 344.075L314.919 338.608L305.187 250.141L255.487 255.609L265.219 344.075ZM271.815 254.913L273.619 271.313L258.484 272.978L256.68 256.578L271.815 254.913ZM280.458 323.6L278.656 307.218L293.791 305.553L295.593 321.935L280.458 323.6ZM295.713 323.022L297.517 339.423L282.382 341.088L280.578 324.687L295.713 323.022ZM275.661 289.869L277.463 306.25L262.328 307.915L260.526 291.534L275.661 289.869ZM260.406 290.447L258.604 274.064L273.739 272.399L275.541 288.782L260.406 290.447ZM276.734 289.75L291.869 288.085L293.671 304.467L278.536 306.132L276.734 289.75ZM277.582 307.336L279.384 323.718L264.249 325.383L262.447 309.001L277.582 307.336ZM294.865 305.435L310 303.77L311.802 320.152L296.667 321.817L294.865 305.435ZM294.745 304.349L292.943 287.967L308.078 286.302L309.88 302.684L294.745 304.349ZM292.823 286.881L291.021 270.498L306.156 268.833L307.959 285.216L292.823 286.881ZM291.75 286.999L276.615 288.664L274.813 272.281L289.948 270.616L291.75 286.999ZM274.693 271.195L272.889 254.794L288.024 253.129L289.828 269.53L274.693 271.195ZM264.369 326.47L279.504 324.805L281.308 341.206L266.173 342.871L264.369 326.47ZM298.591 339.305L296.786 322.904L311.921 321.239L313.726 337.64L298.591 339.305ZM306.037 267.747L290.902 269.412L289.098 253.011L304.233 251.346L306.037 267.747Z" fill="white"/>
<path d="M325.067 247.955L334.799 336.421L384.499 330.953L374.767 242.487L325.067 247.955Z" fill="#2A3845"/>
<path d="M334.799 336.421L384.499 330.953L374.767 242.487L325.067 247.955L334.799 336.421ZM341.395 247.258L343.2 263.659L328.065 265.324L326.26 248.923L341.395 247.258ZM350.038 315.946L348.236 299.564L363.371 297.899L365.173 314.281L350.038 315.946ZM365.293 315.368L367.097 331.768L351.962 333.433L350.158 317.033L365.293 315.368ZM345.241 282.214L347.043 298.595L331.908 300.26L330.106 283.879L345.241 282.214ZM329.986 282.792L328.184 266.41L343.319 264.745L345.121 281.128L329.986 282.792ZM346.315 282.096L361.45 280.431L363.252 296.812L348.117 298.477L346.315 282.096ZM347.163 299.682L348.965 316.064L333.83 317.729L332.027 301.347L347.163 299.682ZM364.445 297.781L379.58 296.116L381.382 312.498L366.247 314.163L364.445 297.781ZM364.325 296.694L362.523 280.313L377.658 278.648L379.46 295.029L364.325 296.694ZM362.404 279.226L360.602 262.844L375.737 261.179L377.539 277.561L362.404 279.226ZM361.33 279.344L346.195 281.009L344.393 264.627L359.528 262.962L361.33 279.344ZM344.273 263.541L342.469 247.14L357.604 245.475L359.408 261.876L344.273 263.541ZM333.949 318.816L349.084 317.151L350.888 333.551L335.753 335.216L333.949 318.816ZM368.171 331.65L366.367 315.25L381.502 313.585L383.306 329.985L368.171 331.65ZM375.617 260.093L360.482 261.758L358.678 245.357L373.813 243.692L375.617 260.093Z" fill="white"/>
<path d="M394.647 240.3L404.379 328.767L454.08 323.299L444.348 234.833L394.647 240.3Z" fill="#2A3845"/>
<path d="M404.379 328.767L454.08 323.299L444.348 234.833L394.647 240.3L404.379 328.767ZM410.976 239.604L412.78 256.004L397.645 257.669L395.841 241.269L410.976 239.604ZM419.619 308.292L417.816 291.909L432.951 290.244L434.754 306.627L419.619 308.292ZM434.873 307.714L436.677 324.114L421.542 325.779L419.738 309.379L434.873 307.714ZM414.821 274.56L416.623 290.941L401.488 292.606L399.686 276.225L414.821 274.56ZM399.567 275.138L397.764 258.756L412.899 257.091L414.702 273.473L399.567 275.138ZM415.895 274.442L431.03 272.777L432.832 289.158L417.697 290.823L415.895 274.442ZM416.743 292.028L418.545 308.41L403.41 310.075L401.608 293.692L416.743 292.028ZM434.025 290.126L449.16 288.461L450.962 304.844L435.827 306.509L434.025 290.126ZM433.906 289.04L432.103 272.659L447.239 270.994L449.041 287.375L433.906 289.04ZM431.984 271.572L430.182 255.19L445.317 253.525L447.119 269.907L431.984 271.572ZM430.91 271.69L415.775 273.355L413.973 256.973L429.108 255.308L430.91 271.69ZM413.854 255.886L412.049 239.486L427.184 237.821L428.989 254.221L413.854 255.886ZM403.529 311.162L418.664 309.497L420.469 325.897L405.334 327.562L403.529 311.162ZM437.751 323.996L435.947 307.595L451.082 305.931L452.886 322.331L437.751 323.996ZM445.197 252.438L430.062 254.103L428.258 237.703L443.393 236.038L445.197 252.438Z" fill="white"/>
<path d="M464.228 232.646L473.96 321.112L523.66 315.645L513.928 227.179L464.228 232.646Z" fill="#2A3845"/>
<path d="M473.96 321.112L523.66 315.645L513.928 227.179L464.228 232.646L473.96 321.112ZM480.556 231.95L482.36 248.35L467.225 250.015L465.421 233.615L480.556 231.95ZM489.199 300.637L487.397 284.255L502.532 282.59L504.334 298.973L489.199 300.637ZM504.453 300.059L506.258 316.46L491.123 318.125L489.318 301.724L504.453 300.059ZM484.401 266.906L486.203 283.287L471.068 284.952L469.266 268.571L484.401 266.906ZM469.147 267.484L467.345 251.101L482.48 249.437L484.282 265.819L469.147 267.484ZM485.475 266.788L500.61 265.123L502.412 281.504L487.277 283.169L485.475 266.788ZM486.323 284.373L488.125 300.756L472.99 302.421L471.188 286.038L486.323 284.373ZM503.605 282.472L518.74 280.807L520.543 297.189L505.408 298.854L503.605 282.472ZM503.486 281.386L501.684 265.004L516.819 263.34L518.621 279.721L503.486 281.386ZM501.564 263.918L499.762 247.535L514.897 245.87L516.699 262.253L501.564 263.918ZM500.491 264.036L485.355 265.701L483.553 249.318L498.688 247.653L500.491 264.036ZM483.434 248.232L481.63 231.832L496.765 230.167L498.569 246.567L483.434 248.232ZM473.11 303.507L488.245 301.842L490.049 318.243L474.914 319.908L473.11 303.507ZM507.331 316.342L505.527 299.941L520.662 298.276L522.466 314.677L507.331 316.342ZM514.778 244.784L499.642 246.449L497.838 230.048L512.973 228.384L514.778 244.784Z" fill="white"/>
<path d="M270.82 234.472L269.769 225.252L271.277 225.08L272.18 233.008L276.084 232.563L276.231 233.856L270.82 234.472ZM280.724 233.471C279.639 233.595 278.754 233.377 278.068 232.816C277.386 232.25 276.982 231.413 276.855 230.303C276.725 229.163 276.907 228.235 277.4 227.519C277.894 226.803 278.636 226.388 279.629 226.275C280.549 226.17 281.309 226.367 281.906 226.865C282.504 227.363 282.859 228.102 282.97 229.082L283.062 229.883L278.414 230.413C278.512 231.087 278.754 231.588 279.141 231.914C279.527 232.236 280.033 232.362 280.659 232.29C281.071 232.244 281.45 232.162 281.794 232.046C282.142 231.926 282.51 231.752 282.897 231.524L283.035 232.729C282.693 232.943 282.341 233.106 281.979 233.22C281.617 233.333 281.199 233.417 280.724 233.471ZM279.757 227.397C279.286 227.451 278.924 227.643 278.672 227.975C278.425 228.305 278.306 228.76 278.317 229.338L281.483 228.977C281.409 228.402 281.22 227.982 280.918 227.719C280.615 227.451 280.228 227.344 279.757 227.397ZM291.242 232.145L289.753 232.315L289.264 228.026C289.203 227.488 289.048 227.099 288.799 226.859C288.555 226.618 288.197 226.525 287.726 226.579C287.099 226.65 286.662 226.887 286.414 227.29C286.166 227.693 286.092 228.33 286.191 229.2L286.587 232.675L285.105 232.844L284.31 225.869L285.471 225.737L285.783 226.627L285.859 226.619C286.031 226.263 286.3 225.972 286.666 225.747C287.033 225.522 287.451 225.383 287.922 225.33C289.596 225.139 290.529 225.895 290.723 227.598L291.242 232.145ZM298.4 224.263L298.492 225.077L297.325 225.433C297.452 225.568 297.563 225.739 297.658 225.945C297.754 226.151 297.816 226.374 297.843 226.614C297.925 227.333 297.742 227.927 297.292 228.395C296.843 228.864 296.184 229.148 295.313 229.247C295.09 229.272 294.887 229.278 294.702 229.265C294.405 229.499 294.272 229.749 294.302 230.014C294.32 230.174 294.407 230.285 294.563 230.348C294.724 230.411 295.004 230.419 295.403 230.374L296.62 230.235C297.39 230.147 297.993 230.245 298.43 230.527C298.867 230.81 299.12 231.26 299.191 231.878C299.281 232.668 299.024 233.315 298.422 233.818C297.819 234.321 296.901 234.643 295.669 234.784C294.719 234.892 293.975 234.806 293.436 234.527C292.897 234.248 292.593 233.797 292.522 233.175C292.473 232.746 292.566 232.369 292.802 232.044C293.042 231.723 293.399 231.477 293.874 231.308C293.667 231.247 293.488 231.131 293.336 230.961C293.189 230.786 293.103 230.595 293.08 230.389C293.05 230.129 293.098 229.9 293.225 229.702C293.351 229.504 293.55 229.301 293.82 229.091C293.44 228.977 293.117 228.758 292.85 228.435C292.587 228.107 292.429 227.708 292.375 227.237C292.289 226.48 292.46 225.867 292.887 225.396C293.319 224.925 293.977 224.64 294.86 224.539C295.057 224.516 295.265 224.508 295.483 224.513C295.704 224.513 295.871 224.522 295.984 224.539L298.4 224.263ZM293.838 232.948C293.874 233.268 294.045 233.497 294.35 233.637C294.66 233.776 295.076 233.816 295.597 233.757C296.404 233.665 296.993 233.481 297.361 233.204C297.73 232.928 297.893 232.599 297.849 232.216C297.815 231.913 297.681 231.709 297.447 231.604C297.219 231.502 296.81 231.485 296.221 231.552L295.099 231.68C294.674 231.728 294.347 231.866 294.117 232.092C293.892 232.322 293.799 232.607 293.838 232.948ZM293.813 227.073C293.863 227.51 294.013 227.834 294.263 228.044C294.516 228.254 294.854 228.334 295.274 228.287C296.132 228.189 296.508 227.682 296.404 226.765C296.352 226.311 296.205 225.974 295.963 225.755C295.724 225.531 295.389 225.443 294.956 225.493C294.527 225.542 294.215 225.701 294.02 225.97C293.829 226.239 293.76 226.606 293.813 227.073ZM302.97 229.722C303.332 229.681 303.687 229.583 304.035 229.428L304.163 230.545C304.007 230.635 303.801 230.718 303.546 230.794C303.295 230.873 303.031 230.929 302.753 230.961C301.349 231.121 300.563 230.461 300.394 228.981L299.965 225.222L299.013 225.33L298.938 224.675L299.898 224.016L300.235 222.482L301.149 222.378L301.326 223.93L303.313 223.703L303.441 224.826L301.454 225.052L301.879 228.786C301.92 229.143 302.039 229.398 302.235 229.55C302.435 229.698 302.68 229.755 302.97 229.722ZM311.714 229.812L310.225 229.981L309.736 225.693C309.675 225.155 309.52 224.765 309.271 224.526C309.027 224.285 308.669 224.192 308.198 224.245C307.576 224.316 307.139 224.556 306.887 224.963C306.639 225.366 306.565 226.005 306.665 226.88L307.059 230.342L305.577 230.511L304.459 220.698L305.941 220.529L306.225 223.02C306.27 223.419 306.294 223.849 306.295 224.309L306.389 224.298C306.553 223.939 306.803 223.646 307.139 223.42C307.48 223.194 307.89 223.054 308.369 222.999C310.059 222.807 311.001 223.562 311.195 225.265L311.714 229.812ZM322.919 224.989C323.049 226.128 322.858 227.051 322.347 227.757C321.835 228.462 321.058 228.875 320.015 228.993C319.363 229.068 318.771 228.986 318.237 228.749C317.703 228.512 317.27 228.133 316.938 227.613C316.606 227.093 316.399 226.469 316.316 225.741C316.187 224.61 316.377 223.694 316.884 222.993C317.392 222.292 318.174 221.882 319.229 221.761C320.238 221.646 321.074 221.881 321.737 222.466C322.4 223.046 322.794 223.887 322.919 224.989ZM317.842 225.568C318.026 227.178 318.712 227.915 319.902 227.78C321.08 227.645 321.576 226.773 321.393 225.163C321.211 223.569 320.528 222.84 319.342 222.975C318.72 223.046 318.291 223.304 318.056 223.748C317.826 224.192 317.755 224.798 317.842 225.568ZM327.861 222.043L326.158 222.237L326.825 228.09L325.336 228.259L324.669 222.406L323.521 222.537L323.442 221.843L324.538 221.259L324.487 220.804C324.393 219.98 324.517 219.349 324.859 218.909C325.2 218.466 325.768 218.199 326.562 218.108C327.084 218.049 327.607 218.077 328.131 218.191L327.868 219.359C327.488 219.283 327.133 219.264 326.801 219.301C326.464 219.34 326.23 219.473 326.099 219.701C325.971 219.924 325.931 220.244 325.978 220.66L326.03 221.114L327.733 220.92L327.861 222.043ZM338.863 223.172C338.993 224.311 338.802 225.234 338.29 225.939C337.779 226.645 337.002 227.057 335.959 227.176C335.307 227.251 334.714 227.169 334.18 226.932C333.647 226.694 333.214 226.316 332.882 225.796C332.55 225.276 332.343 224.652 332.26 223.924C332.131 222.793 332.32 221.877 332.828 221.176C333.336 220.475 334.118 220.065 335.173 219.944C336.182 219.829 337.018 220.064 337.681 220.649C338.343 221.229 338.737 222.07 338.863 223.172ZM333.786 223.75C333.969 225.361 334.656 226.098 335.846 225.963C337.023 225.828 337.52 224.956 337.337 223.346C337.155 221.752 336.471 221.023 335.286 221.158C334.663 221.229 334.235 221.487 334 221.931C333.77 222.374 333.698 222.981 333.786 223.75ZM347.108 225.778L345.619 225.948L345.13 221.659C345.069 221.121 344.914 220.732 344.665 220.492C344.42 220.251 344.063 220.158 343.592 220.211C342.965 220.283 342.528 220.52 342.28 220.923C342.032 221.326 341.958 221.963 342.057 222.833L342.453 226.308L340.971 226.477L340.176 219.502L341.336 219.37L341.649 220.26L341.724 220.252C341.897 219.896 342.166 219.605 342.532 219.38C342.899 219.155 343.317 219.016 343.788 218.962C345.461 218.772 346.395 219.528 346.589 221.231L347.108 225.778ZM352.23 225.322C351.146 225.445 350.26 225.227 349.575 224.666C348.893 224.101 348.488 223.263 348.362 222.153C348.232 221.014 348.414 220.086 348.907 219.369C349.4 218.653 350.143 218.238 351.135 218.125C352.056 218.02 352.816 218.217 353.413 218.715C354.011 219.214 354.366 219.953 354.477 220.932L354.569 221.733L349.92 222.263C350.019 222.937 350.261 223.438 350.647 223.764C351.033 224.087 351.54 224.212 352.166 224.141C352.578 224.094 352.956 224.012 353.301 223.896C353.649 223.776 354.017 223.602 354.404 223.375L354.542 224.579C354.2 224.793 353.848 224.956 353.486 225.07C353.124 225.184 352.706 225.268 352.23 225.322ZM351.263 219.248C350.793 219.301 350.431 219.494 350.179 219.825C349.932 220.156 349.813 220.61 349.823 221.188L352.989 220.827C352.915 220.252 352.727 219.833 352.424 219.569C352.121 219.301 351.734 219.194 351.263 219.248ZM362.696 216.808C362.994 216.774 363.243 216.767 363.441 216.787L363.453 218.184C363.237 218.158 363.016 218.157 362.789 218.183C362.196 218.251 361.737 218.499 361.411 218.928C361.089 219.357 360.963 219.88 361.034 220.498L361.449 224.143L359.967 224.312L359.172 217.337L360.333 217.205L360.668 218.412L360.744 218.404C360.928 217.961 361.191 217.597 361.533 217.311C361.879 217.024 362.267 216.856 362.696 216.808ZM371.33 219.471C371.46 220.611 371.269 221.533 370.758 222.239C370.246 222.945 369.469 223.357 368.426 223.476C367.775 223.55 367.182 223.469 366.648 223.231C366.114 222.994 365.681 222.615 365.349 222.095C365.017 221.575 364.81 220.951 364.727 220.224C364.598 219.093 364.788 218.177 365.296 217.476C365.803 216.775 366.585 216.364 367.64 216.244C368.65 216.129 369.486 216.364 370.148 216.948C370.811 217.529 371.205 218.37 371.33 219.471ZM366.253 220.05C366.437 221.66 367.124 222.398 368.314 222.262C369.491 222.128 369.988 221.256 369.804 219.645C369.623 218.052 368.939 217.323 367.753 217.458C367.131 217.529 366.702 217.786 366.468 218.23C366.237 218.674 366.166 219.281 366.253 220.05ZM379.159 222.125L377.886 218.973C377.737 218.641 377.449 217.863 377.019 216.638L376.963 216.645C376.848 217.808 376.746 218.635 376.658 219.126L376.1 222.474L374.46 222.661L371.71 215.908L373.224 215.735L374.505 219.071C374.803 219.898 375.029 220.609 375.182 221.205L375.22 221.2C375.227 220.889 375.25 220.53 375.289 220.126C375.332 219.716 375.374 219.409 375.414 219.204L376.056 215.413L377.683 215.227L379.129 218.781C379.216 218.98 379.329 219.286 379.47 219.7C379.615 220.114 379.71 220.437 379.753 220.671L379.804 220.665C379.808 220.141 379.873 219.401 379.998 218.445L380.508 214.905L381.997 214.736L380.824 221.935L379.159 222.125Z" fill="#474F50"/>
<path d="M75.3102 138.743C75.0936 138.571 74.7791 138.608 74.6078 138.825L71.8164 142.354C71.6451 142.571 71.6819 142.885 71.8985 143.057C72.115 143.228 72.4295 143.191 72.6008 142.975L75.082 139.837L78.2195 142.318C78.436 142.49 78.7505 142.453 78.9218 142.236C79.0931 142.02 79.0564 141.705 78.8398 141.534L75.3102 138.743ZM90.6898 276.527C90.9064 276.698 91.2209 276.662 91.3922 276.445L94.1836 272.915C94.3549 272.699 94.3181 272.384 94.1015 272.213C93.885 272.042 93.5705 272.078 93.3992 272.295L90.918 275.432L87.7805 272.951C87.564 272.78 87.2495 272.817 87.0782 273.033C86.9069 273.25 86.9436 273.564 87.1602 273.736L90.6898 276.527ZM74.5034 139.193L90.5034 276.193L91.4966 276.077L75.4966 139.077L74.5034 139.193Z" fill="#883D1F"/>
<path d="M529.067 176.128C528.77 173.429 527.413 170.959 525.294 169.26C523.176 167.562 520.469 166.774 517.77 167.071" stroke="#883D1F" strokeLinecap="round" strokeLinejoin="round"/>
<path d="M516.426 154.859L518.89 177.248L541.279 174.784" stroke="#883D1F" strokeLinecap="round" strokeLinejoin="round"/>
<path d="M320.021 373.159H323.436V377.818C322.877 378 322.34 378.129 321.824 378.205C321.312 378.281 320.757 378.319 320.161 378.319C318.756 378.319 317.672 377.905 316.911 377.075C316.149 376.242 315.768 375.067 315.768 373.552C315.768 372.058 316.198 370.89 317.057 370.048C317.916 369.202 319.098 368.779 320.605 368.779C321.574 368.779 322.492 368.965 323.36 369.337L322.827 370.601C322.073 370.254 321.32 370.08 320.567 370.08C319.577 370.08 318.794 370.391 318.218 371.013C317.643 371.635 317.355 372.486 317.355 373.565C317.355 374.699 317.613 375.562 318.129 376.155C318.65 376.743 319.397 377.037 320.37 377.037C320.861 377.037 321.386 376.976 321.944 376.853V374.46H320.021V373.159ZM329.904 378.192L329.606 377.215H329.555C329.217 377.642 328.876 377.934 328.533 378.091C328.19 378.243 327.75 378.319 327.213 378.319C326.523 378.319 325.984 378.133 325.594 377.761C325.209 377.388 325.017 376.861 325.017 376.18C325.017 375.457 325.285 374.911 325.823 374.542C326.36 374.174 327.179 373.973 328.279 373.939L329.492 373.901V373.527C329.492 373.078 329.386 372.744 329.174 372.524C328.967 372.3 328.643 372.187 328.203 372.187C327.843 372.187 327.499 372.24 327.168 372.346C326.838 372.452 326.521 372.577 326.216 372.721L325.734 371.654C326.115 371.455 326.532 371.305 326.984 371.204C327.437 371.098 327.865 371.045 328.267 371.045C329.16 371.045 329.832 371.24 330.285 371.629C330.742 372.018 330.971 372.63 330.971 373.463V378.192H329.904ZM327.683 377.177C328.224 377.177 328.658 377.027 328.984 376.726C329.314 376.421 329.479 375.996 329.479 375.45V374.841L328.578 374.879C327.875 374.904 327.363 375.023 327.042 375.234C326.724 375.442 326.565 375.761 326.565 376.193C326.565 376.506 326.659 376.749 326.845 376.923C327.031 377.092 327.31 377.177 327.683 377.177ZM336.614 378.319C335.725 378.319 335.035 378 334.544 377.361H334.456C334.515 377.953 334.544 378.313 334.544 378.44V381.315H333.053V371.172H334.259C334.293 371.303 334.362 371.616 334.468 372.111H334.544C335.01 371.4 335.708 371.045 336.639 371.045C337.515 371.045 338.196 371.362 338.683 371.997C339.174 372.632 339.419 373.523 339.419 374.669C339.419 375.816 339.17 376.711 338.67 377.354C338.175 377.998 337.49 378.319 336.614 378.319ZM336.252 372.264C335.66 372.264 335.226 372.437 334.951 372.784C334.68 373.131 334.544 373.686 334.544 374.447V374.669C334.544 375.524 334.68 376.144 334.951 376.529C335.222 376.91 335.664 377.101 336.277 377.101C336.794 377.101 337.191 376.889 337.471 376.466C337.75 376.043 337.89 375.44 337.89 374.657C337.89 373.87 337.75 373.275 337.471 372.873C337.196 372.467 336.789 372.264 336.252 372.264Z" fill="#474F50"/>
<path d="M542.173 263.881C541.729 263.881 541.331 263.962 540.98 264.123C540.633 264.283 540.339 264.516 540.098 264.821C539.856 265.121 539.672 265.487 539.545 265.919C539.418 266.346 539.355 266.829 539.355 267.366C539.355 268.086 539.457 268.706 539.66 269.226C539.863 269.742 540.172 270.14 540.586 270.419C541.001 270.694 541.526 270.832 542.161 270.832C542.554 270.832 542.937 270.794 543.31 270.718C543.682 270.642 544.067 270.538 544.465 270.407V271.702C544.088 271.85 543.707 271.958 543.322 272.025C542.937 272.093 542.493 272.127 541.989 272.127C541.041 272.127 540.254 271.93 539.628 271.537C539.006 271.143 538.54 270.589 538.231 269.874C537.927 269.158 537.774 268.32 537.774 267.36C537.774 266.657 537.872 266.014 538.066 265.43C538.261 264.846 538.545 264.343 538.917 263.919C539.289 263.492 539.749 263.164 540.294 262.936C540.845 262.703 541.473 262.586 542.18 262.586C542.645 262.586 543.102 262.639 543.551 262.745C544.004 262.847 544.423 262.993 544.808 263.183L544.274 264.44C543.953 264.288 543.616 264.156 543.265 264.046C542.914 263.936 542.55 263.881 542.173 263.881ZM549.105 264.84C549.731 264.84 550.269 264.969 550.717 265.227C551.166 265.485 551.511 265.851 551.752 266.325C551.993 266.799 552.114 267.366 552.114 268.026V268.826H547.423C547.44 269.507 547.622 270.032 547.969 270.4C548.32 270.769 548.811 270.953 549.441 270.953C549.89 270.953 550.292 270.91 550.647 270.826C551.007 270.737 551.377 270.608 551.758 270.438V271.651C551.407 271.816 551.049 271.937 550.686 272.013C550.322 272.089 549.886 272.127 549.378 272.127C548.688 272.127 548.081 271.994 547.556 271.727C547.036 271.456 546.627 271.054 546.331 270.521C546.039 269.988 545.893 269.326 545.893 268.534C545.893 267.747 546.026 267.078 546.293 266.528C546.56 265.978 546.934 265.559 547.417 265.271C547.899 264.984 548.462 264.84 549.105 264.84ZM549.105 265.963C548.635 265.963 548.254 266.116 547.962 266.42C547.675 266.725 547.505 267.172 547.455 267.76H550.654C550.65 267.409 550.59 267.097 550.476 266.827C550.366 266.556 550.197 266.344 549.968 266.192C549.744 266.04 549.456 265.963 549.105 265.963ZM557.458 264.84C558.25 264.84 558.866 265.045 559.306 265.456C559.75 265.862 559.972 266.516 559.972 267.417V272H558.48V267.696C558.48 267.15 558.368 266.742 558.144 266.471C557.92 266.196 557.573 266.059 557.103 266.059C556.422 266.059 555.948 266.268 555.681 266.687C555.419 267.106 555.288 267.713 555.288 268.509V272H553.796V264.973H554.958L555.167 265.925H555.25C555.402 265.68 555.59 265.479 555.814 265.322C556.043 265.161 556.297 265.041 556.576 264.96C556.86 264.88 557.154 264.84 557.458 264.84ZM564.676 270.921C564.87 270.921 565.063 270.904 565.253 270.87C565.444 270.832 565.617 270.788 565.774 270.737V271.867C565.609 271.939 565.395 272 565.133 272.051C564.87 272.102 564.597 272.127 564.314 272.127C563.916 272.127 563.559 272.061 563.241 271.93C562.924 271.795 562.672 271.564 562.486 271.238C562.3 270.912 562.207 270.462 562.207 269.886V266.109H561.248V265.443L562.276 264.916L562.765 263.412H563.705V264.973H565.717V266.109H563.705V269.867C563.705 270.223 563.793 270.487 563.971 270.661C564.149 270.834 564.384 270.921 564.676 270.921ZM570.001 264.84C570.628 264.84 571.165 264.969 571.614 265.227C572.062 265.485 572.407 265.851 572.648 266.325C572.89 266.799 573.01 267.366 573.01 268.026V268.826H568.319C568.336 269.507 568.518 270.032 568.865 270.4C569.216 270.769 569.707 270.953 570.338 270.953C570.786 270.953 571.188 270.91 571.544 270.826C571.904 270.737 572.274 270.608 572.655 270.438V271.651C572.304 271.816 571.946 271.937 571.582 272.013C571.218 272.089 570.782 272.127 570.274 272.127C569.585 272.127 568.977 271.994 568.453 271.727C567.932 271.456 567.524 271.054 567.228 270.521C566.936 269.988 566.79 269.326 566.79 268.534C566.79 267.747 566.923 267.078 567.189 266.528C567.456 265.978 567.831 265.559 568.313 265.271C568.795 264.984 569.358 264.84 570.001 264.84ZM570.001 265.963C569.532 265.963 569.151 266.116 568.859 266.42C568.571 266.725 568.402 267.172 568.351 267.76H571.55C571.546 267.409 571.487 267.097 571.373 266.827C571.263 266.556 571.093 266.344 570.865 266.192C570.64 266.04 570.353 265.963 570.001 265.963ZM578.253 264.84C578.372 264.84 578.501 264.846 578.641 264.859C578.78 264.872 578.901 264.889 579.002 264.91L578.863 266.306C578.774 266.281 578.664 266.262 578.533 266.249C578.406 266.236 578.292 266.23 578.19 266.23C577.923 266.23 577.669 266.274 577.428 266.363C577.187 266.448 576.973 266.579 576.787 266.757C576.601 266.93 576.455 267.148 576.349 267.411C576.243 267.673 576.19 267.978 576.19 268.325V272H574.692V264.973H575.86L576.063 266.211H576.133C576.273 265.961 576.446 265.733 576.654 265.525C576.861 265.318 577.098 265.153 577.365 265.03C577.636 264.903 577.932 264.84 578.253 264.84ZM581.802 272H580.304V262.123H581.802V272ZM585.426 264.973V272H583.935V264.973H585.426ZM584.69 262.282C584.918 262.282 585.115 262.343 585.28 262.466C585.45 262.589 585.534 262.8 585.534 263.101C585.534 263.397 585.45 263.608 585.28 263.735C585.115 263.858 584.918 263.919 584.69 263.919C584.453 263.919 584.252 263.858 584.087 263.735C583.926 263.608 583.846 263.397 583.846 263.101C583.846 262.8 583.926 262.589 584.087 262.466C584.252 262.343 584.453 262.282 584.69 262.282ZM591.228 264.84C592.019 264.84 592.635 265.045 593.075 265.456C593.52 265.862 593.742 266.516 593.742 267.417V272H592.25V267.696C592.25 267.15 592.138 266.742 591.914 266.471C591.689 266.196 591.342 266.059 590.873 266.059C590.191 266.059 589.717 266.268 589.451 266.687C589.188 267.106 589.057 267.713 589.057 268.509V272H587.565V264.973H588.727L588.937 265.925H589.019C589.171 265.68 589.36 265.479 589.584 265.322C589.812 265.161 590.066 265.041 590.346 264.96C590.629 264.88 590.923 264.84 591.228 264.84ZM598.629 264.84C599.256 264.84 599.793 264.969 600.242 265.227C600.69 265.485 601.035 265.851 601.276 266.325C601.518 266.799 601.638 267.366 601.638 268.026V268.826H596.947C596.964 269.507 597.146 270.032 597.493 270.4C597.844 270.769 598.335 270.953 598.966 270.953C599.414 270.953 599.816 270.91 600.172 270.826C600.532 270.737 600.902 270.608 601.283 270.438V271.651C600.931 271.816 600.574 271.937 600.21 272.013C599.846 272.089 599.41 272.127 598.902 272.127C598.213 272.127 597.605 271.994 597.081 271.727C596.56 271.456 596.152 271.054 595.855 270.521C595.563 269.988 595.417 269.326 595.417 268.534C595.417 267.747 595.551 267.078 595.817 266.528C596.084 265.978 596.458 265.559 596.941 265.271C597.423 264.984 597.986 264.84 598.629 264.84ZM598.629 265.963C598.16 265.963 597.779 266.116 597.487 266.42C597.199 266.725 597.03 267.172 596.979 267.76H600.178C600.174 267.409 600.115 267.097 600 266.827C599.89 266.556 599.721 266.344 599.493 266.192C599.268 266.04 598.981 265.963 598.629 265.963Z" fill="#474F50"/>
<path d="M538.982 192.192L538.056 189.615H534.507L533.6 192.192H532L535.472 182.874H537.123L540.595 192.192H538.982ZM537.656 188.308L536.786 185.781C536.723 185.612 536.634 185.345 536.52 184.981C536.41 184.618 536.333 184.351 536.291 184.182C536.177 184.702 536.01 185.271 535.79 185.889L534.952 188.308H537.656ZM546.352 192.192H541.026V191.272L544.575 186.314H541.242V185.172H546.25V186.213L542.778 191.05H546.352V192.192ZM549.374 192.192H547.882V185.172H549.374V192.192ZM547.793 183.312C547.793 183.045 547.865 182.84 548.009 182.696C548.157 182.552 548.366 182.48 548.637 182.48C548.9 182.48 549.103 182.552 549.247 182.696C549.395 182.84 549.469 183.045 549.469 183.312C549.469 183.566 549.395 183.767 549.247 183.915C549.103 184.059 548.9 184.131 548.637 184.131C548.366 184.131 548.157 184.059 548.009 183.915C547.865 183.767 547.793 183.566 547.793 183.312ZM557.429 192.192H555.931V187.863C555.931 187.326 555.829 186.926 555.626 186.664C555.423 186.397 555.105 186.264 554.674 186.264C554.098 186.264 553.675 186.452 553.404 186.829C553.138 187.201 553.004 187.823 553.004 188.695V192.192H551.513V185.172H552.681L552.89 186.092H552.966C553.161 185.758 553.442 185.5 553.811 185.318C554.183 185.136 554.591 185.045 555.036 185.045C556.115 185.045 556.83 185.413 557.181 186.149H557.283C557.49 185.802 557.782 185.532 558.159 185.337C558.535 185.142 558.967 185.045 559.454 185.045C560.292 185.045 560.901 185.257 561.282 185.68C561.667 186.103 561.859 186.748 561.859 187.616V192.192H560.368V187.863C560.368 187.326 560.264 186.926 560.057 186.664C559.854 186.397 559.536 186.264 559.104 186.264C558.525 186.264 558.099 186.446 557.829 186.81C557.562 187.169 557.429 187.724 557.429 188.473V192.192ZM568.893 192.192L568.683 191.272H568.607C568.4 191.598 568.103 191.854 567.718 192.04C567.337 192.226 566.902 192.319 566.411 192.319C565.56 192.319 564.925 192.108 564.506 191.685C564.087 191.261 563.878 190.62 563.878 189.761V185.172H565.382V189.501C565.382 190.038 565.492 190.443 565.712 190.713C565.932 190.98 566.277 191.113 566.747 191.113C567.373 191.113 567.833 190.927 568.125 190.555C568.421 190.178 568.569 189.55 568.569 188.669V185.172H570.067V192.192H568.893ZM574.809 191.113C575.173 191.113 575.536 191.056 575.9 190.942V192.065C575.735 192.137 575.522 192.197 575.259 192.243C575.001 192.294 574.732 192.319 574.453 192.319C573.04 192.319 572.333 191.575 572.333 190.085V186.302H571.375V185.642L572.403 185.096L572.911 183.61H573.831V185.172H575.831V186.302H573.831V190.06C573.831 190.419 573.92 190.686 574.098 190.859C574.28 191.029 574.517 191.113 574.809 191.113ZM583.486 192.192H581.988V187.876C581.988 187.334 581.878 186.93 581.658 186.664C581.442 186.397 581.097 186.264 580.623 186.264C579.997 186.264 579.535 186.452 579.239 186.829C578.947 187.201 578.801 187.827 578.801 188.708V192.192H577.31V182.315H578.801V184.823C578.801 185.225 578.776 185.654 578.725 186.111H578.82C579.023 185.773 579.305 185.51 579.665 185.324C580.028 185.138 580.452 185.045 580.934 185.045C582.635 185.045 583.486 185.902 583.486 187.616V192.192Z" fill="#474F50"/>
<path d="M115.609 234.88C115.437 235.096 115.472 235.411 115.688 235.583L119.204 238.392C119.42 238.564 119.734 238.529 119.907 238.313C120.079 238.097 120.044 237.783 119.828 237.61L116.703 235.114L119.199 231.988C119.372 231.773 119.336 231.458 119.121 231.286C118.905 231.113 118.59 231.149 118.418 231.364L115.609 234.88ZM509.763 191.505C509.935 191.289 509.9 190.974 509.684 190.802L506.168 187.993C505.952 187.821 505.638 187.856 505.465 188.072C505.293 188.288 505.328 188.602 505.544 188.775L508.669 191.271L506.173 194.396C506 194.612 506.036 194.927 506.251 195.099C506.467 195.271 506.782 195.236 506.954 195.02L509.763 191.505ZM116.056 235.689L509.428 191.689L509.316 190.696L115.944 234.695L116.056 235.689Z" fill="#883D1F"/>
<path d="M315.389 354.507C315.562 354.292 315.529 353.977 315.314 353.803L311.813 350.976C311.599 350.802 311.284 350.836 311.11 351.051C310.937 351.266 310.97 351.58 311.185 351.754L314.297 354.267L311.784 357.379C311.61 357.594 311.643 357.909 311.858 358.082C312.073 358.256 312.388 358.222 312.561 358.007L315.389 354.507ZM268.053 359.69L315.053 354.69L314.947 353.695L267.947 358.695L268.053 359.69Z" fill="#883D1F"/>
<path d="M336.611 351.878C336.438 352.093 336.471 352.408 336.686 352.581L340.187 355.409C340.401 355.582 340.716 355.549 340.89 355.334C341.063 355.119 341.03 354.804 340.815 354.631L337.703 352.118L340.216 349.006C340.39 348.791 340.357 348.476 340.142 348.303C339.927 348.129 339.612 348.163 339.439 348.377L336.611 351.878ZM337.053 352.69L384.053 347.69L383.947 346.695L336.947 351.695L337.053 352.69Z" fill="#883D1F"/>
<path d="M33.3696 289.718C33.3696 290.687 33.0522 291.43 32.4175 291.946C31.7827 292.462 30.8792 292.72 29.707 292.72H28.7422V296.192H27.2251V286.912H29.8975C31.057 286.912 31.9245 287.149 32.5 287.623C33.0798 288.097 33.3696 288.795 33.3696 289.718ZM28.7422 291.444H29.5483C30.327 291.444 30.8983 291.309 31.2622 291.038C31.6261 290.767 31.8081 290.344 31.8081 289.769C31.8081 289.235 31.6452 288.838 31.3193 288.575C30.9935 288.313 30.4857 288.182 29.7959 288.182H28.7422V291.444ZM36.5562 296.192H35.0645V289.172H36.5562V296.192ZM34.9756 287.312C34.9756 287.045 35.0475 286.84 35.1914 286.696C35.3395 286.552 35.549 286.48 35.8198 286.48C36.0822 286.48 36.2853 286.552 36.4292 286.696C36.5773 286.84 36.6514 287.045 36.6514 287.312C36.6514 287.566 36.5773 287.767 36.4292 287.915C36.2853 288.059 36.0822 288.131 35.8198 288.131C35.549 288.131 35.3395 288.059 35.1914 287.915C35.0475 287.767 34.9756 287.566 34.9756 287.312ZM41.3105 295.113C41.6745 295.113 42.0384 295.056 42.4023 294.942V296.065C42.2373 296.137 42.0236 296.197 41.7612 296.243C41.5031 296.294 41.2344 296.319 40.9551 296.319C39.5417 296.319 38.835 295.575 38.835 294.085V290.302H37.8765V289.642L38.9048 289.096L39.4126 287.61H40.333V289.172H42.3325V290.302H40.333V294.06C40.333 294.419 40.4219 294.686 40.5996 294.859C40.7816 295.029 41.0186 295.113 41.3105 295.113ZM46.6426 296.319C45.5804 296.319 44.7721 296.01 44.2178 295.393C43.6676 294.771 43.3926 293.88 43.3926 292.72C43.3926 291.54 43.6803 290.632 44.2559 289.997C44.8356 289.362 45.6714 289.045 46.7632 289.045C47.5037 289.045 48.1702 289.182 48.7627 289.458L48.312 290.657C47.6815 290.412 47.161 290.289 46.7505 290.289C45.536 290.289 44.9287 291.095 44.9287 292.708C44.9287 293.495 45.0789 294.087 45.3794 294.485C45.6841 294.878 46.1284 295.075 46.7124 295.075C47.3768 295.075 48.0052 294.91 48.5977 294.58V295.881C48.3311 296.038 48.0454 296.15 47.7407 296.218C47.4403 296.285 47.0742 296.319 46.6426 296.319ZM56.4243 296.192H54.9263V291.876C54.9263 291.334 54.8162 290.93 54.5962 290.664C54.3804 290.397 54.0355 290.264 53.5615 290.264C52.9352 290.264 52.474 290.452 52.1777 290.829C51.8857 291.201 51.7397 291.827 51.7397 292.708V296.192H50.248V286.315H51.7397V288.823C51.7397 289.225 51.7144 289.654 51.6636 290.111H51.7588C51.9619 289.773 52.2433 289.51 52.603 289.324C52.967 289.138 53.3901 289.045 53.8726 289.045C55.5737 289.045 56.4243 289.902 56.4243 291.616V296.192ZM68.104 292.669C68.104 293.816 67.8099 294.711 67.2217 295.354C66.6335 295.998 65.8146 296.319 64.7651 296.319C64.1092 296.319 63.5295 296.171 63.0259 295.875C62.5223 295.579 62.1351 295.153 61.8643 294.599C61.5934 294.045 61.458 293.402 61.458 292.669C61.458 291.531 61.75 290.642 62.334 290.003C62.918 289.364 63.741 289.045 64.8032 289.045C65.8188 289.045 66.6229 289.373 67.2153 290.029C67.8078 290.681 68.104 291.561 68.104 292.669ZM62.9941 292.669C62.9941 294.29 63.5929 295.101 64.7905 295.101C65.9754 295.101 66.5679 294.29 66.5679 292.669C66.5679 291.066 65.9712 290.264 64.7778 290.264C64.1515 290.264 63.6966 290.471 63.4131 290.886C63.1338 291.3 62.9941 291.895 62.9941 292.669ZM73.3472 290.302H71.6333V296.192H70.1353V290.302H68.98V289.604L70.1353 289.146V288.689C70.1353 287.86 70.3299 287.246 70.7192 286.849C71.1086 286.447 71.7031 286.246 72.5029 286.246C73.0277 286.246 73.5439 286.332 74.0518 286.506L73.6582 287.636C73.29 287.517 72.9388 287.458 72.6045 287.458C72.2659 287.458 72.0184 287.564 71.8618 287.775C71.7095 287.983 71.6333 288.296 71.6333 288.715V289.172H73.3472V290.302ZM81.4849 289.045C81.7853 289.045 82.0329 289.066 82.2275 289.108L82.0815 290.499C81.87 290.448 81.6499 290.422 81.4214 290.422C80.8247 290.422 80.3402 290.617 79.9678 291.006C79.5996 291.396 79.4155 291.901 79.4155 292.523V296.192H77.9238V289.172H79.0918L79.2886 290.41H79.3647C79.5975 289.991 79.9001 289.659 80.2725 289.413C80.6491 289.168 81.0532 289.045 81.4849 289.045ZM89.7622 292.669C89.7622 293.816 89.4681 294.711 88.8799 295.354C88.2917 295.998 87.4728 296.319 86.4233 296.319C85.7674 296.319 85.1877 296.171 84.6841 295.875C84.1805 295.579 83.7933 295.153 83.5225 294.599C83.2516 294.045 83.1162 293.402 83.1162 292.669C83.1162 291.531 83.4082 290.642 83.9922 290.003C84.5762 289.364 85.3992 289.045 86.4614 289.045C87.477 289.045 88.2811 289.373 88.8735 290.029C89.466 290.681 89.7622 291.561 89.7622 292.669ZM84.6523 292.669C84.6523 294.29 85.2511 295.101 86.4487 295.101C87.6336 295.101 88.2261 294.29 88.2261 292.669C88.2261 291.066 87.6294 290.264 86.436 290.264C85.8097 290.264 85.3548 290.471 85.0713 290.886C84.792 291.3 84.6523 291.895 84.6523 292.669ZM97.2397 296.192L96.332 292.917C96.222 292.57 96.0231 291.764 95.7353 290.499H95.6782C95.4328 291.641 95.2381 292.451 95.0942 292.93L94.1611 296.192H92.5107L90.543 289.172H92.0664L92.9614 292.631C93.1645 293.486 93.3084 294.218 93.3931 294.828H93.4311C93.4735 294.519 93.5369 294.165 93.6216 293.768C93.7104 293.366 93.7866 293.065 93.8501 292.866L94.9165 289.172H96.5542L97.5889 292.866C97.6523 293.074 97.7306 293.391 97.8237 293.818C97.9211 294.246 97.9782 294.578 97.9951 294.815H98.0459C98.1094 294.294 98.2575 293.567 98.4902 292.631L99.3979 289.172H100.896L98.9155 296.192H97.2397ZM106.825 294.193C106.825 294.878 106.575 295.405 106.076 295.773C105.576 296.137 104.861 296.319 103.93 296.319C102.995 296.319 102.244 296.178 101.677 295.894V294.605C102.502 294.986 103.27 295.177 103.981 295.177C104.899 295.177 105.358 294.9 105.358 294.345C105.358 294.167 105.308 294.019 105.206 293.901C105.104 293.782 104.937 293.66 104.705 293.533C104.472 293.406 104.148 293.262 103.733 293.101C102.925 292.788 102.377 292.475 102.089 292.162C101.806 291.848 101.664 291.442 101.664 290.943C101.664 290.342 101.905 289.876 102.388 289.546C102.874 289.212 103.535 289.045 104.368 289.045C105.193 289.045 105.974 289.212 106.71 289.546L106.228 290.67C105.471 290.357 104.834 290.2 104.317 290.2C103.53 290.2 103.137 290.424 103.137 290.873C103.137 291.093 103.238 291.279 103.441 291.432C103.649 291.584 104.097 291.793 104.787 292.06C105.367 292.284 105.788 292.49 106.05 292.676C106.313 292.862 106.507 293.078 106.634 293.323C106.761 293.564 106.825 293.854 106.825 294.193Z" fill="#474F50"/>
<path d="M613.596 95H610.055L606.404 87.959H606.343C606.366 88.1732 606.386 88.4307 606.404 88.7314C606.423 89.0322 606.438 89.3398 606.452 89.6543C606.466 89.9642 606.473 90.2445 606.473 90.4951V95H604.08V85.0059H607.607L611.244 91.9512H611.285C611.271 91.7324 611.258 91.4795 611.244 91.1924C611.23 90.9007 611.217 90.6068 611.203 90.3105C611.194 90.0143 611.189 89.7523 611.189 89.5244V85.0059H613.596V95Z" fill="#474F50"/>
<path d="M612.741 79.5557H605.258C604.963 79.5561 604.674 79.4721 604.423 79.3133C604.173 79.1545 603.973 78.9275 603.845 78.6585C603.696 78.3394 603.639 77.9843 603.679 77.6338C603.72 77.2832 603.858 76.9513 604.077 76.6759L607.818 72.1005C607.965 71.9295 608.146 71.7923 608.35 71.6983C608.554 71.6043 608.776 71.5557 609 71.5557C609.224 71.5557 609.446 71.6043 609.65 71.6983C609.854 71.7923 610.035 71.9295 610.182 72.1005L613.923 76.6759C614.142 76.9513 614.28 77.2832 614.321 77.6338C614.361 77.9843 614.304 78.3394 614.155 78.6585C614.027 78.9275 613.827 79.1545 613.576 79.3133C613.326 79.4721 613.037 79.5561 612.741 79.5557Z" fill="#DB8C47"/>
</svg>
