<svg width="309" height="212" viewBox="0 0 309 212" fill="none" xmlns="http://www.w3.org/2000/svg">
<path d="M227.354 33.6464C227.158 33.4512 226.842 33.4512 226.646 33.6464L223.464 36.8284C223.269 37.0237 223.269 37.3403 223.464 37.5355C223.66 37.7308 223.976 37.7308 224.172 37.5355L227 34.7071L229.828 37.5355C230.024 37.7308 230.34 37.7308 230.536 37.5355C230.731 37.3403 230.731 37.0237 230.536 36.8284L227.354 33.6464ZM226.646 210.354C226.842 210.549 227.158 210.549 227.354 210.354L230.536 207.172C230.731 206.976 230.731 206.66 230.536 206.464C230.34 206.269 230.024 206.269 229.828 206.464L227 209.293L224.172 206.464C223.976 206.269 223.66 206.269 223.464 206.464C223.269 206.66 223.269 206.976 223.464 207.172L226.646 210.354ZM226.5 34L226.5 210L227.5 210L227.5 34L226.5 34Z" fill="#883D1F"/>
<path d="M241.544 127H240.021V122.817H235.742V127H234.225V117.72H235.742V121.516H240.021V117.72H241.544V127ZM246.895 127.127C245.803 127.127 244.948 126.81 244.331 126.175C243.717 125.536 243.41 124.658 243.41 123.541C243.41 122.394 243.696 121.492 244.267 120.836C244.838 120.181 245.623 119.853 246.622 119.853C247.549 119.853 248.281 120.134 248.818 120.697C249.356 121.26 249.625 122.034 249.625 123.02V123.826H244.946C244.967 124.507 245.152 125.032 245.499 125.4C245.846 125.764 246.334 125.946 246.965 125.946C247.38 125.946 247.765 125.908 248.12 125.832C248.48 125.752 248.865 125.62 249.275 125.438V126.651C248.911 126.824 248.543 126.947 248.171 127.019C247.799 127.091 247.373 127.127 246.895 127.127ZM246.622 120.982C246.148 120.982 245.767 121.133 245.479 121.433C245.196 121.734 245.027 122.172 244.972 122.747H248.158C248.15 122.167 248.01 121.729 247.739 121.433C247.468 121.133 247.096 120.982 246.622 120.982ZM252.811 127H251.319V119.979H252.811V127ZM251.23 118.12C251.23 117.853 251.302 117.648 251.446 117.504C251.594 117.36 251.804 117.288 252.075 117.288C252.337 117.288 252.54 117.36 252.684 117.504C252.832 117.648 252.906 117.853 252.906 118.12C252.906 118.374 252.832 118.575 252.684 118.723C252.54 118.867 252.337 118.938 252.075 118.938C251.804 118.938 251.594 118.867 251.446 118.723C251.302 118.575 251.23 118.374 251.23 118.12ZM260.879 119.979V120.798L259.679 121.021C259.789 121.169 259.88 121.351 259.952 121.566C260.024 121.782 260.06 122.011 260.06 122.252C260.06 122.976 259.81 123.545 259.311 123.959C258.812 124.374 258.124 124.582 257.248 124.582C257.024 124.582 256.821 124.565 256.639 124.531C256.317 124.73 256.156 124.962 256.156 125.229C256.156 125.39 256.23 125.51 256.378 125.591C256.531 125.671 256.808 125.711 257.21 125.711H258.435C259.209 125.711 259.798 125.876 260.2 126.207C260.602 126.537 260.803 127.013 260.803 127.635C260.803 128.43 260.475 129.044 259.819 129.476C259.163 129.907 258.215 130.123 256.975 130.123C256.019 130.123 255.289 129.954 254.785 129.615C254.282 129.277 254.03 128.794 254.03 128.168C254.03 127.736 254.165 127.372 254.436 127.076C254.711 126.784 255.094 126.581 255.585 126.467C255.386 126.382 255.221 126.247 255.09 126.061C254.963 125.87 254.899 125.671 254.899 125.464C254.899 125.201 254.973 124.979 255.122 124.797C255.27 124.615 255.49 124.436 255.782 124.258C255.418 124.101 255.122 123.847 254.893 123.496C254.669 123.141 254.557 122.726 254.557 122.252C254.557 121.49 254.796 120.9 255.274 120.481C255.756 120.062 256.442 119.853 257.331 119.853C257.529 119.853 257.737 119.867 257.953 119.897C258.173 119.922 258.338 119.95 258.448 119.979H260.879ZM255.363 128.092C255.363 128.413 255.507 128.661 255.794 128.834C256.086 129.008 256.495 129.095 257.02 129.095C257.832 129.095 258.437 128.978 258.835 128.746C259.233 128.513 259.432 128.204 259.432 127.819C259.432 127.514 259.322 127.296 259.102 127.165C258.886 127.038 258.482 126.975 257.889 126.975H256.759C256.332 126.975 255.991 127.074 255.737 127.273C255.488 127.476 255.363 127.749 255.363 128.092ZM256.004 122.252C256.004 122.692 256.116 123.031 256.34 123.268C256.569 123.505 256.895 123.623 257.318 123.623C258.181 123.623 258.613 123.162 258.613 122.239C258.613 121.782 258.505 121.431 258.289 121.186C258.077 120.936 257.754 120.811 257.318 120.811C256.886 120.811 256.558 120.934 256.334 121.179C256.114 121.425 256.004 121.782 256.004 122.252ZM268.363 127H266.865V122.684C266.865 122.142 266.755 121.738 266.535 121.471C266.319 121.205 265.974 121.071 265.5 121.071C264.874 121.071 264.412 121.26 264.116 121.636C263.824 122.009 263.678 122.635 263.678 123.515V127H262.187V117.123H263.678V119.63C263.678 120.032 263.653 120.462 263.602 120.919H263.697C263.9 120.58 264.182 120.318 264.542 120.132C264.905 119.946 265.329 119.853 265.811 119.853C267.512 119.853 268.363 120.709 268.363 122.423V127ZM273.054 125.921C273.418 125.921 273.782 125.864 274.146 125.75V126.873C273.98 126.945 273.767 127.004 273.504 127.051C273.246 127.102 272.978 127.127 272.698 127.127C271.285 127.127 270.578 126.382 270.578 124.893V121.109H269.62V120.449L270.648 119.903L271.156 118.418H272.076V119.979H274.076V121.109H272.076V124.867C272.076 125.227 272.165 125.493 272.343 125.667C272.525 125.836 272.762 125.921 273.054 125.921Z" fill="#474F50"/>
<path d="M120.431 83H118.914V75.021H116.184V73.7197H123.16V75.021H120.431V83ZM125.921 83H124.43V75.9795H125.921V83ZM124.341 74.1196C124.341 73.853 124.413 73.6478 124.557 73.5039C124.705 73.36 124.914 73.2881 125.185 73.2881C125.447 73.2881 125.651 73.36 125.794 73.5039C125.943 73.6478 126.017 73.853 126.017 74.1196C126.017 74.3735 125.943 74.5745 125.794 74.7227C125.651 74.8665 125.447 74.9385 125.185 74.9385C124.914 74.9385 124.705 74.8665 124.557 74.7227C124.413 74.5745 124.341 74.3735 124.341 74.1196ZM129.552 83H128.061V73.123H129.552V83ZM134.307 81.9209C134.671 81.9209 135.035 81.8638 135.398 81.7495V82.873C135.233 82.945 135.02 83.0042 134.757 83.0508C134.499 83.1016 134.23 83.127 133.951 83.127C132.538 83.127 131.831 82.3822 131.831 80.8926V77.1094H130.873V76.4492L131.901 75.9033L132.409 74.418H133.329V75.9795H135.329V77.1094H133.329V80.8672C133.329 81.2269 133.418 81.4935 133.596 81.667C133.778 81.8363 134.015 81.9209 134.307 81.9209Z" fill="#474F50"/>
<g filter="url(#filter0_d_6350_7367)">
<path d="M156 32H165V209C165 210.105 164.105 211 163 211H158C156.895 211 156 210.105 156 209V32Z" fill="url(#paint0_linear_6350_7367)"/>
</g>
<rect x="76.2554" y="54.9615" width="163.6" height="8.6" rx="1.8" transform="rotate(-19.5354 76.2554 54.9615)" fill="white" stroke="black" strokeWidth="0.4"/>
<line y1="211.5" x2="309" y2="211.5" stroke="#774E19" stroke-dasharray="2 2"/>
<line x1="79" y1="62.5" x2="177" y2="62.5" stroke="#883D1F" stroke-dasharray="2 2"/>
<line x1="165" y1="33.5" x2="223" y2="33.5" stroke="#883D1F" stroke-dasharray="2 2"/>
<path d="M126.669 62.5151C127.535 61.3233 128.121 59.9303 128.377 58.4544C128.632 56.9786 128.549 55.4636 128.135 54.0384C127.72 52.6132 126.987 51.32 125.998 50.2686C125.008 49.2173 123.791 48.439 122.45 48" stroke="black"/>
<defs>
<filter id="filter0_d_6350_7367" x="155" y="31" width="11" height="181" filterUnits="userSpaceOnUse" color-interpolation-filters="sRGB">
<feFlood flood-opacity="0" result="BackgroundImageFix"/>
<feColorMatrix in="SourceAlpha" type="matrix" values="0 0 0 0 0 0 0 0 0 0 0 0 0 0 0 0 0 0 127 0" result="hardAlpha"/>
<feOffset/>
<feGaussianBlur stdDeviation="0.5"/>
<feComposite in2="hardAlpha" operator="out"/>
<feColorMatrix type="matrix" values="0 0 0 0 0 0 0 0 0 0 0 0 0 0 0 0 0 0 0.2 0"/>
<feBlend mode="normal" in2="BackgroundImageFix" result="effect1_dropShadow_6350_7367"/>
<feBlend mode="normal" in="SourceGraphic" in2="effect1_dropShadow_6350_7367" result="shape"/>
</filter>
<linearGradient id="paint0_linear_6350_7367" x1="160.5" y1="32" x2="160.5" y2="211" gradientUnits="userSpaceOnUse">
<stop stop-color="#999FAD"/>
<stop offset="0.434654" stop-color="#6C717C"/>
<stop offset="1" stop-color="#5A5F67"/>
</linearGradient>
</defs>
</svg>
